<?xml version="1.0" encoding="utf-8"?>
<!-- Generator: Adobe Illustrator 18.1.1, SVG Export Plug-In . SVG Version: 6.00 Build 0)  -->
<svg version="1.1" id="Layer_1" xmlns="http://www.w3.org/2000/svg" xmlns:xlink="http://www.w3.org/1999/xlink" x="0px" y="0px"
	 viewBox="0 0 300 300" enable-background="new 0 0 300 300" xml:space="preserve">
<g>
	<path fill="#CCCCCC" d="M273,144.8H26.7c-10.6,0-19.3,8.7-19.3,19.3v115.7c0,10.6,8.7,19.3,19.3,19.3H273
		c10.6,0,19.3-8.7,19.3-19.3V164.2C292.4,153.5,283.7,144.8,273,144.8z M21,164.2c0-3.3,2.7-5.7,5.7-5.7H273c3.3,0,5.7,2.7,5.7,5.7
		v115.7c0,3.3-2.7,5.7-5.7,5.7H26.7c-3.3,0-5.7-2.7-5.7-5.7V164.2z"/>
	<path fill="#CCCCCC" d="M227,7.6c0-3.5-2.7-6.3-6.3-6.3c-3.5,0-6.3,2.7-6.3,6.3v0.3l0,0v40.8c0,10.1-8.2,18.5-18.5,18.5h-59.6l0,0
		h-18c-17.2,0-31,13.9-31,31v35.1h12.5V98.5c0-10.1,8.2-18.5,18.5-18.5h41.1l0,0H196c17.2,0,31-13.9,31-31V8.2l0,0
		C226.8,7.9,227,7.9,227,7.6z"/>
	<path fill="#CCCCCC" d="M96.1,200.9H80.9c-4.4,0-7.9-3.5-7.9-7.9v-14.4c0-4.4,3.5-7.9,7.9-7.9h15.2c4.4,0,7.9,3.5,7.9,7.9V193
		C104,197.4,100.5,200.9,96.1,200.9z M82.5,191.4h12v-11.2h-12V191.4z"/>
	<path fill="#CCCCCC" d="M136.9,200.9h-15.2c-4.4,0-7.9-3.5-7.9-7.9v-14.4c0-4.4,3.5-7.9,7.9-7.9h15.2c4.4,0,7.9,3.5,7.9,7.9V193
		C144.8,197.4,141.3,200.9,136.9,200.9z M123.3,191.4h12v-11.2h-12V191.4z"/>
	<path fill="#CCCCCC" d="M177.8,200.9h-15.2c-4.4,0-7.9-3.5-7.9-7.9v-14.4c0-4.4,3.5-7.9,7.9-7.9h15.2c4.4,0,7.9,3.5,7.9,7.9V193
		C185.7,197.4,182.1,200.9,177.8,200.9z M164.2,191.4h12v-11.2h-12V191.4z"/>
	<path fill="#CCCCCC" d="M218.6,200.9h-15.2c-4.4,0-7.9-3.5-7.9-7.9v-14.4c0-4.4,3.5-7.9,7.9-7.9h15.2c4.4,0,7.9,3.5,7.9,7.9V193
		C226.5,197.4,223,200.9,218.6,200.9z M205,191.4h12v-11.2h-12V191.4z"/>
	<path fill="#CCCCCC" d="M259.2,200.9H244c-4.4,0-7.9-3.5-7.9-7.9v-14.4c0-4.4,3.5-7.9,7.9-7.9h15.2c4.4,0,7.9,3.5,7.9,7.9V193
		C267.1,197.4,263.5,200.9,259.2,200.9z M245.8,191.4h12v-11.2h-12L245.8,191.4L245.8,191.4z"/>
	<path fill="#CCCCCC" d="M115.4,239h-15.2c-4.4,0-7.9-3.5-7.9-7.9v-14.4c0-4.4,3.5-7.9,7.9-7.9h15.2c4.4,0,7.9,3.5,7.9,7.9v14.4
		C123.3,235.5,119.8,239,115.4,239z M101.8,229.5h12v-11.2h-12V229.5z"/>
	<path fill="#CCCCCC" d="M156.3,239H141c-4.4,0-7.9-3.5-7.9-7.9v-14.4c0-4.4,3.5-7.9,7.9-7.9h15.2c4.4,0,7.9,3.5,7.9,7.9v14.4
		C164.2,235.5,160.6,239,156.3,239z M142.6,229.5h12v-11.2h-12V229.5z"/>
	<path fill="#CCCCCC" d="M196.8,239h-15.2c-4.4,0-7.9-3.5-7.9-7.9v-14.4c0-4.4,3.5-7.9,7.9-7.9h15.2c4.4,0,7.9,3.5,7.9,7.9v14.4
		C204.7,235.5,201.2,239,196.8,239z M183.5,229.5h11.7v-11.2h-12v11.2H183.5z"/>
	<path fill="#CCCCCC" d="M237.7,239h-15.2c-4.4,0-7.9-3.5-7.9-7.9v-14.4c0-4.4,3.5-7.9,7.9-7.9h15.2c4.4,0,7.9,3.5,7.9,7.9v14.4
		C245.6,235.5,242,239,237.7,239z M224,229.5h12v-11.2h-12V229.5z"/>
	<path fill="#CCCCCC" d="M199.5,276.6H95.8c-4.4,0-7.6-3.5-7.6-7.6v-13.1c0-4.4,3.5-7.6,7.6-7.6h103.7c4.4,0,7.6,3.5,7.6,7.6v12.8
		C207.4,273,203.9,276.6,199.5,276.6z M97.7,267.1h100.2v-9.3H97.7V267.1z"/>
	<path fill="#CCCCCC" d="M55,200.9H39.7c-4.4,0-7.9-3.5-7.9-7.9v-14.4c0-4.4,3.5-7.9,7.9-7.9H55c4.4,0,7.9,3.5,7.9,7.9V193
		C62.9,197.4,59.3,200.9,55,200.9z M41.4,191.4h12v-11.2h-12V191.4z"/>
	<path fill="#CCCCCC" d="M74.3,239H59.1c-4.4,0-7.9-3.5-7.9-7.9v-14.4c0-4.4,3.5-7.9,7.9-7.9h15.2c4.4,0,7.9,3.5,7.9,7.9v14.4
		C82.2,235.5,78.7,239,74.3,239z M60.7,229.5h12v-11.2h-12C60.7,218.3,60.7,229.5,60.7,229.5z"/>
</g>
</svg>
