<?xml version="1.0" encoding="utf-8"?>
<!-- Generator: Adobe Illustrator 18.1.1, SVG Export Plug-In . SVG Version: 6.00 Build 0)  -->
<svg version="1.1" id="Layer_1" xmlns="http://www.w3.org/2000/svg" xmlns:xlink="http://www.w3.org/1999/xlink" x="0px" y="0px"
	 viewBox="0 0 108.8 110.2" enable-background="new 0 0 108.8 110.2" xml:space="preserve">
<g>
	<g>
		<path fill="#FED500" d="M70.6,61.8l-7.7-1.3c-0.5-1.6-1.2-3.2-1.9-4.7l4.6-6.4c0.6-0.9,0.5-2-0.2-2.8l-6.9-6.9
			c-0.7-0.7-1.9-0.8-2.8-0.2l-6.4,4.6c-1.5-0.8-3.1-1.4-4.7-1.9l-1.3-7.7c-0.2-1-1.1-1.8-2.1-1.8h-9.7c-1.1,0-2,0.8-2.1,1.8
			l-1.3,7.7c-1.6,0.5-3.2,1.2-4.7,1.9l-6.4-4.6c-0.9-0.6-2-0.5-2.8,0.2l-6.9,6.9c-0.7,0.7-0.8,1.9-0.2,2.8l4.6,6.4
			c-0.8,1.5-1.4,3-1.9,4.6l-7.8,1.3C0.8,62,0,62.9,0,63.9v9.7c0,1.1,0.8,2,1.8,2.1l7.8,1.3c0.5,1.6,1.2,3.2,2,4.7l-4.6,6.4
			c-0.6,0.9-0.5,2,0.2,2.8l6.9,6.9c0.4,0.4,1,0.6,1.5,0.6c0.4,0,0.9-0.1,1.3-0.4l6.4-4.6c1.5,0.8,3,1.4,4.7,2l1.3,7.8
			c0.2,1,1.1,1.8,2.1,1.8h9.7c1.1,0,2-0.8,2.1-1.8l1.3-7.8c1.6-0.5,3.2-1.2,4.7-2l6.4,4.6c0.4,0.3,0.8,0.4,1.3,0.4
			c0.6,0,1.1-0.2,1.5-0.6l6.9-6.9c0.8-0.7,0.8-1.9,0.2-2.8l-4.6-6.4c0.8-1.5,1.5-3.1,2-4.7l7.7-1.3c1-0.2,1.8-1.1,1.8-2.1v-9.7
			C72.4,62.9,71.6,62,70.6,61.8z M68.1,71.8l-4.2,0.7l-2.3,0.4l-2.2,0.4c-0.3,1.6-0.8,3.1-1.3,4.5c0,0,0,0.1,0,0.1
			c-0.6,1.5-1.4,2.8-2.2,4.1l1.3,1.9l1.3,1.9l2.5,3.5l-4.3,4.3L53.1,91l-1.9-1.3l-1.9-1.3c-1.3,0.9-2.6,1.6-4.1,2.2
			c-0.1,0-0.1,0-0.2,0.1c-1.4,0.6-2.9,1-4.4,1.3l-0.4,2.3l-0.4,2.3l-0.7,4.2h-6.1l-0.7-4.2l-0.4-2.3l-0.4-2.3
			c-1.5-0.3-3-0.7-4.4-1.3c-0.1,0-0.1,0-0.2-0.1c-1.4-0.6-2.8-1.3-4.1-2.2l-1.9,1.3L19.3,91l-3.5,2.5l-4.3-4.3l2.5-3.5l1.3-1.9
			l1.3-1.9c-0.9-1.3-1.6-2.6-2.2-4.1c0-0.1,0-0.1-0.1-0.2c-0.6-1.4-1-2.9-1.3-4.4l-2.3-0.4l-2.3-0.4l-4.2-0.7v-6l4.2-0.7l2.3-0.4
			l2.3-0.4c0.3-1.5,0.7-3,1.3-4.4c0-0.1,0.1-0.2,0.1-0.3c0.6-1.4,1.3-2.8,2.2-4l-1.3-1.9L14,51.9l-2.5-3.5l4.3-4.3l3.5,2.5l1.9,1.3
			l1.9,1.3c1.3-0.9,2.6-1.6,4.1-2.2c0.1,0,0.1,0,0.2-0.1c1.4-0.6,2.9-1,4.4-1.3l0.4-2.3l0.4-2.3l0.7-4.2h6l0.7,4.2l0.4,2.3l0.4,2.3
			c1.5,0.3,3,0.7,4.4,1.3c0.1,0,0.1,0,0.2,0.1c1.4,0.6,2.8,1.3,4.1,2.2l1.9-1.3l1.9-1.3l3.5-2.5l4.3,4.3l-2.5,3.5l-1.3,1.9l-1.3,1.9
			c0.9,1.3,1.6,2.6,2.2,4.1c0,0.1,0,0.1,0.1,0.2c0.6,1.4,1,2.9,1.3,4.4l2.2,0.4l2.3,0.4l4.2,0.7V71.8z"/>
		<path fill="#FED500" d="M36.2,56c-7.1,0-12.8,5.8-12.8,12.8s5.8,12.8,12.8,12.8c7.1,0,12.8-5.8,12.8-12.8S43.3,56,36.2,56z
			 M36.2,77.3c-4.7,0-8.5-3.8-8.5-8.5c0-4.7,3.8-8.5,8.5-8.5c4.7,0,8.5,3.8,8.5,8.5C44.7,73.5,40.9,77.3,36.2,77.3z"/>
	</g>
	<g>
		<path fill="#FED500" d="M67.9,81.8h9.5c1.1,0,2-0.8,2.1-1.8l1.3-7.8c1.6-0.5,3.2-1.2,4.7-2l6.4,4.6c0.4,0.3,0.8,0.4,1.3,0.4
			c0.6,0,1.1-0.2,1.5-0.6l6.9-6.9c0.8-0.7,0.8-1.9,0.2-2.8l-4.6-6.4c0.8-1.5,1.5-3.1,2-4.7l7.7-1.3c1-0.2,1.8-1.1,1.8-2.1v-9.7
			c0-1.1-0.8-2-1.8-2.1l-7.7-1.3c-0.5-1.6-1.2-3.2-1.9-4.7l4.6-6.4c0.6-0.9,0.5-2-0.2-2.8l-6.9-6.9c-0.7-0.7-1.9-0.8-2.8-0.2
			l-6.4,4.6c-1.5-0.8-3.1-1.4-4.7-1.9l-1.3-7.7c-0.2-1-1.1-1.8-2.1-1.8h-9.7c-1.1,0-2,0.8-2.1,1.8L64.2,19c-1.6,0.5-3.2,1.2-4.7,1.9
			l-6.4-4.6c-0.9-0.6-2-0.5-2.8,0.2l-6.9,6.9c-0.7,0.7-0.8,1.9-0.2,2.8l4.6,6.4c-0.3,0.7-0.7,1.3-1,2c-0.2,0.4-0.4,0.9-0.5,1.3
			c-0.2,0.4,3.1,5.1,3.1,5.1c0.3-1.5,0.7-3,1.3-4.4c0-0.1,0.1-0.2,0.1-0.3c0.6-1.4,1.3-2.8,2.2-4l-1.3-1.9l-1.3-1.9l-2.5-3.5
			l4.3-4.3l3.5,2.5l1.9,1.3l1.9,1.3c1.3-0.9,2.6-1.6,4.1-2.2c0.1,0,0.1,0,0.2-0.1c1.4-0.6,2.9-1,4.4-1.3l0.4-2.3l0.4-2.3l0.7-4.2h6
			l0.7,4.2l0.4,2.3l0.4,2.3c1.5,0.3,3,0.7,4.4,1.3c0.1,0,0.1,0,0.2,0.1c1.4,0.6,2.8,1.3,4.1,2.2l1.9-1.3l1.9-1.3l3.5-2.5l4.3,4.3
			l-2.5,3.5l-1.3,1.9L92,32.5c0.9,1.3,1.6,2.6,2.2,4.1c0,0.1,0,0.1,0.1,0.2c0.6,1.4,1,2.9,1.3,4.4l2.2,0.4l2.3,0.4l4.2,0.7v6
			l-4.2,0.7l-2.3,0.4l-2.2,0.4c-0.3,1.6-0.8,3.1-1.3,4.5c0,0,0,0.1,0,0.1c-0.6,1.5-1.4,2.8-2.2,4.1l1.3,1.9l1.3,1.9l2.5,3.5
			l-4.3,4.3l-3.5-2.5l-1.9-1.3l-1.9-1.3c-1.3,0.9-2.6,1.6-4.1,2.2c-0.1,0-0.1,0-0.2,0.1c-1.4,0.6-2.9,1-4.4,1.3L76.6,71l-0.4,2.3
			l-0.7,4.2h-4.3"/>
		<path fill="#FED500" d="M64.6,55.8c2.2,1.7,5,2.8,8,2.8c7.1,0,12.8-5.8,12.8-12.8s-5.8-12.8-12.8-12.8c-4.5,0-8.5,2.4-10.8,5.9
			l0.8,0.9l2.3,2.4c1.4-2.9,4.3-4.8,7.7-4.8c4.7,0,8.5,3.8,8.5,8.5c0,4.7-3.8,8.5-8.5,8.5c-2.1,0-4-0.8-5.5-2.1L64.6,55.8z"/>
	</g>
</g>
</svg>
