<?xml version="1.0" encoding="utf-8"?>
<!-- Generator: Adobe Illustrator 18.1.1, SVG Export Plug-In . SVG Version: 6.00 Build 0)  -->
<svg version="1.1" id="Layer_1" xmlns="http://www.w3.org/2000/svg" xmlns:xlink="http://www.w3.org/1999/xlink" x="0px" y="0px"
	 viewBox="0 0 306.9 300" enable-background="new 0 0 306.9 300" xml:space="preserve">
<path fill-rule="evenodd" clip-rule="evenodd" fill="#FFFFFF" d="M153.5,0.3C68.7,0.3,0,69,0,153.8c0,67.8,44,125.3,105,145.6
	c7.7,1.4,10.5-3.3,10.5-7.4c0-3.6-0.1-13.3-0.2-26.1c-42.7,9.3-51.7-20.6-51.7-20.6c-7-17.7-17-22.4-17-22.4
	c-13.9-9.5,1.1-9.3,1.1-9.3c15.4,1.1,23.5,15.8,23.5,15.8c13.7,23.5,35.9,16.7,44.7,12.8c1.4-9.9,5.4-16.7,9.7-20.5
	c-34.1-3.9-69.9-17-69.9-75.9c0-16.8,6-30.5,15.8-41.2c-1.6-3.9-6.8-19.5,1.5-40.6c0,0,12.9-4.1,42.2,15.7
	c12.2-3.4,25.4-5.1,38.4-5.2c13,0.1,26.2,1.8,38.4,5.2C221.2,59.8,234.1,64,234.1,64c8.4,21.1,3.1,36.7,1.5,40.6
	c9.8,10.7,15.8,24.4,15.8,41.2c0,59-35.9,71.9-70.1,75.7c5.5,4.7,10.4,14.1,10.4,28.4c0,20.5-0.2,37.1-0.2,42.1
	c0,4.1,2.8,8.9,10.6,7.4c60.9-20.3,104.9-77.8,104.9-145.6C306.9,69,238.2,0.3,153.5,0.3z"/>
</svg>
