<?xml version="1.0" encoding="utf-8"?>
<!-- Generator: Adobe Illustrator 18.1.1, SVG Export Plug-In . SVG Version: 6.00 Build 0)  -->
<svg version="1.1" id="Layer_1" xmlns="http://www.w3.org/2000/svg" xmlns:xlink="http://www.w3.org/1999/xlink" x="0px" y="0px"
	 viewBox="0 0 612 612" enable-background="new 0 0 612 612" xml:space="preserve">
<g>
	<path fill="#FFFFFF" d="M306,612C137.3,612,0,474.7,0,306S137.3,0,306,0s306,137.3,306,306S474.7,612,306,612z M306,24.1
		C151.8,24.1,24.1,149.4,24.1,306c0,154.2,125.3,281.9,281.9,281.9S587.9,462.6,587.9,306C587.9,149.4,460.2,24.1,306,24.1z"/>
	<path fill="#FFFFFF" d="M433.7,253v4.8c0,26.5-4.8,53-16.9,77.1c-31.3,67.5-91.6,106-166.3,106c-28.9,0-57.8-7.2-84.3-19.3
		c-4.8-2.4-9.6-4.8-14.5-7.2c-2.4,0-2.4-2.4-2.4-4.8s2.4-4.8,4.8-4.8c4.8,0,9.6,0,14.5,0c21.7,0,43.4-4.8,62.6-16.9
		c-24.1-4.8-41-21.7-48.2-45.8c0,0,0,0,0-2.4s2.4-4.8,4.8-4.8c2.4,0,2.4,0,4.8,0c-19.3-12-33.7-33.7-33.7-57.8
		c0-2.4,2.4-4.8,7.2-4.8c2.4,0,7.2,2.4,12,4.8c-9.6-12-14.5-26.5-14.5-43.4c0-9.6,2.4-24.1,9.6-33.7c0-2.4,2.4-2.4,4.8-2.4
		c2.4,0,2.4,0,4.8,2.4c4.8,7.2,12,12,19.3,19.3c26.5,24.1,62.6,41,98.8,43.4c0-2.4,0-4.8,0-7.2c0-36.1,31.3-67.5,67.5-67.5
		c16.9,0,33.7,7.2,48.2,19.3c12-2.4,24.1-7.2,36.1-14.5c0,0,7.3-3.8,7.2,4.8c0,4.8-9.6,19.3-12,24.1c2.4,0,14.5-4.8,16.9-4.8
		s4.8,2.4,4.8,4.8C469.8,221.7,456.7,240.3,433.7,253z"/>
</g>
</svg>
