<?xml version="1.0" encoding="utf-8"?>
<!-- Generator: Adobe Illustrator 18.1.1, SVG Export Plug-In . SVG Version: 6.00 Build 0)  -->
<svg version="1.1" id="Layer_1" xmlns="http://www.w3.org/2000/svg" xmlns:xlink="http://www.w3.org/1999/xlink" x="0px" y="0px"
	 viewBox="0 0 612 612" enable-background="new 0 0 612 612" xml:space="preserve">
<g>
	<path fill="#FFFFFF" d="M306,612C137.3,612,0,474.7,0,306S137.3,0,306,0s306,137.3,306,306S474.7,612,306,612z M306,24.1
		C151.8,24.1,24.1,149.4,24.1,306c0,154.2,125.3,281.9,281.9,281.9S587.9,462.6,587.9,306S460.2,24.1,306,24.1z"/>
	<rect fill="none" width="612" height="612"/>
	<path fill="#FFFFFF" d="M454,303.6v118.1c0,4.8-2.4,7.2-7.2,7.2h-50.6c-4.8,0-7.2-2.4-7.2-7.2V313.2c0-16.9-4.8-26.5-24.1-26.5
		c-24.1,0-31.3,16.9-31.3,38.6v94c0,4.8-2.4,7.2-7.2,7.2h-48.2c-4.8,0-7.2-2.4-7.2-7.2V245.8c0-4.8,2.4-7.2,7.2-7.2h48.2
		c7.2,0,7.2,7.2,7.2,12c14.5-12,31.3-16.9,48.2-16.9C427.5,233.7,454,255.4,454,303.6 M244.4,245.8v173.5c0,4.8-2.4,7.2-7.2,7.2
		h-48.2c-4.8,0-7.2-2.4-7.2-7.2V245.8c0-4.8,2.4-7.2,7.2-7.2h48.2C241.9,238.5,244.4,243.4,244.4,245.8 M246.8,185.5
		c0,19.3-14.5,33.7-33.7,33.7s-33.7-14.5-33.7-33.7s14.5-33.7,33.7-33.7C229.9,151.8,246.8,168.7,246.8,185.5"/>
</g>
</svg>
