<?xml version="1.0" encoding="utf-8"?>
<!-- Generator: Adobe Illustrator 18.1.1, SVG Export Plug-In . SVG Version: 6.00 Build 0)  -->
<svg version="1.1" id="Layer_1" xmlns="http://www.w3.org/2000/svg" xmlns:xlink="http://www.w3.org/1999/xlink" x="0px" y="0px"
	 viewBox="0 0 108.8 110.2" enable-background="new 0 0 108.8 110.2" xml:space="preserve">
<g>
	<path fill="#FED500" d="M99.6,53.2H9.1c-3.9,0-7.1,3.2-7.1,7.1v42.5c0,3.9,3.2,7.1,7.1,7.1h90.5c3.9,0,7.1-3.2,7.1-7.1V60.3
		C106.7,56.4,103.5,53.2,99.6,53.2z M7,60.3c0-1.2,1-2.1,2.1-2.1h90.5c1.2,0,2.1,1,2.1,2.1v42.5c0,1.2-1,2.1-2.1,2.1H9.1
		c-1.2,0-2.1-1-2.1-2.1V60.3z"/>
	<path fill="#FED500" d="M82.7,2.8c0-1.3-1-2.3-2.3-2.3c-1.3,0-2.3,1-2.3,2.3c0,0,0,0.1,0,0.1h0v15c0,3.7-3,6.8-6.8,6.8H49.4l0,0
		h-6.6c-6.3,0-11.4,5.1-11.4,11.4V49l4.6,0V36.2c0-3.7,3-6.8,6.8-6.8h15.1l0,0h13.4c6.3,0,11.4-5.1,11.4-11.4v-15h0
		C82.6,2.9,82.7,2.9,82.7,2.8z"/>
	<path fill="#FED500" d="M34.6,73.8H29c-1.6,0-2.9-1.3-2.9-2.9v-5.3c0-1.6,1.3-2.9,2.9-2.9h5.6c1.6,0,2.9,1.3,2.9,2.9v5.3
		C37.5,72.5,36.2,73.8,34.6,73.8z M29.6,70.3H34v-4.1h-4.4V70.3z"/>
	<path fill="#FED500" d="M49.6,73.8H44c-1.6,0-2.9-1.3-2.9-2.9v-5.3c0-1.6,1.3-2.9,2.9-2.9h5.6c1.6,0,2.9,1.3,2.9,2.9v5.3
		C52.5,72.5,51.2,73.8,49.6,73.8z M44.6,70.3H49v-4.1h-4.4V70.3z"/>
	<path fill="#FED500" d="M64.6,73.8H59c-1.6,0-2.9-1.3-2.9-2.9v-5.3c0-1.6,1.3-2.9,2.9-2.9h5.6c1.6,0,2.9,1.3,2.9,2.9v5.3
		C67.5,72.5,66.2,73.8,64.6,73.8z M59.6,70.3H64v-4.1h-4.4V70.3z"/>
	<path fill="#FED500" d="M79.6,73.8H74c-1.6,0-2.9-1.3-2.9-2.9v-5.3c0-1.6,1.3-2.9,2.9-2.9h5.6c1.6,0,2.9,1.3,2.9,2.9v5.3
		C82.5,72.5,81.2,73.8,79.6,73.8z M74.6,70.3H79v-4.1h-4.4V70.3z"/>
	<path fill="#FED500" d="M94.5,73.8h-5.6c-1.6,0-2.9-1.3-2.9-2.9v-5.3c0-1.6,1.3-2.9,2.9-2.9h5.6c1.6,0,2.9,1.3,2.9,2.9v5.3
		C97.4,72.5,96.1,73.8,94.5,73.8z M89.6,70.3h4.4v-4.1h-4.4V70.3z"/>
	<path fill="#FED500" d="M41.7,87.8h-5.6c-1.6,0-2.9-1.3-2.9-2.9v-5.3c0-1.6,1.3-2.9,2.9-2.9h5.6c1.6,0,2.9,1.3,2.9,2.9v5.3
		C44.6,86.5,43.3,87.8,41.7,87.8z M36.7,84.3h4.4v-4.1h-4.4V84.3z"/>
	<path fill="#FED500" d="M56.7,87.8h-5.6c-1.6,0-2.9-1.3-2.9-2.9v-5.3c0-1.6,1.3-2.9,2.9-2.9h5.6c1.6,0,2.9,1.3,2.9,2.9v5.3
		C59.6,86.5,58.3,87.8,56.7,87.8z M51.7,84.3h4.4v-4.1h-4.4V84.3z"/>
	<path fill="#FED500" d="M71.6,87.8h-5.6c-1.6,0-2.9-1.3-2.9-2.9v-5.3c0-1.6,1.3-2.9,2.9-2.9h5.6c1.6,0,2.9,1.3,2.9,2.9v5.3
		C74.5,86.5,73.2,87.8,71.6,87.8z M66.7,84.3H71v-4.1h-4.4V84.3z"/>
	<path fill="#FED500" d="M86.6,87.8H81c-1.6,0-2.9-1.3-2.9-2.9v-5.3c0-1.6,1.3-2.9,2.9-2.9h5.6c1.6,0,2.9,1.3,2.9,2.9v5.3
		C89.5,86.5,88.2,87.8,86.6,87.8z M81.6,84.3H86v-4.1h-4.4V84.3z"/>
	<path fill="#FED500" d="M72.6,101.6H34.5c-1.6,0-2.8-1.3-2.8-2.8V94c0-1.6,1.3-2.8,2.8-2.8h38.1c1.6,0,2.8,1.3,2.8,2.8v4.7
		C75.5,100.3,74.2,101.6,72.6,101.6z M35.2,98.1H72v-3.4H35.2V98.1z"/>
	<path fill="#FED500" d="M19.5,73.8h-5.6c-1.6,0-2.9-1.3-2.9-2.9v-5.3c0-1.6,1.3-2.9,2.9-2.9h5.6c1.6,0,2.9,1.3,2.9,2.9v5.3
		C22.4,72.5,21.1,73.8,19.5,73.8z M14.5,70.3h4.4v-4.1h-4.4V70.3z"/>
	<path fill="#FED500" d="M26.6,87.8H21c-1.6,0-2.9-1.3-2.9-2.9v-5.3c0-1.6,1.3-2.9,2.9-2.9h5.6c1.6,0,2.9,1.3,2.9,2.9v5.3
		C29.5,86.5,28.2,87.8,26.6,87.8z M21.6,84.3H26v-4.1h-4.4V84.3z"/>
</g>
</svg>
