<?xml version="1.0" encoding="utf-8"?>
<!-- Generator: Adobe Illustrator 18.1.1, SVG Export Plug-In . SVG Version: 6.00 Build 0)  -->
<svg version="1.1" id="Layer_1" xmlns="http://www.w3.org/2000/svg" xmlns:xlink="http://www.w3.org/1999/xlink" x="0px" y="0px"
	 viewBox="0 0 612 612" enable-background="new 0 0 612 612" xml:space="preserve">
<g>
	<path fill="#FFFFFF" d="M306,612C137.3,612,0,474.7,0,306S137.3,0,306,0s306,137.3,306,306S474.7,612,306,612z M306,24.1
		C151.8,24.1,24.1,149.4,24.1,306c0,154.2,125.3,281.9,281.9,281.9S587.9,462.6,587.9,306C587.9,149.4,460.2,24.1,306,24.1z"/>
	<rect y="0" fill="none" width="612" height="612"/>
	<path fill="#FFFFFF" d="M325.3,224.1v16.9h43.4c6-0.9,7.2,4.8,7.2,7.2l-2.4,41c0,4.8-4.8,7.2-7.2,7.2h-41v154.2
		c0,4.8-2.4,7.2-7.2,7.2h-50.6c-4.8,0-7.2-2.4-7.2-7.2V298.8h-24.1c-4.8,0-7.2-2.4-7.2-7.2v-41c0-4.8,2.4-7.2,7.2-7.2h24.1v-21.7
		c0-48.2,24.1-69.9,69.9-69.9c16.9,0,31.3,2.4,45.8,4.8c3.6,1.2,4.8,3.1,4.8,7.2l-4.8,38.6c-1,3.6-1.2,6.9-7.2,4.8
		c-9.6-2.4-19.3-2.4-26.5-2.4C327.7,207.2,325.3,212,325.3,224.1"/>
	<rect x="228.9" y="151.8" fill="none" width="154.2" height="308.4"/>
</g>
</svg>
