<?xml version="1.0" encoding="utf-8"?>
<!-- Generator: Adobe Illustrator 18.1.1, SVG Export Plug-In . SVG Version: 6.00 Build 0)  -->
<svg version="1.1" id="Layer_1" xmlns="http://www.w3.org/2000/svg" xmlns:xlink="http://www.w3.org/1999/xlink" x="0px" y="0px"
	 viewBox="0 0 300 300" enable-background="new 0 0 300 300" xml:space="preserve">
<g>
	<g>
		<path fill="#CCCCCC" d="M194.1,168.2l-21-3.5c-1.4-4.4-3.3-8.7-5.2-12.8l12.5-17.4c1.6-2.5,1.4-5.4-0.5-7.6l-18.8-18.8
			c-1.9-1.9-5.2-2.2-7.6-0.5l-17.4,12.5c-4.1-2.2-8.4-3.8-12.8-5.2l-3.5-21c-0.5-2.7-3-4.9-5.7-4.9H87.7c-3,0-5.4,2.2-5.7,4.9
			l-3.5,21c-4.4,1.4-8.7,3.3-12.8,5.2l-17.4-12.5c-2.5-1.6-5.4-1.4-7.6,0.5l-18.8,18.8c-1.9,1.9-2.2,5.2-0.5,7.6l12.5,17.4
			c-2.2,4.1-3.8,8.2-5.2,12.5L7.4,168c-3.3,0.8-5.4,3.3-5.4,6v26.4c0,3,2.2,5.4,4.9,5.7l21.2,3.5c1.4,4.4,3.3,8.7,5.4,12.8L21,239.8
			c-1.6,2.5-1.4,5.4,0.5,7.6l18.8,18.8c1.1,1.1,2.7,1.6,4.1,1.6c1.1,0,2.5-0.3,3.5-1.1l17.4-12.5c4.1,2.2,8.2,3.8,12.8,5.4l3.5,21.2
			c0.5,2.7,3,4.9,5.7,4.9h26.4c3,0,5.4-2.2,5.7-4.9l3.5-21.2c4.4-1.4,8.7-3.3,12.8-5.4l17.4,12.5c1.1,0.8,2.2,1.1,3.5,1.1
			c1.6,0,3-0.5,4.1-1.6l18.8-18.8c2.2-1.9,2.2-5.2,0.5-7.6l-12.5-17.4c2.2-4.1,4.1-8.4,5.4-12.8l21-3.5c2.7-0.5,4.9-3,4.9-5.7V174
			C199,171.2,196.8,168.8,194.1,168.2z M187.3,195.5l-11.4,1.9l-6.3,1.1l-6,1.1c-0.8,4.4-2.2,8.4-3.5,12.3v0.3
			c-1.6,4.1-3.8,7.6-6,11.2l3.5,5.2l3.5,5.2l6.8,9.5l-11.7,11.7l-9.8-7.1l-5.2-3.5l-5.2-3.5c-3.5,2.5-7.1,4.4-11.2,6
			c-0.3,0-0.3,0-0.5,0.3c-3.8,1.6-7.9,2.7-12,3.5l-1.1,6.3l-1.1,6.3l-1.9,11.4H91.7L89.8,263l-1.1-6.3l-1.1-6.3
			c-4.1-0.8-8.2-1.9-12-3.5c-0.3,0-0.3,0-0.5-0.3c-3.8-1.6-7.6-3.5-11.2-6l-5.2,3.5l-4.4,3.5l-9.5,6.8l-11.7-11.7l6.8-9.5l3.5-5.2
			l3.5-5.2c-2.5-3.5-4.4-7.1-6-11.2c0-0.3,0-0.3-0.3-0.5c-1.6-3.8-2.7-7.9-3.5-12l-6.3-1.1l-6.3-1.1l-11.4-1.9v-16.3l11.4-1.9
			l6.3-1.1l6.3-1.1c0.8-4.1,1.9-8.2,3.5-12c0-0.3,0.3-0.5,0.3-0.8c1.6-3.8,3.5-7.6,6-10.9l-3.5-5.2l-3.5-4.6l-6.8-9.5l11.7-11.7
			l9.5,6.8l5.2,3.5l5.2,3.5c3.5-2.5,7.1-4.4,11.2-6c0.3,0,0.3,0,0.5-0.3c3.8-1.6,7.9-2.7,12-3.5l1.1-6.3l1.1-6.3l1.9-11.4h16.3
			l1.9,11.4l1.1,6.3l1.1,6.3c4.1,0.8,8.2,1.9,12,3.5c0.3,0,0.3,0,0.5,0.3c3.8,1.6,7.6,3.5,11.2,6l5.2-3.5l5.2-3.5l9.5-6.8l11.7,11.7
			l-6.8,9.5l-3.5,5.2l-3.5,5.2c2.5,3.5,4.4,7.1,6,11.2c0,0.3,0,0.3,0.3,0.5c1.6,3.8,2.7,7.9,3.5,12l6,1.1l6.3,1.1l11.4,1.9v16.1
			H187.3z"/>
		<path fill="#CCCCCC" d="M100.5,152.5c-19.3,0-34.8,15.8-34.8,34.8s15.8,34.8,34.8,34.8c19.3,0,34.8-15.8,34.8-34.8
			S119.8,152.5,100.5,152.5z M100.5,210.4c-12.8,0-23.1-10.3-23.1-23.1c0-12.8,10.3-23.1,23.1-23.1s23.1,10.3,23.1,23.1
			C123.6,200.1,113.2,210.4,100.5,210.4z"/>
	</g>
	<g>
		<path fill="#CCCCCC" d="M186.8,222.7h25.9c3,0,5.4-2.2,5.7-4.9l3.5-21.2c4.4-1.4,8.7-3.3,12.8-5.4l17.4,12.5
			c1.1,0.8,2.2,1.1,3.5,1.1c1.6,0,3-0.5,4.1-1.6l18.8-18.8c2.2-1.9,2.2-5.2,0.5-7.6l-12.5-17.4c2.2-4.1,4.1-8.4,5.4-12.8l21-3.5
			c2.7-0.5,4.9-3,4.9-5.7v-26.4c0-3-2.2-5.4-4.9-5.7l-21-3.5c-1.4-4.4-3.3-8.7-5.2-12.8l12.5-17.4c1.6-2.5,1.4-5.4-0.5-7.6L260,44.9
			c-1.9-1.9-5.2-2.2-7.6-0.5l-17.4,12.5c-4.1-2.2-8.4-3.8-12.8-5.2l-3.5-21c-0.5-2.7-3-4.9-5.7-4.9h-26.4c-3,0-5.4,2.2-5.7,4.9
			l-4.1,21c-4.4,1.4-8.7,3.3-12.8,5.2l-17.4-12.5c-2.5-1.6-5.4-1.4-7.6,0.5l-18.8,18.8c-1.9,1.9-2.2,5.2-0.5,7.6L132,88.7
			c-0.8,1.9-1.9,3.5-2.7,5.4c-0.5,1.1-1.1,2.5-1.4,3.5c-0.5,1.1,8.4,13.9,8.4,13.9c0.8-4.1,1.9-8.2,3.5-12c0-0.3,0.3-0.5,0.3-0.8
			c1.6-3.8,3.5-7.6,6-10.9l-3.5-5.2l-3.5-5.2l-6.8-9.5L144,56.4l9.5,6.8l5.2,3.5l5.2,3.5c3.5-2.5,7.1-4.4,11.2-6
			c0.3,0,0.3,0,0.5-0.3c3.8-1.6,7.9-2.7,12-3.5l1.1-6.3l1.1-6.3l1.9-11.4H208l1.9,11.4l1.1,6.3l1.1,6.3c4.1,0.8,8.2,1.9,12,3.5
			c0.3,0,0.3,0,0.5,0.3c3.8,1.6,7.6,3.5,11.2,6l5.2-3.5l5.2-3.5l9.5-6.8l11.7,11.7l-6.8,9.5l-3.5,5.2l-4.6,5.7
			c2.5,3.5,4.4,7.1,6,11.2c0,0.3,0,0.3,0.3,0.5c1.6,3.8,2.7,7.9,3.5,12l6,1.1l6.3,1.1l11.4,1.9v16.3l-11.4,1.9l-6.3,1.1l-6,1.1
			c-0.8,4.4-2.2,8.4-3.5,12.3v0.3c-1.6,4.1-3.8,7.6-6,11.2l3.5,5.2l3.5,5.2l6.8,9.5l-11.7,11.7l-9.5-6.8l-5.2-3.5l-5.2-3.5
			c-3.5,2.5-7.1,4.4-11.2,6c-0.3,0-0.3,0-0.5,0.3c-3.8,1.6-7.9,2.7-12,3.5l-0.8,5.4l-1.1,6.3l-1.9,11.4h-11.7"/>
		<path fill="#CCCCCC" d="M177.8,151.9c6,4.6,13.6,7.6,21.8,7.6c19.3,0,34.8-15.8,34.8-34.8s-15.8-34.8-34.8-34.8
			c-12.3,0-23.1,6.5-29.4,16.1l2.2,2.5l6.3,6.5c3.8-7.9,11.7-13.1,21-13.1c12.8,0,23.1,10.3,23.1,23.1s-10.3,23.1-23.1,23.1
			c-5.7,0-10.9-2.2-15-5.7L177.8,151.9z"/>
	</g>
</g>
</svg>
