<?xml version="1.0" encoding="utf-8"?>
<!-- Generator: Adobe Illustrator 18.1.1, SVG Export Plug-In . SVG Version: 6.00 Build 0)  -->
<svg version="1.1" id="Layer_1" xmlns="http://www.w3.org/2000/svg" xmlns:xlink="http://www.w3.org/1999/xlink" x="0px" y="0px"
	 viewBox="0 0 612 612" enable-background="new 0 0 612 612" xml:space="preserve">
<path fill="#FFFFFF" d="M306,612C137.3,612,0,474.7,0,306S137.3,0,306,0s306,137.3,306,306S474.7,612,306,612z M306,24.1
	C151.8,24.1,24.1,149.4,24.1,306c0,154.2,125.3,281.9,281.9,281.9S587.9,462.6,587.9,306S460.2,24.1,306,24.1z"/>
<rect fill="none" width="612" height="612"/>
<g>
	<path fill="#FFFFFF" d="M159.6,201.1c-0.3,0.7,94.1,76.4,140,112.9c3.4,2.7,5.3,1.6,8.1-0.5c46.8-36.3,143.1-111.1,144.4-112.4
		C354.3,201.1,257,201.1,159.6,201.1z M276.9,312.6c-41.9,30.9-90.5,65.5-132,96c0.2,0.4,0.4,0.9,0.6,1.3
		c103.4,1.3,217.9-0.3,321.3,1c0.1-0.5,0.2-1.1,0.3-1.6c0,0-92.4-65.8-135.8-97l-22,16.4c-4.3,3.5-8.1,3.4-12.3-0.1
		C290.6,323.2,284,318.1,276.9,312.6z M470.7,203.7c-43.6,33.7-86.1,66.7-129.3,100.1l129.1,91.1
		C470.5,329.7,470.7,268.7,470.7,203.7z M141.3,394.8c42.2-31.1,83.4-60,125-90.7c-41.8-33.1-82.9-65.7-124.9-98.9
		C141.5,269.4,141.3,330.7,141.3,394.8z"/>
</g>
</svg>
