<?xml version="1.0" encoding="utf-8"?>
<!-- Generator: Adobe Illustrator 18.1.1, SVG Export Plug-In . SVG Version: 6.00 Build 0)  -->
<svg version="1.1" id="Layer_1" xmlns="http://www.w3.org/2000/svg" xmlns:xlink="http://www.w3.org/1999/xlink" x="0px" y="0px"
	 viewBox="0 0 67.8 67.6" enable-background="new 0 0 67.8 67.6" xml:space="preserve">
<path d="M33.9,67.2c-18.5,0-33.5-15-33.5-33.5s15-33.5,33.5-33.5s33.5,15,33.5,33.5S52.4,67.2,33.9,67.2z M33.9,4.2
	C17.7,4.2,4.4,17.4,4.4,33.7s13.2,29.5,29.5,29.5s29.5-13.2,29.5-29.5S50.2,4.2,33.9,4.2z"/>
<path d="M16.5,52V15.3h7.8c4.1,0,7.8,3.2,7.8,7.4v21.9c0,4.3-3.7,7.4-7.8,7.4H16.5z M20.8,19.5v28.3h3.5c1.8,0,3.5-1.3,3.5-3.2V22.7
	c0-1.8-1.7-3.2-3.5-3.2H20.8z"/>
<path d="M40.2,52h-4.3V15.3h4.3v12.4l6.2-12.4h5l-7.3,14.3L51.5,52h-4.6l-5.7-18.2l-1,1.9V52z"/>
</svg>
