<?xml version="1.0" standalone="no"?>
<!DOCTYPE svg PUBLIC "-//W3C//DTD SVG 1.1//EN" "http://www.w3.org/Graphics/SVG/1.1/DTD/svg11.dtd" >
<svg xmlns="http://www.w3.org/2000/svg">
<metadata></metadata>
<defs>
<font id="charlevoix_prolight" horiz-adv-x="1753" >
<font-face units-per-em="2048" ascent="1638" descent="-410" />
<missing-glyph horiz-adv-x="798" />
<glyph horiz-adv-x="0" />
<glyph horiz-adv-x="682" />
<glyph unicode=" "  horiz-adv-x="798" />
<glyph unicode="&#x09;" horiz-adv-x="798" />
<glyph unicode="&#xa0;" horiz-adv-x="798" />
<glyph unicode="!" horiz-adv-x="440" d="M182 59q0 26 20 45t46 19t44.5 -19t18.5 -45q0 -28 -18.5 -46.5t-44.5 -18.5q-27 0 -46.5 19t-19.5 46zM184 1522l11 -1078q0 -20 20 -20h57q21 0 21 20l10 1078q0 20 -20 20h-78q-21 0 -21 -20z" />
<glyph unicode="&#x22;" horiz-adv-x="638" d="M143 1522q0 20 21 20h69q21 0 21 -20l-12 -398q0 -20 -21 -20h-45q-20 0 -20 20zM383 1522q0 20 20 20h72q21 0 21 -20l-13 -398q0 -20 -20 -20h-47q-21 0 -21 20z" />
<glyph unicode="#" horiz-adv-x="1669" d="M184 332v71q0 9 6 15t15 6h182q18 0 21 18l59 521q1 9 -5.5 15.5t-15.5 6.5h-178q-20 0 -20 21v69q0 21 20 21h193q17 0 20 18l39 328q3 18 21 18h75q9 0 15.5 -6.5t5.5 -15.5l-39 -320q-1 -9 5 -15.5t15 -6.5h588q18 0 21 18l39 328q3 18 20 18h78q9 0 15 -6.5t5 -15.5 l-38 -320q-1 -9 5 -15.5t15 -6.5h160q20 0 20 -21v-69q0 -21 -20 -21h-174q-18 0 -21 -18l-59 -521q-1 -9 5 -15.5t15 -6.5h170q9 0 15 -6t6 -15v-71q0 -9 -6 -15t-15 -6h-186q-18 0 -21 -18l-30 -275q-3 -18 -21 -18h-78q-9 0 -15 7t-5 16l31 266q1 9 -5.5 15.5t-15.5 6.5 h-586q-17 0 -20 -18l-33 -275q-3 -18 -20 -18h-76q-9 0 -15.5 7t-5.5 16l31 266q1 9 -5 15.5t-15 6.5h-166q-9 0 -15 6t-6 15zM526 446q-1 -9 5.5 -15.5t15.5 -6.5h586q17 0 20 18l59 521q1 9 -5 15.5t-15 6.5h-588q-17 0 -20 -18z" />
<glyph unicode="$" horiz-adv-x="1347" d="M189.5 334q-0.5 2 2.5 4.5t5 3.5t7 3t7 3l76 17q4 2 6.5 2.5t4 -1.5t2.5 -4t3.5 -7.5t5.5 -10.5q10 -20 31 -47t61 -62t88 -63.5t117 -48t144 -19.5q175 0 271.5 67t96.5 179q0 63 -29 114t-71 83t-107 60.5t-118 43.5t-124.5 35t-107.5 33q-89 30 -148.5 59t-111.5 72.5 t-77 104.5t-25 141q0 148 126.5 256t329.5 114v179q0 20 21 20h49q20 0 20 -20v-183q172 -16 284 -107t151 -210q6 -17 -21 -21l-78 -10q-5 -1 -8 0.5t-4 3t-3.5 7.5t-4.5 10q-104 221 -385 221q-87 0 -157.5 -24.5t-113.5 -64t-65.5 -85t-22.5 -90.5q0 -41 12 -76t30 -60.5 t51 -49t62.5 -39t78 -33t85 -28.5t94.5 -27q7 -2 11 -3t10 -3t11 -3q86 -24 153.5 -50t129 -62.5t102 -78.5t64.5 -98.5t24 -122.5q0 -177 -134 -270.5t-353 -93.5h-3v-178q0 -21 -20 -21h-49q-9 0 -15 6t-6 15v184q-169 23 -290.5 117t-174.5 211q0 4 -0.5 6z" />
<glyph unicode="%" horiz-adv-x="2275" d="M217 1081q0 162 113.5 281t285.5 119q113 0 206 -56.5t143.5 -148t50.5 -195.5t-50.5 -196t-143.5 -148.5t-206 -56.5q-172 0 -285.5 119.5t-113.5 281.5zM326 1081q0 -122 81 -210.5t209 -88.5t209.5 89t81.5 210t-81.5 209t-209.5 88t-209 -88t-81 -209zM743 -57 q-4 -10 0 -17.5t15 -7.5h80q16 0 22 14l748 1586q4 10 0 17t-15 7h-80q-16 0 -22 -14zM1341 395q0 104 50.5 195.5t143.5 148t206 56.5q114 0 207.5 -56.5t143.5 -147.5t50 -196q0 -162 -114.5 -281.5t-286.5 -119.5q-113 0 -206 56.5t-143.5 148.5t-50.5 196zM1452 395 q0 -122 80.5 -210.5t208.5 -88.5t210.5 89t82.5 210t-82.5 209t-210.5 88t-208.5 -88t-80.5 -209z" />
<glyph unicode="&#x26;" horiz-adv-x="1544" d="M205 367q0 66 22 123.5t63.5 103.5t89 81.5t109.5 69.5q-172 186 -172 365q0 65 26.5 127.5t75 114t124 83t164.5 31.5q76 0 139 -21.5t103 -55t67.5 -76.5t39 -84.5t11.5 -81.5q0 -44 -11.5 -85t-26.5 -71t-44.5 -61t-51 -50t-61 -43.5t-60 -35.5t-60.5 -32 q-14 -7 -21 -11q-13 -6 -36 -18t-33 -17q82 -73 157 -135q141 -118 271 -230q89 105 153 226q7 12 25 12l80 -8q11 0 14.5 -7t-2.5 -18q-81 -155 -182 -278q156 -132 211 -176q13 -10 10 -27l-10 -70q-2 -12 -10 -15.5t-17 3.5q-43 31 -258 205q-214 -211 -455 -211 q-120 0 -218.5 39.5t-162 126t-63.5 207.5zM324 373q0 -123 91 -196t234 -73q183 0 367 177q-181 150 -285 243l-67 58q-67 58 -101 90q-112 -59 -175.5 -129t-63.5 -170zM434 1104q0 -140 154 -305q32 14 43 20q67 32 106 52t85.5 51.5t70.5 60.5t40.5 69.5t16.5 88.5 q0 96 -71.5 155.5t-173.5 59.5q-40 0 -85 -15.5t-87.5 -44.5t-70.5 -79.5t-28 -112.5z" />
<glyph unicode="'" horiz-adv-x="397" d="M143 1522q0 20 21 20h69q21 0 21 -20l-12 -398q0 -20 -21 -20h-45q-20 0 -20 20z" />
<glyph unicode="(" horiz-adv-x="712" d="M143 578q0 135 24 266.5t61.5 234.5t87 195t98 155t96.5 107q6 6 27 6h55q13 0 16.5 -7t-4.5 -17q-72 -77 -131 -169t-108 -208t-76 -260.5t-27 -302.5q0 -211 49.5 -397t122 -312.5t170.5 -230.5q9 -12 5 -18.5t-17 -6.5h-55q-21 0 -27 6q-61 54 -122 141.5 t-117.5 207.5t-92 280.5t-35.5 329.5z" />
<glyph unicode=")" horiz-adv-x="712" d="M145 -380.5q-4 6.5 5 18.5q153 162 248.5 397t95.5 543q0 305 -95.5 540.5t-248.5 399.5q-8 10 -4.5 17t16.5 7h55q21 0 27 -6q62 -56 122.5 -144t117 -208t91.5 -279t35 -327q0 -169 -35 -329.5t-91.5 -280.5t-117.5 -207.5t-122 -141.5q-6 -6 -27 -6h-55q-13 0 -17 6.5 z" />
<glyph unicode="*" horiz-adv-x="970" d="M165.5 1210.5q-3.5 6.5 0.5 14.5l18 51q6 15 21 12l248 -94q16 -3 16 12l-6 264q-1 7 3.5 12t12.5 5h53q9 0 14.5 -5t4.5 -12l-4 -264q0 -18 16 -12l244 90q19 7 22 -10l17 -51q7 -16 -10 -23l-250 -80q-13 -6 -4 -18l157 -205q11 -18 -4 -25l-45 -32q-14 -10 -22 4 l-148 207q-3 6 -9.5 6t-10.5 -6l-150 -209q-10 -18 -24 -4l-45 30q-13 13 -5 27l162 207q3 3 3.5 6.5t-1.5 6t-6 3.5l-256 84q-9 2 -12.5 8.5z" />
<glyph unicode="+" horiz-adv-x="1275" d="M266 682v72q0 20 21 20h323q9 0 15 6t6 15v325q0 21 20 21h76q9 0 15 -6t6 -15v-325q0 -21 20 -21h324q20 0 20 -20v-72q0 -20 -20 -20h-324q-20 0 -20 -21v-326q0 -20 -21 -20h-76q-20 0 -20 20v326q0 9 -6 15t-15 6h-323q-21 0 -21 20z" />
<glyph unicode="," horiz-adv-x="503" d="M145 -205l105 369q4 18 22 18h70q22 0 16 -22l-129 -371q-5 -16 -24 -16h-43q-10 0 -15 6.5t-2 15.5z" />
<glyph unicode="-" horiz-adv-x="1310" d="M246 616v70q0 21 20 21h881q20 0 20 -21v-70q0 -20 -20 -20h-881q-20 0 -20 20z" />
<glyph unicode="." horiz-adv-x="518" d="M143 59q0 26 19 45t47 19q26 0 44.5 -19t18.5 -45q0 -28 -18.5 -46.5t-44.5 -18.5q-28 0 -47 18.5t-19 46.5z" />
<glyph unicode="/" horiz-adv-x="956" d="M63 -57q-4 -10 0 -17.5t15 -7.5h86q16 0 22 14l748 1586q4 10 0.5 17t-14.5 7h-86q-17 0 -23 -14z" />
<glyph unicode="0" horiz-adv-x="1568" d="M184 731q0 -120 25.5 -229t77.5 -202t125 -161t174 -106.5t219 -38.5q149 0 269 59t195.5 161t115.5 234t40 283q0 120 -24.5 229t-76 201.5t-124 160t-174 106t-221.5 38.5q-147 0 -266.5 -59t-196 -160t-117.5 -233.5t-41 -282.5zM303 731q0 130 32 242t93 198 t158 135.5t219 49.5q99 0 181.5 -32t141.5 -89.5t99.5 -136t60 -171t19.5 -196.5q0 -131 -31.5 -243.5t-92 -198.5t-158 -135.5t-220.5 -49.5q-122 0 -219 49.5t-158 135.5t-93 198.5t-32 243.5z" />
<glyph unicode="1" horiz-adv-x="884" d="M184 20v70q0 9 6 15t15 6h188q21 0 21 20v1196q0 9 -6 15t-15 6h-166q-10 0 -17 6t-3 14l18 70q14 18 21 20l264 2q20 0 20 -20v-1309q0 -20 21 -20h190q9 0 15 -6t6 -15v-70q0 -20 -21 -20h-536q-21 0 -21 20z" />
<glyph unicode="2" horiz-adv-x="1286" d="M184 25q0 121 29.5 216.5t79.5 158t114.5 111t136.5 82t143.5 64t136 64t114.5 75t79.5 104t29.5 144.5q0 54 -20.5 106.5t-61 99.5t-111.5 75.5t-162 28.5q-147 0 -243.5 -85.5t-126.5 -213.5q-7 -23 -23 -21l-76 8q-9 2 -14 9t-4 16q21 99 71.5 177.5t117.5 125.5 t142.5 71.5t153.5 24.5q98 0 178.5 -25.5t134 -68t90.5 -98.5t53.5 -114.5t16.5 -119.5q0 -91 -28 -163.5t-76 -121t-110 -87.5t-131 -69t-138.5 -59.5t-133 -65.5t-113.5 -80t-82 -110t-36 -149q0 -9 6 -15.5t15 -6.5h778q10 0 16 -5.5t5 -15.5l-13 -69q-3 -21 -20 -21 h-897q-9 0 -15 7t-6 16z" />
<glyph unicode="3" horiz-adv-x="1175" d="M160 1108q25 113 98 196.5t168 122.5t199 39q96 0 175 -33t130 -88.5t78.5 -126t27.5 -147.5q0 -124 -61 -207.5t-168 -111.5q-18 -3 0 -9q119 -26 192.5 -127t73.5 -229q0 -168 -124 -280.5t-318 -112.5q-77 0 -151.5 23t-138.5 66t-111 112t-66 155q-1 9 4.5 16t13.5 7 l74 8q20 0 23 -16q4 -25 17.5 -56t41.5 -68t66 -67t96.5 -50t126.5 -20q81 0 146.5 26t104 69t58.5 92.5t20 101.5q0 129 -94.5 214t-216.5 85h-156q-10 0 -16 6.5t-6 14.5v69q0 8 6 14.5t16 6.5h156q120 0 197.5 71.5t77.5 192.5q0 36 -9 73.5t-31 77t-55.5 69.5t-87 49.5 t-119.5 19.5q-69 0 -127 -20.5t-95 -50.5t-64.5 -67.5t-40 -68.5t-17.5 -57q-3 -20 -22 -17l-74 10q-8 2 -13.5 8.5t-4.5 14.5z" />
<glyph unicode="4" horiz-adv-x="1476" d="M205 377v78q0 15 8 26l768 967q7 12 27 12h79q21 0 21 -20v-951q0 -20 20 -20h164q9 0 15.5 -5.5t5.5 -14.5l-10 -72q-3 -21 -21 -21h-154q-20 0 -20 -20v-316q0 -20 -21 -20h-75q-21 0 -21 20v316q0 20 -20 20h-746q-20 0 -20 21zM362.5 475.5q3.5 -6.5 16.5 -6.5h592 q20 0 20 20v746q0 13 -8.5 16t-15.5 -8l-600 -749q-8 -12 -4.5 -18.5z" />
<glyph unicode="5" horiz-adv-x="1294" d="M166 371q-5 19 18 22l76 10q22 3 25 -14q6 -26 17.5 -54.5t40.5 -70.5t67 -73.5t102.5 -54.5t142.5 -23q176 0 288 107.5t112 289.5q0 68 -23.5 133.5t-68 119.5t-117.5 87t-162 33q-240 0 -379 -252q-10 -13 -26 -13l-84 7q-19 0 -19 22l57 793q0 20 23 20h752 q9 0 15 -5.5t5 -14.5l-12 -70q-3 -20 -21 -20h-633q-22 0 -22 -21l-43 -530q-1 -13 4.5 -15t13.5 9q18 27 44.5 54t73.5 63.5t116 59.5t147 23q110 0 201 -39.5t150 -107t91.5 -154.5t32.5 -184q0 -233 -143.5 -373.5t-374.5 -140.5q-189 0 -319.5 101.5t-167.5 275.5z" />
<glyph unicode="6" horiz-adv-x="1382" d="M219 565v78q0 195 28 343t88 257.5t161 166t241 56.5q172 0 391 -112q12 -9 9 -23l-11 -67q-1 -10 -5.5 -12t-14.5 3q-63 30 -109.5 48.5t-118 35.5t-137.5 17q-92 0 -165 -35t-118 -90.5t-75 -131.5t-41.5 -151.5t-11.5 -156.5q0 -28 14 -7q11 20 27 40.5t51.5 53 t78.5 56t110.5 41.5t144.5 18q151 0 268 -69t176.5 -180.5t59.5 -243.5q0 -103 -36 -194.5t-101 -161t-164.5 -110t-219.5 -40.5q-107 0 -198.5 33.5t-164.5 100t-115 179t-42 258.5zM336 494q0 -168 108 -279t293 -111q104 0 195 45t151 137t60 214q0 175 -112.5 279 t-285.5 104q-81 0 -154.5 -26t-130.5 -73.5t-90.5 -122.5t-33.5 -167z" />
<glyph unicode="7" horiz-adv-x="1372" d="M164 1370v70q0 20 20 20h1024q21 0 21 -20v-92q0 -13 -12 -25q-91 -68 -168 -142.5t-134.5 -146t-104.5 -150t-79 -150t-56 -151t-38 -147.5t-22.5 -145t-11.5 -138.5t-3 -132.5q0 -20 -20 -20h-76q-21 0 -21 20q0 85 3 152.5t16 169.5t36 189t66.5 195t103 203 t150.5 199.5t205 196.5q10 7 5 16t-17 9h-867q-20 0 -20 20z" />
<glyph unicode="8" horiz-adv-x="1396" d="M164 403q0 140 91.5 237.5t233.5 133.5q-119 40 -186 126t-67 187q0 115 68 203t176.5 132t238.5 44q131 0 239.5 -44t176 -132t67.5 -203q0 -101 -67 -187t-185 -126q140 -36 232 -133.5t92 -237.5q0 -83 -30 -151t-82 -115.5t-123 -80t-151.5 -47.5t-168.5 -15 q-105 0 -202 25t-177 73t-128 128.5t-48 182.5zM283 412q0 -79 39.5 -140.5t104.5 -97t139.5 -53t152.5 -17.5q84 0 159.5 17.5t139.5 53t101.5 96.5t37.5 141q0 131 -125.5 218t-312.5 87t-311.5 -87t-124.5 -218zM354 1081q0 -102 101.5 -178t263.5 -76t264 76t102 178 q0 67 -32.5 121t-85.5 86.5t-117 50t-131 17.5t-130.5 -17.5t-116.5 -50t-85.5 -86.5t-32.5 -121z" />
<glyph unicode="9" horiz-adv-x="1347" d="M184 963q0 102 36 193t101 160t164.5 109.5t219.5 40.5q107 0 198.5 -33t164.5 -99.5t115 -178.5t42 -258v-80q0 -195 -28 -343t-88 -257.5t-161 -166t-241 -56.5q-176 0 -392 115q-11 5 -8 20l10 70q2 14 21 6q76 -33 113.5 -48.5t111.5 -34t139 -18.5q92 0 165 35 t118.5 91t75 131.5t41.5 151.5t12 157q0 27 -14 6q-11 -20 -27 -40.5t-51.5 -53t-78 -56t-110 -41.5t-143.5 -18q-152 0 -269.5 69.5t-177 181.5t-59.5 245zM303 963q0 -176 112 -280.5t283 -104.5q111 0 202.5 43.5t149.5 134t58 211.5q0 169 -107.5 279t-293.5 110 q-104 0 -194.5 -44.5t-150 -136t-59.5 -212.5z" />
<glyph unicode=":" horiz-adv-x="614" d="M242 80q0 26 19.5 44.5t45.5 18.5q27 0 46.5 -18.5t19.5 -44.5q0 -27 -19.5 -46.5t-46.5 -19.5t-46 19t-19 47zM242 823q0 -27 19 -46t46 -19t46.5 19t19.5 46q0 26 -20 45t-46 19t-45.5 -19t-19.5 -45z" />
<glyph unicode=";" horiz-adv-x="518" d="M145 -205l105 369q4 18 22 18h70q22 0 16 -22l-129 -371q-5 -16 -24 -16h-43q-10 0 -15 6.5t-2 15.5zM266 823q0 28 19 47t45 19q28 0 46.5 -19t18.5 -47q0 -26 -18.5 -44.5t-46.5 -18.5q-26 0 -45 18.5t-19 44.5z" />
<glyph unicode="&#x3c;" horiz-adv-x="1079" d="M143 674v67q0 11 13 21l782 471q8 4 13 0.5t5 -12.5v-86q0 -14 -12 -21l-663 -397q-13 -11 0 -21l663 -397q12 -7 12 -20v-86q0 -20 -18 -13l-782 473q-13 10 -13 21z" />
<glyph unicode="=" horiz-adv-x="1454" d="M328 451v69q0 21 20 21h881q20 0 20 -21v-69q0 -21 -20 -21h-881q-20 0 -20 21zM328 930v69q0 21 20 21h881q20 0 20 -21v-69q0 -21 -20 -21h-881q-20 0 -20 21z" />
<glyph unicode="&#x3e;" horiz-adv-x="1120" d="M205 193v86q0 13 12 20l662 397q16 10 0 21l-662 397q-12 7 -12 21v86q0 9 5.5 12.5t12.5 -0.5l783 -471q12 -9 12 -21v-67q0 -12 -12 -21l-783 -473q-18 -7 -18 13z" />
<glyph unicode="?" horiz-adv-x="1138" d="M164 1182q31 156 152 261t307 105q100 0 180 -34t129 -90.5t74.5 -125.5t25.5 -143q0 -68 -17 -121.5t-45 -88t-64.5 -62.5t-76 -50t-78 -45t-72 -52.5t-58 -67t-35 -94.5t-2.5 -130q1 -9 -5.5 -14.5t-15.5 -5.5h-71q-18 0 -21 20q-9 103 10.5 180t58 122.5t87.5 80 t99.5 63t92.5 60.5t69 83t27 120q0 52 -17 101t-51 91t-92.5 67.5t-133.5 25.5t-135.5 -23.5t-95 -55t-59.5 -74.5t-34 -70.5t-14 -53.5q-1 -7 -10 -11.5t-17 -2.5l-76 12q-19 3 -16 23zM459 59q0 26 19.5 45t45.5 19t46 -19t20 -45q0 -27 -19.5 -46t-46.5 -19t-46 19 t-19 46z" />
<glyph unicode="@" horiz-adv-x="2154" d="M82 492q0 153 42 303t129.5 286.5t210 240t295.5 165t374 61.5q184 0 341 -64.5t263.5 -174.5t166.5 -258t60 -314q0 -119 -20.5 -222t-55 -177t-80.5 -134t-95.5 -98t-102.5 -63.5t-99.5 -36t-87.5 -10.5q-93 0 -146 30t-87 87q-9 18 -27 4q-84 -64 -167 -93.5 t-183 -29.5q-88 0 -157 37.5t-109.5 100.5t-61 143.5t-17 168.5t27.5 174q62 224 210 345.5t349 121.5q76 0 148.5 -31t101.5 -75q6 -9 14.5 -7t11.5 15l17 74q3 18 22 18h74q21 0 18 -22l-170 -805q-15 -72 20.5 -118t129.5 -46q81 0 158.5 48t137 132t96 208t36.5 265 q0 102 -29 203t-89.5 194t-146 164t-207.5 113.5t-265 42.5q-134 0 -255 -31.5t-216 -86.5t-175 -129.5t-137 -161t-96.5 -181t-58.5 -188.5t-19 -184q0 -192 62.5 -351t170 -264.5t252.5 -163t310 -57.5q133 0 262 33.5t226.5 86t168.5 110t109 112.5q9 12 24 12h58 q12 0 16 -7t-2 -17q-38 -71 -116 -143t-185 -135t-250 -102.5t-293 -39.5q-180 0 -331 50.5t-256 137.5t-178 204.5t-107.5 251t-34.5 278.5zM598 322q26 -108 92 -164t154 -56q130 0 230.5 69.5t129.5 207.5l76 358q23 106 -45.5 173t-171.5 67q-71 0 -137.5 -21.5 t-128.5 -66t-110.5 -122t-74.5 -179.5q-40 -158 -14 -266z" />
<glyph unicode="A" horiz-adv-x="1560" d="M145 8q-2 4 -2 8t2 9l596 1421q6 14 25 14h53q19 0 25 -14l592 -1421q2 -5 2 -9t-2 -8q-4 -8 -15 -8h-84q-18 0 -24 14l-137 332q-6 14 -23 14h-721q-18 0 -24 -14l-140 -332q-6 -14 -22 -14h-86q-11 0 -15 8zM468 478q4 -8 15 -7h619q10 -1 14 7q2 4 3 8q0 5 -3 10 l-309 749q-5 11 -15 11t-14 -11l-309 -749q-3 -5 -3 -10q0 -4 2 -8z" />
<glyph unicode="B" horiz-adv-x="1314" d="M205 20v1420q0 20 20 20h500q86 0 158 -22.5t127.5 -68t86.5 -120t31 -172.5q0 -120 -49.5 -198.5t-120.5 -116.5q-9 -4 -9 -11.5t12 -11.5q29 -10 58 -25.5t64 -45t61 -66.5t44 -93.5t18 -121.5q0 -194 -112.5 -290.5t-341.5 -96.5h-527q-20 0 -20 20zM324 131 q0 -20 20 -20h408q55 0 98 5t91.5 22t80.5 46.5t53 81.5t21 123q0 91 -49.5 160.5t-126.5 104t-168 34.5h-408q-20 0 -20 -20v-537zM324 819q0 -20 20 -20h346q163 0 245.5 77.5t82.5 198.5q0 77 -26.5 133t-71.5 85.5t-93.5 43t-101.5 13.5h-381q-20 0 -20 -21v-510z" />
<glyph unicode="C" horiz-adv-x="1544" d="M205 733q0 199 90.5 367t253.5 268t362 100q143 0 269 -53t215 -145q6 -8 6.5 -15t-6.5 -14l-43 -47q-14 -14 -29 0q-60 70 -165 117t-247 47q-120 0 -229 -49t-187.5 -132.5t-124.5 -199.5t-46 -244t46 -244.5t124.5 -201t187.5 -134t229 -49.5q142 0 247 47t165 117 q15 14 29 0l43 -47q6 -6 6 -13t-6 -15q-90 -97 -204.5 -148t-279.5 -51q-199 0 -362 100.5t-253.5 269.5t-90.5 369z" />
<glyph unicode="D" horiz-adv-x="1595" d="M205 20v1420q0 20 20 20h488q156 0 296.5 -56t242 -152.5t161.5 -232.5t60 -290q0 -153 -60 -289t-161.5 -232t-242 -152t-296.5 -56h-488q-20 0 -20 20zM324 131q0 -20 20 -20h373q120 0 225 36.5t179.5 98t128.5 141t80 167t26 175.5t-26 176t-80 168t-128.5 142 t-179.5 98.5t-225 36.5h-373q-20 0 -20 -21v-1198z" />
<glyph unicode="E" horiz-adv-x="1114" d="M184 20v1420q0 20 21 20h725q20 0 20 -20v-70q0 -20 -20 -20h-606q-9 0 -15 -6t-6 -15v-543q0 -20 21 -20h424q20 0 20 -21v-71q0 -21 -20 -21h-424q-21 0 -21 -20v-502q0 -20 21 -20h626q9 0 15 -6t6 -15v-70q0 -20 -21 -20h-745q-21 0 -21 20z" />
<glyph unicode="F" horiz-adv-x="1118" d="M205 20v1420q0 20 20 20h729q21 0 21 -20v-70q0 -20 -21 -20h-610q-20 0 -20 -21v-586q0 -20 20 -20h418q20 0 20 -21v-69q0 -21 -20 -21h-418q-20 0 -20 -20v-572q0 -20 -21 -20h-78q-20 0 -20 20z" />
<glyph unicode="G" horiz-adv-x="1724" d="M205 731q0 200 98.5 369t268 267.5t370.5 98.5q298 0 510 -215q16 -16 0 -28l-53 -54q-18 -14 -29 0q-169 187 -428 187q-136 0 -254 -53t-196.5 -140t-123 -199.5t-44.5 -232.5q0 -121 42 -233.5t117.5 -200.5t191 -140.5t251.5 -52.5q120 0 221.5 36t168.5 94 t114.5 132.5t68.5 149.5t21 146q0 20 -19 20h-497q-21 0 -21 20v68q0 9 6 15t15 6h612q20 0 20 -21v-39q0 -154 -49.5 -288.5t-139.5 -234t-225 -157t-298 -57.5q-199 0 -364.5 98.5t-260 268t-94.5 370.5z" />
<glyph unicode="H" horiz-adv-x="1431" d="M205 20v1420q0 20 20 20h78q21 0 21 -20v-668q0 -20 20 -20h786q21 0 21 20v668q0 20 20 20h76q21 0 21 -20v-1420q0 -20 -21 -20h-76q-20 0 -20 20v601q0 20 -21 20h-786q-20 0 -20 -20v-601q0 -20 -21 -20h-78q-20 0 -20 20z" />
<glyph unicode="I" horiz-adv-x="706" d="M184 20v70q0 9 6 15t15 6h90q20 0 20 20v1198q0 21 -20 21h-90q-21 0 -21 20v70q0 20 21 20h338q20 0 20 -20v-70q0 -20 -20 -20h-90q-9 0 -15 -6t-6 -15v-1198q0 -20 21 -20h90q20 0 20 -21v-70q0 -20 -20 -20h-338q-21 0 -21 20z" />
<glyph unicode="J" horiz-adv-x="1107" d="M184 317q-1 3 -1 5q0 13 22 16l76 12q10 1 13 -3t7 -17q7 -35 26.5 -71.5t51.5 -72.5t83 -59t111 -23q73 0 126.5 21t86 56t52 89t26 110t6.5 130v930q0 20 21 20h76q18 0 18 -20v-936q0 -85 -8.5 -152.5t-35.5 -137t-71 -115.5t-119.5 -75.5t-177.5 -29.5 q-150 0 -251.5 92t-137.5 231z" />
<glyph unicode="K" horiz-adv-x="1374" d="M205 20v1420q0 20 20 20h78q21 0 21 -20v-785q0 -14 7.5 -17t16.5 7l733 803q12 12 25 12h106q12 0 16 -7.5t-3 -16.5l-602 -658q-12 -12 0 -28l604 -725q4 -6 4 -11q0 -3 -1 -6q-4 -8 -16 -8h-100q-20 0 -27 12l-540 647q-13 16 -29 0l-184 -198q-10 -10 -10 -25v-416 q0 -20 -21 -20h-78q-20 0 -20 20z" />
<glyph unicode="L" horiz-adv-x="1046" d="M184 20v1420q0 20 21 20h78q20 0 20 -20v-1309q0 -20 21 -20h559q20 0 20 -21v-70q0 -20 -20 -20h-678q-21 0 -21 20z" />
<glyph unicode="M" horiz-adv-x="1724" d="M205 20v1420q0 20 20 20h64q19 0 26 -12l564 -956q6 -9 14.5 -9t13.5 9l561 956q7 12 27 12h66q20 0 20 -20v-1420q0 -20 -20 -20h-76q-21 0 -21 20v1156q0 13 -9 17t-15 -7l-533 -903q-6 -11 -14 -11t-14 11l-531 901q-8 11 -16 8t-8 -16v-1156q0 -20 -21 -20h-78 q-20 0 -20 20z" />
<glyph unicode="N" horiz-adv-x="1458" d="M205 20v1420q0 20 20 20h60q15 0 24 -12l865 -1194q10 -12 17 -8.5t7 18.5v1176q0 20 21 20h75q21 0 21 -20v-1420q0 -20 -21 -20h-59q-16 0 -25 12l-862 1196q-10 11 -17 7.5t-7 -17.5v-1178q0 -20 -21 -20h-78q-20 0 -20 20z" />
<glyph unicode="O" d="M205 731q0 157 51 292.5t141.5 233.5t222 153.5t287.5 55.5q207 0 368 -95.5t248 -262.5t87 -377t-87 -377.5t-248 -263.5t-368 -96q-155 0 -287 56t-222.5 154t-141.5 234t-51 293zM324 731q0 -277 161 -452t422 -175t422.5 175t161.5 452t-161.5 451t-422.5 174 t-422 -174t-161 -451z" />
<glyph unicode="P" horiz-adv-x="1390" d="M184 20v1420q0 20 21 20h481q253 0 407 -134.5t154 -375.5t-154 -376.5t-407 -135.5h-362q-21 0 -21 -20v-398q0 -20 -20 -20h-78q-21 0 -21 20zM303 571q0 -20 21 -20h342q69 0 130.5 10t124.5 37t107.5 70t73 115.5t28.5 166.5t-28.5 166.5t-73.5 115.5t-108 70.5 t-124 37.5t-130 10h-342q-9 0 -15 -6t-6 -15v-758z" />
<glyph unicode="Q" horiz-adv-x="1763" d="M205 731q0 157 51 292.5t141.5 233.5t222 153.5t287.5 55.5q207 0 368 -95.5t248 -262.5t87 -377q0 -294 -168 -498l188 -186q8 -8 8 -15t-6 -14l-49 -51q-9 -7 -16 -7t-13 7l-190 187q-187 -160 -457 -160q-155 0 -287 56t-222.5 154t-141.5 234t-51 293zM324 731 q0 -277 161 -452t422 -175q223 0 377 129l-168 166q-16 16 0 29l47 51q6 6 14.5 6t14.5 -6l168 -166q131 170 131 418q0 277 -161.5 451t-422.5 174t-422 -174t-161 -451z" />
<glyph unicode="R" horiz-adv-x="1349" d="M184 20v1420q0 20 21 20h506q223 0 359 -125.5t136 -345.5q0 -69 -16 -130t-41.5 -105.5t-61 -82.5t-71.5 -63t-76 -45q-7 -3 -9 -12t3 -16l260 -510q6 -11 1.5 -18t-15.5 -7h-84q-17 0 -25 14l-250 490q-8 14 -24 14h-473q-21 0 -21 -20v-478q0 -20 -20 -20h-78 q-21 0 -21 20zM303 649q0 -20 21 -20h430q49 0 104 20.5t108.5 61t88.5 113.5t35 165q0 96 -31.5 167.5t-86.5 112.5t-122.5 61t-147.5 20h-378q-9 0 -15 -6t-6 -15v-680z" />
<glyph unicode="S" horiz-adv-x="1363" d="M230 335q0 1 3 3t5 3.5t7 3.5t7 3l76 17q4 2 6.5 2.5t4 -1.5t2.5 -4t3.5 -7.5t5.5 -10.5q10 -20 31 -47t61 -62t88 -63.5t117 -48t144 -19.5q175 0 271.5 67t96.5 179q0 63 -29 114t-71 83t-107 60.5t-118 43.5t-124.5 35t-107.5 33q-89 30 -148.5 59t-111.5 72.5 t-77 104.5t-25 141q0 152 132.5 261t342.5 109q105 0 194 -27.5t150 -74t101.5 -102t60.5 -117.5q6 -17 -21 -21l-78 -10q-5 -1 -8 0.5t-4 3t-3.5 7.5t-4.5 10q-104 221 -385 221q-87 0 -157.5 -24.5t-113.5 -64t-65.5 -85t-22.5 -90.5q0 -41 12 -76t30 -60.5t51 -49 t62.5 -39t78 -33t85 -28.5t94.5 -27q7 -2 11 -3t10 -3t11 -3q86 -24 153.5 -50t129 -62.5t102 -78.5t64.5 -98.5t24 -122.5q0 -177 -134.5 -270.5t-353.5 -93.5q-105 0 -199.5 29.5t-163 79.5t-117.5 106.5t-77 118.5z" />
<glyph unicode="T" horiz-adv-x="1204" d="M164 1370v70q0 20 20 20h877q20 0 20 -20v-70q0 -20 -20 -20h-359q-20 0 -20 -21v-1309q0 -20 -20 -20h-78q-21 0 -21 20v1309q0 21 -20 21h-359q-20 0 -20 20z" />
<glyph unicode="U" horiz-adv-x="1507" d="M205 629v811q0 20 20 20h78q21 0 21 -20v-811q0 -261 116.5 -393t345.5 -132q225 0 342.5 132.5t118.5 392.5v811q0 20 21 20h75q21 0 21 -20v-811q0 -63 -6.5 -121.5t-24 -123.5t-45 -120t-72.5 -106t-104 -86.5t-142.5 -56.5t-183.5 -21q-101 0 -185 21t-143 56.5 t-104.5 86.5t-73 106t-45 120t-24 123.5t-6.5 121.5z" />
<glyph unicode="V" horiz-adv-x="1527" d="M166 1453q4 7 14 7h86q17 0 23 -14l471 -1229q4 -11 14 -11t14 11l472 1229q6 14 24 14h84q10 0 14 -7q2 -3 2 -7t-2 -10l-555 -1422q-6 -14 -24 -14h-55q-19 0 -25 14l-557 1422q-2 5 -2 10q0 4 2 7z" />
<glyph unicode="W" horiz-adv-x="2215" d="M145 1436l451 -1422q6 -14 25 -14h49q18 0 24 14l404 1192q5 14 13 19.5t16 0t12 -19.5l405 -1192q6 -14 25 -14h49q21 0 24 14l449 1422q2 5 2 10q1 4 -1 7q-4 7 -15 7h-78q-19 0 -25 -14l-364 -1184q-5 -15 -12.5 -20.5t-15.5 0t-13 20.5l-400 1184q-3 14 -18 14h-66 q-14 0 -20 -14l-393 -1184q-6 -15 -14 -20.5t-15.5 0t-11.5 20.5l-367 1184q-6 14 -24 14h-80q-11 0 -15 -7q-2 -4 -2 -8t2 -9z" />
<glyph unicode="X" horiz-adv-x="1636" d="M166 7q-2 2 -2 5q0 6 6 13l578 690q14 14 0 28l-576 693q-8 10 -4.5 17t16.5 7h103q14 0 26 -12l510 -612q15 -17 29 0l512 612q10 12 27 12h104q11 0 15 -7q1 -2 2 -5q0 -5 -5 -12l-581 -693q-14 -14 0 -28l581 -690q5 -7 5 -13q0 -3 -2 -5q-4 -7 -15 -7h-104 q-17 0 -27 12l-512 613q-14 17 -29 0l-510 -613q-12 -12 -26 -12h-105q-12 0 -16 7z" />
<glyph unicode="Y" horiz-adv-x="1443" d="M124 1452q3 8 15 8h101q17 0 24 -12l455 -643q6 -9 14.5 -9t14.5 9l454 643q7 12 25 12h98q12 0 15 -8q1 -2 1 -5q0 -5 -4 -11l-534 -756q-8 -11 -8 -27v-633q0 -20 -21 -20h-78q-20 0 -20 20v633q0 16 -8 27l-541 756q-4 6 -4 11q0 3 1 5z" />
<glyph unicode="Z" horiz-adv-x="1536" d="M205 20v70q0 16 8 27l985 1206q8 9 4 18t-16 9h-961q-20 0 -20 20v70q0 20 20 20h1127q20 0 20 -20v-70q0 -13 -8 -24l-987 -1209q-8 -9 -4 -17.5t16 -8.5h963q20 0 20 -21v-70q0 -20 -20 -20h-1127q-20 0 -20 20z" />
<glyph unicode="[" horiz-adv-x="587" d="M143 -403v1968q0 20 21 20l301 -2q20 0 20 -20v-70q0 -20 -20 -20h-182q-9 0 -15 -6t-6 -15v-1745q0 -20 21 -20h182q20 0 20 -21v-69q0 -21 -20 -21h-301q-9 0 -15 6t-6 15z" />
<glyph unicode="\" horiz-adv-x="997" d="M73.5 1535q3.5 7 14.5 7h86q17 0 23 -14l747 -1585q5 -11 0.5 -18t-14.5 -7h-86q-17 0 -23 14l-747 1586q-4 10 -0.5 17z" />
<glyph unicode="]" horiz-adv-x="587" d="M143 -334q0 9 6 15t15 6h184q21 0 21 20v1745q0 9 -6 15t-15 6h-184q-21 0 -21 20v70q0 20 21 20l301 2q20 0 20 -20v-1968q0 -21 -20 -21h-301q-9 0 -15 6t-6 15v69z" />
<glyph unicode="^" horiz-adv-x="1441" d="M206.5 652.5q-3.5 5.5 0.5 13.5l471 782q9 12 20 12h66q11 0 20 -12l473 -782q4 -8 0.5 -13.5t-12.5 -5.5h-84q-13 0 -20 12l-398 664q-11 17 -20 0l-399 -664q-5 -12 -19 -12h-86q-9 0 -12.5 5.5z" />
<glyph unicode="_" horiz-adv-x="1925" d="M164 -168q0 21 20 21h1598q20 0 20 -21v-59q0 -21 -20 -21h-1598q-20 0 -20 21v59z" />
<glyph unicode="a" horiz-adv-x="1069" d="M123 297q0 101 50.5 176t146.5 121.5t227 69.5t299 24q16 0 16 19q0 70 -15 122t-39.5 82.5t-61.5 49t-74 24.5t-84 6q-79 0 -180 -31t-156 -63q-14 -9 -21 8l-18 51q-6 10 6 19q58 39 172 74.5t221 35.5q74 0 131 -17t94 -41t63 -67.5t39 -77.5t19.5 -92t7.5 -90.5 t1 -91.5v-592q0 -16 -17 -16h-71q-17 0 -17 16v103q0 10 -6 12t-12 -4q-56 -55 -167.5 -94t-207.5 -39q-170 0 -258 86.5t-88 216.5zM231 301q0 -100 71.5 -158.5t189.5 -58.5q77 0 175.5 33.5t186.5 109.5q8 6 8 19v340q0 16 -16 16q-86 0 -164 -7t-163 -27.5t-146.5 -52.5 t-101.5 -87t-40 -127z" />
<glyph unicode="b" horiz-adv-x="1200" d="M143 16v1510q0 16 17 16h73q17 0 17 -16v-568q0 -11 5 -13t13 5q49 52 139.5 93.5t194.5 41.5q114 0 209 -44.5t157 -119.5t96 -173.5t34 -208.5q0 -109 -34 -207t-96 -173.5t-157 -120t-209 -44.5q-103 0 -194.5 41.5t-139.5 93.5q-8 7 -13 5t-5 -13v-105q0 -16 -17 -16 h-73q-17 0 -17 16zM250 276q0 -10 6 -20q47 -71 139.5 -119.5t192.5 -48.5q175 0 289 124.5t114 326.5t-114 327t-289 125q-100 0 -191.5 -48.5t-138.5 -119.5q-8 -13 -8 -20v-527z" />
<glyph unicode="c" horiz-adv-x="1112" d="M123 541q0 150 64 274t182.5 197t267.5 73q73 0 140 -20.5t114.5 -53t80 -63.5t52.5 -61q5 -6 5 -11q0 -6 -7 -12l-45 -39q-14 -11 -23 2q-114 164 -313 164q-122 0 -217.5 -63.5t-145 -165.5t-49.5 -221t49.5 -221.5t145 -167t217.5 -64.5q196 0 313 164q10 12 23 2 l45 -39q7 -5 7 -11q0 -5 -5 -11q-21 -30 -52.5 -60.5t-79.5 -63.5t-115 -54t-140 -21q-149 0 -267.5 73.5t-182.5 198t-64 275.5z" />
<glyph unicode="d" horiz-adv-x="1179" d="M123 539q0 148 57 270.5t171.5 199t266.5 76.5q103 0 193.5 -41.5t140.5 -93.5q8 -7 13.5 -5t5.5 13v568q0 16 16 16h74q16 0 16 -16v-1510q0 -16 -16 -16h-74q-16 0 -16 16v105q0 11 -5.5 13t-13.5 -5q-50 -52 -140.5 -93.5t-193.5 -41.5q-152 0 -266.5 76.5t-171.5 199 t-57 269.5zM229 539q0 -202 114 -326.5t290 -124.5q100 0 191.5 48.5t138.5 119.5q8 10 8 20v527q0 7 -8 20q-47 71 -138.5 119.5t-191.5 48.5q-175 0 -289.5 -125t-114.5 -327z" />
<glyph unicode="e" horiz-adv-x="1185" d="M123 541q0 150 62 274t177.5 197t262.5 73q103 0 186.5 -33.5t137 -87t89.5 -125.5t51 -144.5t15 -147.5v-33q0 -16 -17 -16h-841q-17 0 -17 -17q0 -29 7 -65t22.5 -82t46 -88t72 -78.5t105.5 -58t141 -21.5q63 0 120 18t93 42t68 57t45.5 52t23.5 38q7 13 20 10l70 -10 q18 -3 12 -19q-51 -123 -167.5 -202.5t-282.5 -79.5q-99 0 -181 28t-141 77.5t-100 118t-60.5 150t-19.5 173.5zM231 602q0 -16 17 -16h729q16 0 16 14q0 46 -9.5 95t-35.5 104.5t-65.5 98t-106.5 70.5q-65 27 -145 27h-6q-77 -1 -143.5 -27.5t-111 -68t-76.5 -94 t-47 -104.5t-16 -99z" />
<glyph unicode="f" horiz-adv-x="817" d="M123 1001v62q0 16 16 16h125q17 0 17 17v116q0 152 63.5 244t194.5 92q50 0 95 -19t73 -48q8 -8 8 -16q0 -3 -2 -7l-11 -43q-3 -13 -18 -4q-71 43 -129 43q-81 0 -124.5 -65t-43.5 -177v-116q0 -17 16 -17h281q16 0 16 -16v-62q0 -16 -16 -16h-281q-16 0 -16 -16v-953 q0 -16 -16 -16h-74q-16 0 -16 16v953q0 16 -17 16h-125q-16 0 -16 16z" />
<glyph unicode="g" horiz-adv-x="1161" d="M106 541q0 104 31.5 200t91 173.5t156 124t215.5 46.5q104 0 194.5 -41.5t141.5 -93.5q8 -7 13 -5t5 13v105q0 16 17 16h71q17 0 17 -16v-989q0 -235 -109.5 -369.5t-322.5 -134.5q-125 0 -225.5 35t-161.5 78q-13 10 -7 22l15 47q8 16 22 6q155 -94 338 -94 q163 0 254.5 100t91.5 310v47q0 11 -5 13t-13 -5q-51 -52 -141.5 -93.5t-194.5 -41.5q-119 0 -215.5 47t-156 125t-91 174.5t-31.5 200.5zM211 541q0 -196 112.5 -324.5t299.5 -128.5q99 0 187 48t136 120q8 16 8 20v527q0 4 -8 20q-48 72 -136 120t-187 48 q-187 0 -299.5 -127t-112.5 -323z" />
<glyph unicode="h" horiz-adv-x="1181" d="M143 16v1510q0 16 17 16h73q17 0 17 -16v-621q0 -11 5 -13t13 7q53 71 162.5 128.5t233.5 57.5q71 0 131 -15.5t113.5 -52t90.5 -93.5t58.5 -144t21.5 -198v-566q0 -16 -16 -16h-74q-16 0 -16 16v547q0 221 -81 324.5t-245 103.5q-124 0 -239 -70.5t-158 -181.5v-723 q0 -16 -17 -16h-73q-17 0 -17 16z" />
<glyph unicode="i" horiz-adv-x="419" d="M166 1415q0 27 19 45.5t46 18.5q26 0 45 -19t19 -45q0 -27 -18.5 -46t-45.5 -19q-28 0 -46.5 18.5t-18.5 46.5zM176 16v1047q0 16 17 16h73q17 0 17 -16v-1047q0 -16 -17 -16h-73q-17 0 -17 16z" />
<glyph unicode="j" horiz-adv-x="331" d="M-125 -358l12 45q9 18 21 8q54 -31 96 -31q34 0 54.5 15.5t31 53.5t13.5 83t3 123l3 1124q0 8 4.5 12.5t11.5 3.5h74q14 -3 14 -18v-1106v-6q0 -49 -0.5 -73.5t-2.5 -67.5t-7 -65.5t-13.5 -55t-22 -50t-32.5 -35t-46.5 -25t-61.5 -7.5q-83 0 -144 49q-9 7 -9 16q0 3 1 7z M94 1415q0 26 19 45t47 19q26 0 44.5 -19t18.5 -45q0 -28 -18.5 -46.5t-44.5 -18.5q-28 0 -47 18.5t-19 46.5z" />
<glyph unicode="k" horiz-adv-x="1103" d="M143 16v1510q0 16 17 16h73q17 0 17 -16v-969q0 -11 5.5 -14t14.5 4l584 524q12 8 20 8h113q10 0 13 -7q1 -2 1 -4q0 -5 -6 -9l-479 -434q-12 -10 -2 -23l481 -582q7 -9 4 -14.5t-12 -5.5h-100q-14 0 -21 10l-434 520q-9 9 -11 9t-11 -7l-152 -135q-8 -6 -8 -20v-361 q0 -16 -17 -16h-73q-17 0 -17 16z" />
<glyph unicode="l" horiz-adv-x="352" d="M143 16v1510q0 16 17 16h73q17 0 17 -16v-1510q0 -16 -17 -16h-73q-17 0 -17 16z" />
<glyph unicode="m" horiz-adv-x="1878" d="M143 16v1047q0 16 17 16h73q17 0 17 -16v-119q0 -10 6 -13t12 5q46 59 142.5 104t199.5 45q125 0 213 -61.5t135 -173.5q5 -12 9.5 -15.5t9 0t10.5 13.5q65 115 174.5 176t218.5 61q206 0 301 -129t95 -358v-582q0 -16 -17 -16h-71q-17 0 -17 16v582q0 393 -309 393 q-150 0 -251 -101.5t-107 -232.5v-641q0 -16 -17 -16h-72q-16 0 -16 16v582q0 39 -5 78t-17 85.5t-35 85.5t-55.5 72.5t-82.5 52.5t-112 19q-70 0 -131.5 -21t-103.5 -54t-69.5 -71t-37.5 -75v-754q0 -16 -17 -16h-73q-17 0 -17 16z" />
<glyph unicode="n" horiz-adv-x="1198" d="M143 16v1047q0 16 17 16h73q17 0 17 -16v-158q0 -11 5 -13t13 7q53 71 162.5 128.5t233.5 57.5q72 0 133.5 -15.5t117.5 -52.5t95.5 -93t62.5 -143.5t23 -198.5v-566q0 -16 -17 -16h-71q-17 0 -17 16v547q0 428 -344 428q-123 0 -237 -70t-160 -182v-723q0 -16 -17 -16 h-73q-17 0 -17 16z" />
<glyph unicode="o" horiz-adv-x="1302" d="M123 541q0 150 68 274t194.5 197t286.5 73q159 0 285.5 -73t195 -197t68.5 -274t-68.5 -274.5t-195 -198.5t-285.5 -74q-160 0 -286.5 74t-194.5 198.5t-68 274.5zM229 541q0 -192 121 -322.5t322 -130.5q200 0 322 130.5t122 322.5q0 191 -122 320.5t-322 129.5 q-134 0 -236 -61t-154.5 -162.5t-52.5 -226.5z" />
<glyph unicode="p" horiz-adv-x="1179" d="M143 -408v1471q0 16 17 16h73q17 0 17 -16v-105q0 -11 5 -13t13 5q49 52 139.5 93.5t194.5 41.5q151 0 266 -76.5t172.5 -198.5t57.5 -269q0 -109 -34 -207.5t-96 -174.5t-157 -120.5t-209 -44.5q-103 0 -194.5 41.5t-139.5 93.5q-8 7 -13 5t-5 -13v-529q0 -16 -17 -16 h-73q-17 0 -17 16zM250 276q0 -5 6 -20q47 -71 139.5 -119.5t192.5 -48.5q175 0 289 125.5t114 327.5t-113.5 326t-289.5 124q-100 0 -191.5 -48.5t-138.5 -119.5q-8 -10 -8 -20v-527z" />
<glyph unicode="q" horiz-adv-x="1200" d="M143 541q0 109 34 207t95.5 173t156.5 119.5t210 44.5q103 0 193.5 -41.5t140.5 -93.5q7 -7 12.5 -5t5.5 13v105q0 16 17 16h73q17 0 17 -16v-1471q0 -16 -17 -16h-73q-17 0 -17 16v529q0 11 -5.5 13t-12.5 -5q-50 -52 -140.5 -93.5t-193.5 -41.5q-115 0 -210 44.5 t-156.5 120.5t-95.5 174.5t-34 207.5zM250 541q0 -202 114 -327.5t289 -125.5q100 0 191.5 48.5t138.5 119.5q8 13 8 20v527q0 10 -8 20q-47 71 -138.5 119.5t-191.5 48.5q-176 0 -289.5 -124t-113.5 -326z" />
<glyph unicode="r" horiz-adv-x="872" d="M143 16v1047q0 16 17 16h73q17 0 17 -16v-123q0 -11 6 -13t14 7q63 80 148 115.5t166 35.5q60 0 113 -14.5t83 -32.5q12 -7 12 -18q0 -2 -1 -4l-11 -60q-3 -17 -20 -8q-80 43 -180 43q-133 0 -231.5 -89.5t-98.5 -248.5v-637q0 -16 -17 -16h-73q-17 0 -17 16z" />
<glyph unicode="s" horiz-adv-x="1079" d="M139 285q0 5 4 9q5 4 13 5l63 12q9 1 12.5 -2t6.5 -14q32 -91 138 -149t236 -58q50 0 95.5 8.5t88.5 27.5t69 56t26 88q0 36 -10.5 65t-34 52.5t-50.5 41t-73 35.5t-86.5 31t-104.5 31q-50 15 -80.5 24.5t-73 25.5t-68.5 30.5t-55.5 36t-45.5 45.5t-26.5 56t-10.5 69 q0 124 110 199t269 75q88 0 159.5 -23t118 -62t75.5 -85t40 -98q1 -7 -2.5 -10t-13.5 -6l-66 -13q-8 -3 -11 1.5t-5 15.5q-22 84 -100 135t-195 51q-112 0 -192 -50.5t-80 -127.5q0 -31 9.5 -56t33 -46t47 -35.5t69 -31t79.5 -26.5t97 -28q97 -27 162.5 -54.5t118 -65.5 t77.5 -88.5t25 -117.5q0 -72 -34 -126.5t-91.5 -84.5t-123.5 -44.5t-140 -14.5q-108 0 -204 32q-96 34 -168 100q-97 90 -97 159z" />
<glyph unicode="t" horiz-adv-x="716" d="M139 1001v62q0 16 17 16h102q16 0 16 17v233q0 16 15 19l76 8h2q5 0 9 -4q4 -5 5 -13v-243q0 -17 16 -17h191q16 0 16 -16v-62q0 -16 -16 -16h-191q-16 0 -16 -16v-525q0 -76 0.5 -114.5t4 -87.5t10.5 -71t19.5 -45t31.5 -30.5t47 -7.5q50 0 90 12q18 6 20 -8l10 -47 q1 -3 1 -5q0 -10 -9 -17q-52 -29 -139 -29q-47 0 -81.5 12t-55 44t-32.5 59t-17 87t-6 96.5t-1 116.5v35v525q0 16 -16 16h-102q-17 0 -17 16z" />
<glyph unicode="u" horiz-adv-x="1198" d="M143 498v565q0 16 17 16h73q17 0 17 -16v-547q0 -428 344 -428q122 0 236.5 70.5t160.5 181.5v723q0 16 17 16h71q17 0 17 -16v-1047q0 -16 -17 -16h-71q-17 0 -17 16v158q0 11 -5.5 13t-12.5 -7q-55 -70 -164.5 -128t-233.5 -58q-71 0 -133 15.5t-118 52.5t-95.5 93.5 t-62.5 144t-23 198.5z" />
<glyph unicode="v" horiz-adv-x="1310" d="M139 1061q-2 5 -2 8q0 10 15 10h79q16 0 21 -12l403 -905q5 -9 11 -9t10 9l403 905q5 12 21 12h80q14 0 14 -10q0 -4 -2 -8l-475 -1049q-6 -12 -21 -12h-59q-15 0 -21 12z" />
<glyph unicode="w" horiz-adv-x="1740" d="M104 1061q-2 5 -2 8q0 10 15 10h78q11 0 18 -14l287 -885q2 -8 6 -10.5t8.5 0.5t7.5 10l305 887q2 12 19 12h72q13 0 18 -12l307 -887q5 -11 11.5 -11.5t11.5 11.5l284 885q4 14 19 14h78q13 0 13 -12q0 -3 -1 -6l-352 -1049q-5 -12 -21 -12h-59q-19 0 -21 12l-313 891 q-3 7 -7 9.5t-8 0t-6 -9.5l-311 -891q-5 -12 -20 -12h-60q-18 0 -20 12z" />
<glyph unicode="x" horiz-adv-x="1204" d="M124 8q0 5 5 12l420 508q9 12 0 25l-420 506q-5 5 -5 11v2q2 6 13 7h88q11 0 21 -10l360 -436q4 -6 12 -6t13 6l362 436q7 10 21 10h94q10 0 12 -6.5t-4 -13.5l-420 -506q-12 -13 0 -25l420 -508q5 -7 5 -12v-2q-2 -6 -13 -6h-94q-14 0 -21 10l-362 436q-5 6 -13 6 t-12 -6l-360 -436q-10 -10 -21 -10h-88q-13 0 -13 8z" />
<glyph unicode="y" horiz-adv-x="1239" d="M125 1061q-3 5 -3 9q0 9 15 9h78q12 0 18 -12l431 -934q10 -23 20 0l383 934q6 12 18 12h78q15 0 15 -10q0 -3 -2 -8l-465 -1133q-21 -50 -33.5 -78t-34 -71.5t-39 -68.5t-44 -55.5t-53 -46.5t-61 -27t-73.5 -11q-97 0 -170 61q-13 10 -4 23l16 51q7 15 21 6 q65 -45 124 -45q43 0 80.5 21.5t69.5 65t57.5 93.5t55.5 123q4 8 0 21z" />
<glyph unicode="z" horiz-adv-x="1064" d="M143 18v60q0 6 9 20l659 867q12 20 -8 20h-643q-17 0 -17 16v62q0 16 17 16h786q17 0 17 -16v-62q0 -7 -9 -20l-667 -864q-6 -7 -4 -14t12 -7h651q17 0 17 -16v-62q0 -16 -17 -16h-786q-17 0 -17 16z" />
<glyph unicode="{" horiz-adv-x="761" d="M143 494v102q0 15 17 18q35 3 59 16.5t36.5 41.5t19 58t6.5 78.5t-2 90t-4.5 104.5t-2.5 111q0 125 16.5 203t60 129.5t113.5 72.5t183 23q18 0 14 -18l-14 -78q-3 -14 -18 -14q-62 -1 -101.5 -9.5t-68 -29.5t-40.5 -55.5t-20.5 -87t-7 -124.5t0.5 -169q1 -104 1 -164 q0 -208 -123 -244q-8 -3 -8 -11t8 -12q123 -43 123 -268q0 -61 -1 -163q-1 -69 -1 -100t2 -78.5t3 -64t9 -46t14 -36.5t22 -22.5t29.5 -17t41.5 -6.5t51.5 -5h65.5q15 0 18 -14l14 -74q4 -18 -14 -18q-80 0 -131 4.5t-96.5 18t-70.5 37.5t-43.5 65.5t-25 98t-6.5 138.5 q0 48 2.5 111t4.5 104.5t2 89.5t-6.5 79t-19 58.5t-36.5 42t-59 17.5q-17 0 -17 17z" />
<glyph unicode="|" horiz-adv-x="487" d="M205 -403v2007q0 20 20 20h78q21 0 21 -20v-2007q0 -9 -6 -15t-15 -6h-78q-20 0 -20 21z" />
<glyph unicode="}" horiz-adv-x="761" d="M143 -369l15 74q3 14 20 14q41 0 64.5 0.5t51 4t41 7.5t29.5 16t22 23t14 35.5t9 47t3 63t2 79t-1 99.5q-1 103 -1 164q0 224 123 268q7 4 7 12t-7 11q-123 37 -123 244q0 60 1 165q-1 96 0.5 168.5t-6.5 125t-20.5 86.5t-40.5 55t-67 29.5t-101 9.5q-16 0 -20 14l-15 78 q-4 18 17 18q113 -2 183 -23t112.5 -72.5t58.5 -129.5t16 -203q0 -48 -2.5 -111.5t-4.5 -104.5t-1.5 -89.5t6.5 -78.5t19 -58t37 -41.5t59 -16.5q16 -3 16 -18v-102q0 -17 -16 -17q-35 -3 -59 -17.5t-37 -42.5t-19 -58.5t-6.5 -78.5t1.5 -89.5t4.5 -104.5t2.5 -111 q0 -83 -6.5 -139t-24.5 -97.5t-42.5 -65t-70 -38t-96 -18.5t-130.5 -4q-21 0 -17 18z" />
<glyph unicode="~" horiz-adv-x="1032" d="M205 596q31 64 88 110t127 46q41 0 79.5 -16.5t63.5 -36t55 -36t56 -16.5q91 0 137 74q10 16 20 12l43 -16q15 -8 15 -10q-21 -67 -77.5 -114.5t-137.5 -47.5q-39 0 -75 16.5t-59.5 35.5t-55.5 35.5t-64 16.5q-42 0 -78.5 -22.5t-58.5 -55.5q-9 -12 -21 -10l-45 17 q-17 7 -12 18z" />
<glyph unicode="&#xa1;" horiz-adv-x="645" d="M289 1059q0 27 19 46t46 19q26 0 45 -19t19 -46q0 -26 -19 -45t-45 -19t-45.5 19t-19.5 45zM291 -403q0 -21 20 -21h76q9 0 15 6t6 15l-11 1077q0 20 -20 20h-55q-21 0 -21 -20z" />
<glyph unicode="&#xa2;" horiz-adv-x="1073" d="M123 541q0 212 124.5 364.5t323.5 175.5v183q0 20 21 20h51q21 0 21 -20v-179q68 -4 130 -25t106.5 -52.5t74.5 -61.5t49 -59q10 -13 -2 -23l-45 -39q-14 -11 -23 2q-114 164 -313 164q-122 0 -217.5 -63.5t-145 -165.5t-49.5 -221t49.5 -221.5t145 -167t217.5 -64.5 q196 0 313 164q10 12 23 2l45 -39q12 -9 2 -22q-20 -29 -49.5 -58.5t-74 -61.5t-106.5 -53.5t-130 -25.5v-178q0 -9 -6 -15t-15 -6h-51q-9 0 -15 6t-6 15v182q-199 23 -323.5 176.5t-124.5 366.5z" />
<glyph unicode="&#xa3;" horiz-adv-x="1243" d="M164 20v86q0 4 0.5 6t2.5 4.5t3.5 3.5l6 4l7.5 5q19 12 56 32t64.5 34.5t61.5 41.5t55.5 56.5t36.5 75.5t15 102q0 69 -33 133h-245q-15 0 -15 19v65q0 8 4.5 13.5t10.5 5.5h176q-6 7 -34 40t-36.5 44.5t-31 42t-31 50.5t-21.5 51t-17.5 63t-4.5 67q0 175 127 288 t325 113q186 0 316.5 -110t173.5 -277q3 -16 -17 -22l-71 -17q-17 -7 -25 17q-7 26 -21 59t-45 77t-70.5 79t-102 59.5t-134.5 24.5q-152 0 -245 -86.5t-93 -214.5q0 -45 11.5 -85t34.5 -75t44.5 -61.5t54.5 -64t52 -62.5h315q15 0 15 -19v-65q0 -19 -15 -19h-258 q25 -70 25 -131q0 -44 -7.5 -82.5t-18.5 -66.5t-29.5 -54t-34 -42t-39.5 -33.5t-37.5 -25t-37 -20t-30.5 -16.5q-12 -6 -8.5 -14t17.5 -8h741q18 0 18 -23l-8 -70q0 -18 -22 -18h-912q-20 0 -20 20z" />
<glyph unicode="&#xa4;" horiz-adv-x="1366" d="M141 764q0 215 135 366l-104 105q-16 13 0 29l35 32q6 9 14.5 8.5t14.5 -8.5l104 -104q145 117 350 117q220 0 369 -133l121 122q14 14 28 0l35 -34q17 -12 0 -29l-123 -123q119 -147 119 -348q0 -204 -121 -350l121 -123q15 -15 0 -29l-33 -33q-14 -14 -28 0l-121 121 q-149 -133 -367 -133q-205 0 -350 117l-104 -101q-14 -14 -29 -2l-35 35q-12 17 0 29l102 102q-133 155 -133 367zM248 764q0 -192 120.5 -322.5t321.5 -130.5q200 0 322.5 130.5t122.5 322.5q0 125 -53.5 226.5t-156 162.5t-235.5 61q-201 0 -321.5 -129t-120.5 -321z" />
<glyph unicode="&#xa5;" horiz-adv-x="1443" d="M124 1452.5q3 7.5 15 7.5h101q17 0 24 -12l455 -643q6 -9 14.5 -9t14.5 9l454 643q7 12 25 12h98q12 0 15 -7.5t-3 -16.5l-534 -756q-8 -11 -8 -27v-18h297q16 0 16 -19v-65q0 -21 -16 -21h-297v-94h297q16 0 16 -18v-66q0 -18 -16 -18h-297v-314q0 -20 -21 -20h-78 q-20 0 -20 20v314h-283q-16 0 -16 18v66q0 18 16 18h283v94h-283q-16 0 -16 21v65q0 19 16 19h283v18q0 16 -8 27l-541 756q-6 9 -3 16.5z" />
<glyph unicode="&#xa9;" d="M205 731q0 -158 51 -294.5t141.5 -234t222 -153t287.5 -55.5q207 0 368 95t248 262.5t87 379.5t-87 379t-247.5 261.5t-368.5 94.5q-156 0 -287.5 -55t-222 -152.5t-141.5 -233.5t-51 -294zM285 731q2 291 175 473t449 182q274 0 446.5 -182.5t172.5 -472.5 q0 -291 -172.5 -474t-446.5 -183q-276 0 -449 182.5t-175 474.5zM485 731q0 192 121 323.5t307 131.5q59 0 113.5 -16.5t94 -42.5t66 -49.5t44.5 -47.5q8 -8 -2 -18l-39 -43q-8 -9 -19 2q-50 53 -80 73q-76 52 -178 52q-100 0 -177 -53t-115.5 -135t-38.5 -177 q0 -148 91 -256t240 -108q43 0 82.5 11t61.5 20.5t52.5 35t34.5 29.5t27 29q9 10 19 0l39 -43q12 -9 2 -19q-19 -24 -44 -46.5t-64.5 -49.5t-94.5 -43.5t-115 -16.5q-186 0 -307 132.5t-121 324.5z" />
<glyph unicode="&#xab;" horiz-adv-x="847" d="M147 580q-7 14 0 28l205 344q9 15 25 15h82q12 0 16 -7.5t-2 -17.5l-201 -334q-7 -14 0 -28l201 -342q6 -10 1.5 -17.5t-15.5 -7.5h-82q-17 0 -25 14zM395 580q-7 14 0 28l207 344q9 15 25 15h80q12 0 16 -7.5t-2 -17.5l-201 -334q-7 -14 0 -28l203 -342q5 -10 0 -17.5 t-16 -7.5h-80q-17 0 -25 14z" />
<glyph unicode="&#xac;" horiz-adv-x="1251" d="M205 750v69q0 21 20 21h862q9 0 15 -6t6 -15v-444q0 -9 -6 -15t-15 -6h-75q-9 0 -15 6t-6 15v334q0 20 -20 20h-746q-20 0 -20 21z" />
<glyph unicode="&#xad;" horiz-adv-x="1310" d="M246 616v70q0 21 20 21h881q20 0 20 -21v-70q0 -20 -20 -20h-881q-20 0 -20 20z" />
<glyph unicode="&#xae;" d="M205 731q0 -158 51 -294.5t141.5 -234t222 -153t287.5 -55.5q207 0 368 95t248 262.5t87 379.5t-87 379t-247.5 261.5t-368.5 94.5q-156 0 -287.5 -55t-222 -152.5t-141.5 -233.5t-51 -294zM285 731q2 291 175 473t449 182q274 0 446.5 -182.5t172.5 -472.5 q0 -291 -172.5 -474t-446.5 -183q-276 0 -449 182.5t-175 474.5zM637 326v809q0 12 10 12h287q127 0 205 -72t78 -196q0 -169 -154 -244q-11 -4 -2 -17l147 -290q4 -4 1 -8.5t-9 -4.5h-76q-8 0 -12 7l-143 280q-3 8 -13 8h-219q-10 0 -10 -10v-274q0 -11 -12 -11h-68 q-10 0 -10 11zM729 709q0 -11 12 -11h215q26 0 53.5 10t54.5 30t44.5 57t17.5 84q0 93 -55 136.5t-139 43.5h-191q-12 0 -12 -10v-340z" />
<glyph unicode="&#xb0;" horiz-adv-x="829" d="M82 1143q0 133 95 228t229 95t227.5 -93.5t93.5 -229.5q0 -134 -93 -228t-228 -94q-134 0 -229 94.5t-95 227.5zM174 1143q0 -93 62.5 -163.5t169.5 -70.5q105 0 167 70.5t62 163.5t-62.5 164t-166.5 71q-106 0 -169 -71t-63 -164z" />
<glyph unicode="&#xb1;" horiz-adv-x="1193" d="M205 684v70q0 20 20 20h324q20 0 20 21v327q0 9 6 15t15 6h76q20 0 20 -21v-327q0 -9 6 -15t15 -6h323q21 0 21 -20v-70q0 -20 -21 -20h-323q-9 0 -15 -6t-6 -15v-272h344q19 0 19 -21v-71q0 -21 -19 -21h-805q-8 0 -13 6t-5 15v71q0 9 5 15t13 6h344v272q0 21 -20 21 h-324q-20 0 -20 20z" />
<glyph unicode="&#xb7;" horiz-adv-x="784" d="M369 643q0 27 19 46.5t46 19.5q26 0 45 -20t19 -46t-19 -45.5t-45 -19.5q-27 0 -46 19t-19 46z" />
<glyph unicode="&#xbb;" horiz-adv-x="847" d="M145 220.5q-6 7.5 0 17.5l203 342q7 14 0 28l-201 334q-6 10 -1.5 17.5t16.5 7.5h80q15 0 24 -15l207 -344q7 -14 0 -28l-207 -353q-8 -14 -24 -14h-80q-11 0 -17 7.5zM393.5 959.5q4.5 7.5 16.5 7.5h82q15 0 24 -15l205 -344q7 -14 0 -28l-205 -353q-8 -14 -24 -14h-82 q-11 0 -16 7.5t1 17.5l203 342q7 14 0 28l-203 334q-6 10 -1.5 17.5z" />
<glyph unicode="&#xbf;" horiz-adv-x="1114" d="M143 -37q0 86 27.5 149t70 99.5t94 66t101 60.5t88.5 70t59 106.5t11 159.5q-1 9 5 14.5t15 5.5h70q18 0 21 -20q9 -102 -10.5 -179t-58 -122.5t-87 -80t-99 -63.5t-92.5 -60.5t-69 -83t-27 -120.5q0 -52 17 -101t50.5 -90.5t92 -67t133.5 -25.5q76 0 137 23.5t95.5 55 t59.5 74t34 70t14 53.5q1 7 10 11.5t17 2.5l73 -12q20 -3 17 -22q-30 -156 -151 -261.5t-308 -105.5q-100 0 -180 34t-129 90.5t-75 125.5t-26 143zM586 1059q0 27 19 46t46 19t46.5 -19t19.5 -46q0 -26 -20 -45t-46 -19t-45.5 19t-19.5 45z" />
<glyph unicode="&#xc0;" horiz-adv-x="1560" d="M145 7.5q-4 7.5 0 17.5l596 1421q6 14 25 14h53q19 0 25 -14l592 -1421q4 -10 0 -17.5t-15 -7.5h-84q-18 0 -24 14l-137 332q-6 14 -23 14h-721q-18 0 -24 -14l-140 -332q-6 -14 -22 -14h-86q-11 0 -15 7.5zM468.5 478.5q4.5 -7.5 14.5 -7.5h619q10 0 14.5 7.5t-0.5 17.5 l-309 749q-5 11 -15 11t-14 -11l-309 -749q-5 -10 -0.5 -17.5zM512 1915q4 8 16 8h74q17 0 25 -14l196 -281q7 -9 1 -16.5t-17 -7.5h-59q-18 0 -25 12l-207 282q-8 9 -4 17z" />
<glyph unicode="&#xc1;" horiz-adv-x="1560" d="M145 7.5q-4 7.5 0 17.5l596 1421q6 14 25 14h53q19 0 25 -14l592 -1421q4 -10 0 -17.5t-15 -7.5h-84q-18 0 -24 14l-137 332q-6 14 -23 14h-721q-18 0 -24 -14l-140 -332q-6 -14 -22 -14h-86q-11 0 -15 7.5zM468.5 478.5q4.5 -7.5 14.5 -7.5h619q10 0 14.5 7.5t-0.5 17.5 l-309 749q-5 11 -15 11t-14 -11l-309 -749q-5 -10 -0.5 -17.5zM781.5 1611.5q-6.5 7.5 0.5 16.5l197 281q8 14 25 14h73q12 0 16 -8t-3 -17l-207 -282q-7 -12 -25 -12h-59q-11 0 -17.5 7.5z" />
<glyph unicode="&#xc2;" horiz-adv-x="1560" d="M145 7.5q-4 7.5 0 17.5l596 1421q6 14 25 14h53q19 0 25 -14l592 -1421q4 -10 0 -17.5t-15 -7.5h-84q-18 0 -24 14l-137 332q-6 14 -23 14h-721q-18 0 -24 -14l-140 -332q-6 -14 -22 -14h-86q-11 0 -15 7.5zM468.5 478.5q4.5 -7.5 14.5 -7.5h619q10 0 14.5 7.5t-0.5 17.5 l-309 749q-5 11 -15 11t-14 -11l-309 -749q-5 -10 -0.5 -17.5zM541 1655v55q0 15 16 25l221 125q14 7 29 0l221 -125q16 -10 16 -25v-55q0 -11 -7 -17t-17 0l-213 117q-15 7 -29 0l-213 -117q-10 -6 -17 0t-7 17z" />
<glyph unicode="&#xc3;" horiz-adv-x="1560" d="M145 7.5q-4 7.5 0 17.5l596 1421q6 14 25 14h53q19 0 25 -14l592 -1421q4 -10 0 -17.5t-15 -7.5h-84q-18 0 -24 14l-137 332q-6 14 -23 14h-721q-18 0 -24 -14l-140 -332q-6 -14 -22 -14h-86q-11 0 -15 7.5zM432 1710q31 64 88 110t127 46q41 0 79.5 -16.5t63.5 -36 t55 -36t56 -16.5q91 0 137 74q10 16 21 12l43 -16q14 -7 14 -10q-21 -67 -77.5 -114.5t-137.5 -47.5q-39 0 -75 16.5t-59.5 35.5t-55.5 35.5t-64 16.5q-42 0 -78.5 -22t-58.5 -55q-10 -13 -21 -11l-45 17q-18 7 -12 18zM468.5 478.5q4.5 -7.5 14.5 -7.5h619q10 0 14.5 7.5 t-0.5 17.5l-309 749q-5 11 -15 11t-14 -11l-309 -749q-5 -10 -0.5 -17.5z" />
<glyph unicode="&#xc4;" horiz-adv-x="1560" d="M145 7.5q-4 7.5 0 17.5l596 1421q6 14 25 14h53q19 0 25 -14l592 -1421q4 -10 0 -17.5t-15 -7.5h-84q-18 0 -24 14l-137 332q-6 14 -23 14h-721q-18 0 -24 -14l-140 -332q-6 -14 -22 -14h-86q-11 0 -15 7.5zM468.5 478.5q4.5 -7.5 14.5 -7.5h619q10 0 14.5 7.5t-0.5 17.5 l-309 749q-5 11 -15 11t-14 -11l-309 -749q-5 -10 -0.5 -17.5zM561 1798q0 32 22 54t54 22q31 0 53.5 -22t22.5 -54q0 -31 -22.5 -53.5t-53.5 -22.5q-32 0 -54 22.5t-22 53.5zM889 1798q0 32 22 54t54 22q31 0 53 -22t22 -54q0 -31 -22 -53.5t-53 -22.5q-32 0 -54 22.5 t-22 53.5z" />
<glyph unicode="&#xc5;" horiz-adv-x="1560" d="M145 7.5q-4 7.5 0 17.5l596 1421q6 14 25 14h53q19 0 25 -14l592 -1421q4 -10 0 -17.5t-15 -7.5h-84q-18 0 -24 14l-137 332q-6 14 -23 14h-721q-18 0 -24 -14l-140 -332q-6 -14 -22 -14h-86q-11 0 -15 7.5zM468.5 478.5q4.5 -7.5 14.5 -7.5h619q10 0 14.5 7.5t-0.5 17.5 l-309 749q-5 11 -15 11t-14 -11l-309 -749q-5 -10 -0.5 -17.5zM639 1776q0 64 44.5 108.5t109.5 44.5q63 0 108 -44.5t45 -108.5q0 -63 -45 -108.5t-108 -45.5q-64 0 -109 45.5t-45 108.5zM707 1776q0 -35 24.5 -60.5t61.5 -25.5t61.5 25.5t24.5 60.5q0 36 -24 61t-62 25 t-62 -25t-24 -61z" />
<glyph unicode="&#xc6;" horiz-adv-x="2142" d="M144.5 8q-3.5 8 2.5 17l957 1423q7 12 24 12h830q20 0 20 -20v-70q0 -20 -20 -20h-660q-20 0 -20 -21v-545q0 -20 20 -20h471q9 0 15 -6t6 -15v-69q0 -9 -6 -15t-15 -6h-471q-20 0 -20 -20v-502q0 -20 20 -20h680q9 0 15 -6t6 -15v-70q0 -20 -21 -20h-796q-21 0 -21 20 v320q0 20 -20 20h-609q-14 0 -24 -12l-225 -336q-10 -12 -25 -12h-98q-12 0 -15.5 8zM603 479.5q4 -8.5 15 -8.5h523q20 0 20 21v798q0 14 -8.5 16t-15.5 -10l-533 -800q-5 -8 -1 -16.5z" />
<glyph unicode="&#xc7;" horiz-adv-x="1544" d="M205 733q0 199 90.5 367t253.5 268t362 100q143 0 269 -53t215 -145q13 -16 0 -29l-43 -47q-14 -14 -29 0q-60 70 -165 117t-247 47q-120 0 -229 -49t-187.5 -132.5t-124.5 -199.5t-46 -244t46 -244.5t124.5 -201t187.5 -134t229 -49.5q142 0 247 47t165 117q15 14 29 0 l43 -47q12 -12 0 -28q-90 -97 -204 -148t-276 -51l-20 -66q-3 -9 1 -14t13 -4q86 12 145.5 -34t59.5 -130q0 -80 -60.5 -129t-158.5 -49q-87 0 -152 55q-10 7 -10 19l2 36q0 8 6 13.5t13 1.5q2 -1 11.5 -6.5t13.5 -7.5t13.5 -7t15.5 -7t16 -6t18.5 -6t18.5 -4.5t20.5 -3.5 t21.5 -1q47 0 86 26t39 78q0 47 -34 73.5t-83 26.5q-73 0 -125 -26q-10 -4 -14.5 0.5t-1.5 13.5l53 164q-133 16 -248 80.5t-196 162t-127.5 225t-46.5 265.5z" />
<glyph unicode="&#xc8;" horiz-adv-x="1114" d="M184 20v1420q0 20 21 20h725q20 0 20 -20v-70q0 -20 -20 -20h-606q-9 0 -15 -6t-6 -15v-543q0 -20 21 -20h424q20 0 20 -21v-71q0 -21 -20 -21h-424q-21 0 -21 -20v-502q0 -20 21 -20h626q9 0 15 -6t6 -15v-70q0 -20 -21 -20h-745q-21 0 -21 20zM295 1915q4 8 16 8h74 q17 0 25 -14l196 -281q7 -9 1 -16.5t-17 -7.5h-60q-17 0 -24 12l-207 282q-8 9 -4 17z" />
<glyph unicode="&#xc9;" horiz-adv-x="1114" d="M184 20v1420q0 20 21 20h725q20 0 20 -20v-70q0 -20 -20 -20h-606q-9 0 -15 -6t-6 -15v-543q0 -20 21 -20h424q20 0 20 -21v-71q0 -21 -20 -21h-424q-21 0 -21 -20v-502q0 -20 21 -20h626q9 0 15 -6t6 -15v-70q0 -20 -21 -20h-745q-21 0 -21 20zM562.5 1611.5 q-6.5 7.5 0.5 16.5l197 281q8 14 24 14h74q12 0 16 -8t-4 -17l-206 -282q-7 -12 -25 -12h-59q-11 0 -17.5 7.5z" />
<glyph unicode="&#xca;" horiz-adv-x="1114" d="M184 20v1420q0 20 21 20h725q20 0 20 -20v-70q0 -20 -20 -20h-606q-9 0 -15 -6t-6 -15v-543q0 -20 21 -20h424q20 0 20 -21v-71q0 -21 -20 -21h-424q-21 0 -21 -20v-502q0 -20 21 -20h626q9 0 15 -6t6 -15v-70q0 -20 -21 -20h-745q-21 0 -21 20zM322 1655v55q0 15 16 25 l221 125q15 7 29 0l221 -125q16 -10 16 -25v-55q0 -11 -7 -17t-17 0l-213 117q-14 7 -29 0l-213 -117q-10 -6 -17 0t-7 17z" />
<glyph unicode="&#xcb;" horiz-adv-x="1114" d="M184 20v1420q0 20 21 20h725q20 0 20 -20v-70q0 -20 -20 -20h-606q-9 0 -15 -6t-6 -15v-543q0 -20 21 -20h424q20 0 20 -21v-71q0 -21 -20 -21h-424q-21 0 -21 -20v-502q0 -20 21 -20h626q9 0 15 -6t6 -15v-70q0 -20 -21 -20h-745q-21 0 -21 20zM342 1798q0 32 22 54 t54 22q31 0 53.5 -22t22.5 -54q0 -31 -22.5 -53.5t-53.5 -22.5q-32 0 -54 22.5t-22 53.5zM670 1798q0 32 21.5 54t53.5 22q31 0 53.5 -22t22.5 -54q0 -31 -22.5 -53.5t-53.5 -22.5q-32 0 -53.5 22.5t-21.5 53.5z" />
<glyph unicode="&#xcc;" horiz-adv-x="706" d="M88 1915q4 8 16 8h74q17 0 25 -14l196 -281q7 -9 1 -16.5t-17 -7.5h-59q-18 0 -25 12l-207 282q-8 9 -4 17zM184 20v70q0 9 6 15t15 6h90q20 0 20 20v1198q0 21 -20 21h-90q-21 0 -21 20v70q0 20 21 20h338q20 0 20 -20v-70q0 -20 -20 -20h-90q-9 0 -15 -6t-6 -15v-1198 q0 -20 21 -20h90q20 0 20 -21v-70q0 -20 -20 -20h-338q-21 0 -21 20z" />
<glyph unicode="&#xcd;" horiz-adv-x="706" d="M184 20v70q0 9 6 15t15 6h90q20 0 20 20v1198q0 21 -20 21h-90q-21 0 -21 20v70q0 20 21 20h338q20 0 20 -20v-70q0 -20 -20 -20h-90q-9 0 -15 -6t-6 -15v-1198q0 -20 21 -20h90q20 0 20 -21v-70q0 -20 -20 -20h-338q-21 0 -21 20zM357.5 1611.5q-6.5 7.5 0.5 16.5 l197 281q8 14 25 14h73q12 0 16 -8t-3 -17l-207 -282q-7 -12 -25 -12h-59q-11 0 -17.5 7.5z" />
<glyph unicode="&#xce;" horiz-adv-x="706" d="M115 1655v55q0 15 16 25l221 125q14 7 29 0l221 -125q16 -10 16 -25v-55q0 -11 -7 -17t-17 0l-213 117q-15 7 -29 0l-213 -117q-10 -6 -17 0t-7 17zM184 20v70q0 9 6 15t15 6h90q20 0 20 20v1198q0 21 -20 21h-90q-21 0 -21 20v70q0 20 21 20h338q20 0 20 -20v-70 q0 -20 -20 -20h-90q-9 0 -15 -6t-6 -15v-1198q0 -20 21 -20h90q20 0 20 -21v-70q0 -20 -20 -20h-338q-21 0 -21 20z" />
<glyph unicode="&#xcf;" horiz-adv-x="706" d="M137 1798q0 32 22 54t54 22q31 0 53.5 -22t22.5 -54q0 -31 -22.5 -53.5t-53.5 -22.5q-32 0 -54 22.5t-22 53.5zM184 20v70q0 9 6 15t15 6h90q20 0 20 20v1198q0 21 -20 21h-90q-21 0 -21 20v70q0 20 21 20h338q20 0 20 -20v-70q0 -20 -20 -20h-90q-9 0 -15 -6t-6 -15 v-1198q0 -20 21 -20h90q20 0 20 -21v-70q0 -20 -20 -20h-338q-21 0 -21 20zM465 1798q0 32 22 54t54 22q31 0 53 -22t22 -54q0 -31 -22 -53.5t-53 -22.5q-32 0 -54 22.5t-22 53.5z" />
<glyph unicode="&#xd0;" horiz-adv-x="1890" d="M215 666v69q0 9 6 15t15 6h262v684q0 20 20 20h490q156 0 296 -56t242 -152.5t161.5 -232.5t59.5 -290q0 -153 -59.5 -289t-161.5 -232t-242 -152t-296 -56h-490q-20 0 -20 20v625h-262q-9 0 -15 6t-6 15zM616 131q0 -20 21 -20h373q120 0 225 36.5t179.5 98t128.5 141 t80 167t26 175.5t-26 176t-80 168t-128.5 142t-179.5 98.5t-225 36.5h-373q-9 0 -15 -6t-6 -15v-573h500q9 0 15 -6t6 -15v-69q0 -9 -6 -15t-15 -6h-500v-514z" />
<glyph unicode="&#xd1;" horiz-adv-x="1458" d="M205 20v1420q0 20 20 20h60q15 0 24 -12l865 -1194q10 -12 17 -8.5t7 18.5v1176q0 20 21 20h75q21 0 21 -20v-1420q0 -20 -21 -20h-59q-16 0 -25 12l-862 1196q-10 11 -17 7.5t-7 -17.5v-1178q0 -20 -21 -20h-78q-20 0 -20 20zM426 1710q31 64 88 110t127 46 q41 0 79.5 -16.5t63.5 -36t55 -36t56 -16.5q91 0 137 74q10 16 21 12l43 -16q14 -7 14 -10q-21 -67 -77.5 -114.5t-137.5 -47.5q-39 0 -75 16.5t-59.5 35.5t-55.5 35.5t-64 16.5q-42 0 -78.5 -22t-58.5 -55q-10 -13 -21 -11l-45 17q-17 7 -12 18z" />
<glyph unicode="&#xd2;" d="M205 731q0 157 51 292.5t141.5 233.5t222 153.5t287.5 55.5q207 0 368 -95.5t248 -262.5t87 -377t-87 -377.5t-248 -263.5t-368 -96q-155 0 -287 56t-222.5 154t-141.5 234t-51 293zM324 731q0 -277 161 -452t422 -175t422.5 175t161.5 452t-161.5 451t-422.5 174 t-422 -174t-161 -451zM629.5 1921.5q3.5 7.5 15.5 7.5h74q16 0 24 -14l197 -281q7 -9 1 -16.5t-17 -7.5h-60q-17 0 -24 12l-207 283q-7 9 -3.5 16.5z" />
<glyph unicode="&#xd3;" d="M205 731q0 157 51 292.5t141.5 233.5t222 153.5t287.5 55.5q207 0 368 -95.5t248 -262.5t87 -377t-87 -377.5t-248 -263.5t-368 -96q-155 0 -287 56t-222.5 154t-141.5 234t-51 293zM324 731q0 -277 161 -452t422 -175t422.5 175t161.5 452t-161.5 451t-422.5 174 t-422 -174t-161 -451zM898 1617.5q-6 7.5 1 16.5l197 281q8 14 24 14h74q12 0 16 -7.5t-4 -16.5l-207 -283q-7 -12 -24 -12h-60q-11 0 -17 7.5z" />
<glyph unicode="&#xd4;" d="M205 731q0 157 51 292.5t141.5 233.5t222 153.5t287.5 55.5q207 0 368 -95.5t248 -262.5t87 -377t-87 -377.5t-248 -263.5t-368 -96q-155 0 -287 56t-222.5 154t-141.5 234t-51 293zM324 731q0 -277 161 -452t422 -175t422.5 175t161.5 452t-161.5 451t-422.5 174 t-422 -174t-161 -451zM655 1661v55q0 15 17 25l221 125q15 7 29 0l221 -125q16 -10 16 -25v-55q0 -11 -6.5 -16t-17.5 0l-213 116q-14 7 -29 0l-213 -116q-10 -5 -17.5 0t-7.5 16z" />
<glyph unicode="&#xd5;" d="M205 731q0 157 51 292.5t141.5 233.5t222 153.5t287.5 55.5q207 0 368 -95.5t248 -262.5t87 -377t-87 -377.5t-248 -263.5t-368 -96q-155 0 -287 56t-222.5 154t-141.5 234t-51 293zM324 731q0 -277 161 -452t422 -175t422.5 175t161.5 452t-161.5 451t-422.5 174 t-422 -174t-161 -451zM549 1716q31 64 88 110t127 46q41 0 79.5 -16.5t63.5 -36t55 -36t56 -16.5q91 0 137 74q10 16 21 12l43 -16q14 -7 14 -10q-21 -67 -77.5 -114.5t-137.5 -47.5q-39 0 -75 16.5t-59.5 35.5t-55.5 35.5t-64 16.5q-42 0 -78.5 -22t-58.5 -55 q-10 -13 -21 -11l-45 17q-17 7 -12 18z" />
<glyph unicode="&#xd6;" d="M205 731q0 157 51 292.5t141.5 233.5t222 153.5t287.5 55.5q207 0 368 -95.5t248 -262.5t87 -377t-87 -377.5t-248 -263.5t-368 -96q-155 0 -287 56t-222.5 154t-141.5 234t-51 293zM324 731q0 -277 161 -452t422 -175t422.5 175t161.5 452t-161.5 451t-422.5 174 t-422 -174t-161 -451zM676 1804q0 32 22 54t54 22q31 0 53 -22t22 -54q0 -31 -22 -53t-53 -22q-32 0 -54 22t-22 53zM1004 1804q0 32 21.5 54t53.5 22q31 0 53.5 -22t22.5 -54q0 -31 -22.5 -53t-53.5 -22q-32 0 -53.5 22t-21.5 53z" />
<glyph unicode="&#xd7;" horiz-adv-x="1017" d="M248 403q-13 13 0 29l229 230q15 15 0 30l-227 228q-14 14 0 28l49 49q6 7 14.5 7t14.5 -7l229 -227q15 -14 29 0l231 231q6 6 14.5 6t14.5 -6l53 -55q17 -14 0 -28l-229 -232q-8 -6 -8 -14.5t8 -14.5l227 -227q12 -16 0 -31l-49 -49q-14 -14 -29 0l-229 230 q-14 14 -29 0l-229 -232q-16 -12 -31 0z" />
<glyph unicode="&#xd8;" d="M205 731q0 157 51 292.5t141.5 233.5t222 153.5t287.5 55.5q151 0 281 -51l53 113q6 14 23 14h57q11 0 14.5 -7t-0.5 -17l-67 -144q161 -93 251.5 -262t90.5 -381q0 -210 -87 -377.5t-248 -263.5t-368 -96q-144 0 -268 47l-51 -109q-6 -14 -23 -14h-57q-10 0 -14.5 7 t0.5 18l63 137q-165 91 -258.5 262.5t-93.5 388.5zM324 731q0 -185 74 -328.5t208 -220.5l533 1131q-104 43 -232 43q-261 0 -422 -174t-161 -451zM688 143q103 -39 219 -39q261 0 422.5 175t161.5 452q0 181 -71 322t-199 219z" />
<glyph unicode="&#xd9;" horiz-adv-x="1507" d="M205 629v811q0 20 20 20h78q21 0 21 -20v-811q0 -261 116.5 -393t345.5 -132q225 0 342.5 132.5t118.5 392.5v811q0 20 21 20h75q21 0 21 -20v-811q0 -63 -6.5 -121.5t-24 -123.5t-45 -120t-72.5 -106t-104 -86.5t-142.5 -56.5t-183.5 -21q-101 0 -185 21t-143 56.5 t-104.5 86.5t-73 106t-45 120t-24 123.5t-6.5 121.5zM508 1915q4 8 16 8h74q17 0 25 -14l196 -281q7 -9 1 -16.5t-17 -7.5h-60q-17 0 -24 12l-207 282q-8 9 -4 17z" />
<glyph unicode="&#xda;" horiz-adv-x="1507" d="M205 629v811q0 20 20 20h78q21 0 21 -20v-811q0 -261 116.5 -393t345.5 -132q225 0 342.5 132.5t118.5 392.5v811q0 20 21 20h75q21 0 21 -20v-811q0 -63 -6.5 -121.5t-24 -123.5t-45 -120t-72.5 -106t-104 -86.5t-142.5 -56.5t-183.5 -21q-101 0 -185 21t-143 56.5 t-104.5 86.5t-73 106t-45 120t-24 123.5t-6.5 121.5zM777.5 1611.5q-6.5 7.5 0.5 16.5l197 281q8 14 24 14h74q12 0 16 -8t-4 -17l-206 -282q-7 -12 -25 -12h-59q-11 0 -17.5 7.5z" />
<glyph unicode="&#xdb;" horiz-adv-x="1507" d="M205 629v811q0 20 20 20h78q21 0 21 -20v-811q0 -261 116.5 -393t345.5 -132q225 0 342.5 132.5t118.5 392.5v811q0 20 21 20h75q21 0 21 -20v-811q0 -63 -6.5 -121.5t-24 -123.5t-45 -120t-72.5 -106t-104 -86.5t-142.5 -56.5t-183.5 -21q-101 0 -185 21t-143 56.5 t-104.5 86.5t-73 106t-45 120t-24 123.5t-6.5 121.5zM535 1655v55q0 15 16 25l221 125q14 7 29 0l221 -125q16 -10 16 -25v-55q0 -11 -7 -17t-17 0l-213 117q-15 7 -29 0l-213 -117q-10 -6 -17 0t-7 17z" />
<glyph unicode="&#xdc;" horiz-adv-x="1507" d="M205 629v811q0 20 20 20h78q21 0 21 -20v-811q0 -261 116.5 -393t345.5 -132q225 0 342.5 132.5t118.5 392.5v811q0 20 21 20h75q21 0 21 -20v-811q0 -63 -6.5 -121.5t-24 -123.5t-45 -120t-72.5 -106t-104 -86.5t-142.5 -56.5t-183.5 -21q-101 0 -185 21t-143 56.5 t-104.5 86.5t-73 106t-45 120t-24 123.5t-6.5 121.5zM557 1798q0 32 22 54t54 22q31 0 53.5 -22t22.5 -54q0 -31 -22.5 -53.5t-53.5 -22.5q-32 0 -54 22.5t-22 53.5zM885 1798q0 32 22 54t54 22q31 0 53 -22t22 -54q0 -31 -22 -53.5t-53 -22.5q-32 0 -54 22.5t-22 53.5z" />
<glyph unicode="&#xdd;" horiz-adv-x="1443" d="M124 1452.5q3 7.5 15 7.5h101q17 0 24 -12l455 -643q6 -9 14.5 -9t14.5 9l454 643q7 12 25 12h98q12 0 15 -7.5t-3 -16.5l-534 -756q-8 -11 -8 -27v-633q0 -20 -21 -20h-78q-20 0 -20 20v633q0 16 -8 27l-541 756q-6 9 -3 16.5zM712 1611.5q-6 7.5 1 16.5l196 281 q8 14 25 14h74q12 0 16 -8t-4 -17l-207 -282q-7 -12 -25 -12h-59q-11 0 -17 7.5z" />
<glyph unicode="&#xde;" horiz-adv-x="1411" d="M205 20v1502q0 20 20 20h78q21 0 21 -20v-158q0 -21 20 -21h363q256 0 408.5 -127t152.5 -366t-153 -366.5t-408 -127.5h-363q-20 0 -20 -20v-316q0 -20 -21 -20h-78q-20 0 -20 20zM324 489q0 -20 20 -20h342q465 0 465 381q0 383 -465 383h-342q-20 0 -20 -21v-723z" />
<glyph unicode="&#xdf;" horiz-adv-x="1314" d="M205 20v973q0 230 101.5 351.5t307.5 121.5q149 0 258 -89.5t109 -221.5q0 -71 -22.5 -124t-54.5 -84.5t-63.5 -58t-54 -60.5t-22.5 -76q0 -36 22.5 -64.5t58.5 -49t79.5 -41t86.5 -46t79 -58t58.5 -84.5t22.5 -118q0 -147 -85 -222t-232 -75q-153 0 -328 96 q-20 13 -14 27l16 69q11 23 25 17q176 -90 276 -90q28 0 54 3.5t59 15t56.5 30t40 53t16.5 80.5q0 55 -22 97.5t-57.5 69t-78 48t-85 42.5t-78 45.5t-57.5 64t-22 90.5q0 53 21.5 94t51.5 69t60.5 56.5t52 72.5t21.5 101q0 33 -16 68t-47 68t-84.5 54t-120.5 21 q-53 0 -95.5 -15t-70 -38t-48 -57.5t-31 -65.5t-16.5 -70t-7.5 -64t-1.5 -53v-973q0 -20 -21 -20h-78q-20 0 -20 20z" />
<glyph unicode="&#xe0;" horiz-adv-x="1069" d="M123 297q0 101 50.5 176t146.5 121.5t227 69.5t299 24q16 0 16 19q0 70 -15 122t-39.5 82.5t-61.5 49t-74 24.5t-84 6q-79 0 -180 -31t-156 -63q-14 -9 -21 8l-18 51q-6 10 6 19q58 39 172 74.5t221 35.5q74 0 131 -17t94 -41t63 -67.5t39 -77.5t19.5 -92t7.5 -90.5 t1 -91.5v-592q0 -16 -17 -16h-71q-17 0 -17 16v103q0 10 -6 12t-12 -4q-56 -55 -167.5 -94t-207.5 -39q-170 0 -258 86.5t-88 216.5zM231 301q0 -100 71.5 -158.5t189.5 -58.5q77 0 175.5 33.5t186.5 109.5q8 6 8 19v340q0 16 -16 16q-86 0 -164 -7t-163 -27.5t-146.5 -52.5 t-101.5 -87t-40 -127zM308 1540.5q4 7.5 16 7.5h73q17 0 25 -14l196 -281q7 -9 1 -16.5t-17 -7.5h-59q-18 0 -25 12l-207 283q-7 9 -3 16.5z" />
<glyph unicode="&#xe1;" horiz-adv-x="1069" d="M123 297q0 101 50.5 176t146.5 121.5t227 69.5t299 24q16 0 16 19q0 70 -15 122t-39.5 82.5t-61.5 49t-74 24.5t-84 6q-79 0 -180 -31t-156 -63q-14 -9 -21 8l-18 51q-6 10 6 19q58 39 172 74.5t221 35.5q74 0 131 -17t94 -41t63 -67.5t39 -77.5t19.5 -92t7.5 -90.5 t1 -91.5v-592q0 -16 -17 -16h-71q-17 0 -17 16v103q0 10 -6 12t-12 -4q-56 -55 -167.5 -94t-207.5 -39q-170 0 -258 86.5t-88 216.5zM231 301q0 -100 71.5 -158.5t189.5 -58.5q77 0 175.5 33.5t186.5 109.5q8 6 8 19v340q0 16 -16 16q-86 0 -164 -7t-163 -27.5t-146.5 -52.5 t-101.5 -87t-40 -127zM577 1236.5q-6 7.5 1 16.5l196 281q8 14 25 14h73q12 0 16 -7.5t-3 -16.5l-207 -283q-7 -12 -25 -12h-59q-11 0 -17 7.5z" />
<glyph unicode="&#xe2;" horiz-adv-x="1069" d="M123 297q0 101 50.5 176t146.5 121.5t227 69.5t299 24q16 0 16 19q0 70 -15 122t-39.5 82.5t-61.5 49t-74 24.5t-84 6q-79 0 -180 -31t-156 -63q-14 -9 -21 8l-18 51q-6 10 6 19q58 39 172 74.5t221 35.5q74 0 131 -17t94 -41t63 -67.5t39 -77.5t19.5 -92t7.5 -90.5 t1 -91.5v-592q0 -16 -17 -16h-71q-17 0 -17 16v103q0 10 -6 12t-12 -4q-56 -55 -167.5 -94t-207.5 -39q-170 0 -258 86.5t-88 216.5zM231 301q0 -100 71.5 -158.5t189.5 -58.5q77 0 175.5 33.5t186.5 109.5q8 6 8 19v340q0 16 -16 16q-86 0 -164 -7t-163 -27.5t-146.5 -52.5 t-101.5 -87t-40 -127zM336 1280v55q0 15 16 25l221 125q15 7 29 0l221 -125q17 -10 17 -25v-55q0 -11 -7 -16t-18 0l-213 116q-14 7 -29 0l-213 -116q-10 -5 -17 0t-7 16z" />
<glyph unicode="&#xe3;" horiz-adv-x="1069" d="M123 297q0 101 50.5 176t146.5 121.5t227 69.5t299 24q16 0 16 19q0 70 -15 122t-39.5 82.5t-61.5 49t-74 24.5t-84 6q-79 0 -180 -31t-156 -63q-14 -9 -21 8l-18 51q-6 10 6 19q58 39 172 74.5t221 35.5q74 0 131 -17t94 -41t63 -67.5t39 -77.5t19.5 -92t7.5 -90.5 t1 -91.5v-592q0 -16 -17 -16h-71q-17 0 -17 16v103q0 10 -6 12t-12 -4q-56 -55 -167.5 -94t-207.5 -39q-170 0 -258 86.5t-88 216.5zM229 1335q31 64 88 110t127 46q41 0 79.5 -16.5t63.5 -36t55 -36t56 -16.5q92 0 138 74q10 17 20 13l43 -17q14 -7 14 -10 q-21 -67 -77.5 -114.5t-137.5 -47.5q-39 0 -75 16.5t-59.5 36t-55.5 36t-64 16.5q-42 0 -78.5 -22.5t-58.5 -55.5q-10 -13 -20 -11l-45 17q-18 7 -13 18zM231 301q0 -100 71.5 -158.5t189.5 -58.5q77 0 175.5 33.5t186.5 109.5q8 6 8 19v340q0 16 -16 16q-86 0 -164 -7 t-163 -27.5t-146.5 -52.5t-101.5 -87t-40 -127z" />
<glyph unicode="&#xe4;" horiz-adv-x="1069" d="M123 297q0 101 50.5 176t146.5 121.5t227 69.5t299 24q16 0 16 19q0 70 -15 122t-39.5 82.5t-61.5 49t-74 24.5t-84 6q-79 0 -180 -31t-156 -63q-14 -9 -21 8l-18 51q-6 10 6 19q58 39 172 74.5t221 35.5q74 0 131 -17t94 -41t63 -67.5t39 -77.5t19.5 -92t7.5 -90.5 t1 -91.5v-592q0 -16 -17 -16h-71q-17 0 -17 16v103q0 10 -6 12t-12 -4q-56 -55 -167.5 -94t-207.5 -39q-170 0 -258 86.5t-88 216.5zM231 301q0 -100 71.5 -158.5t189.5 -58.5q77 0 175.5 33.5t186.5 109.5q8 6 8 19v340q0 16 -16 16q-86 0 -164 -7t-163 -27.5t-146.5 -52.5 t-101.5 -87t-40 -127zM356 1423q0 32 22 54t54 22q31 0 53.5 -22t22.5 -54q0 -31 -22.5 -53t-53.5 -22q-32 0 -54 22t-22 53zM684 1423q0 32 22 54t54 22q31 0 53.5 -22t22.5 -54q0 -31 -22.5 -53t-53.5 -22q-32 0 -54 22t-22 53z" />
<glyph unicode="&#xe5;" horiz-adv-x="1069" d="M123 297q0 101 50.5 176t146.5 121.5t227 69.5t299 24q16 0 16 19q0 70 -15 122t-39.5 82.5t-61.5 49t-74 24.5t-84 6q-79 0 -180 -31t-156 -63q-14 -9 -21 8l-18 51q-6 10 6 19q58 39 172 74.5t221 35.5q74 0 131 -17t94 -41t63 -67.5t39 -77.5t19.5 -92t7.5 -90.5 t1 -91.5v-592q0 -16 -17 -16h-71q-17 0 -17 16v103q0 10 -6 12t-12 -4q-56 -55 -167.5 -94t-207.5 -39q-170 0 -258 86.5t-88 216.5zM231 301q0 -100 71.5 -158.5t189.5 -58.5q77 0 175.5 33.5t186.5 109.5q8 6 8 19v340q0 16 -16 16q-86 0 -164 -7t-163 -27.5t-146.5 -52.5 t-101.5 -87t-40 -127zM434 1401q0 64 44.5 108.5t109.5 44.5q63 0 108 -44.5t45 -108.5q0 -63 -45 -108.5t-108 -45.5q-64 0 -109 45.5t-45 108.5zM502 1401q0 -35 24.5 -60.5t61.5 -25.5t61.5 25.5t24.5 60.5q0 36 -24 61t-62 25t-62 -25t-24 -61z" />
<glyph unicode="&#xe6;" horiz-adv-x="1945" d="M123 297q0 101 50.5 176t146.5 121.5t227 69.5t299 24q16 0 16 19q0 70 -15 122t-39.5 82.5t-61.5 49t-74 24.5t-84 6q-79 0 -180 -31t-156 -63q-14 -9 -21 8l-18 51q-6 10 6 19q58 39 172 74.5t221 35.5q154 0 231 -63t105 -172q66 109 175 172t245 63 q103 0 186.5 -33.5t136.5 -87t88.5 -125.5t50.5 -144.5t15 -147.5v-33q0 -16 -16 -16h-840q-16 0 -16 -17q0 -36 9 -80.5t36 -101.5t68 -102.5t113.5 -77t164.5 -31.5q63 0 120 18t93.5 42.5t68.5 57t46 52t24 37.5q7 14 21 10l69 -10q19 -4 13 -19q-54 -123 -170 -202.5 t-281 -79.5q-265 0 -401 190v-168q0 -16 -17 -16h-71q-17 0 -17 16v103q0 10 -6 12t-12 -4q-56 -55 -167.5 -94t-207.5 -39q-170 0 -258 86.5t-88 216.5zM231 301q0 -100 71.5 -158.5t189.5 -58.5q77 0 175.5 33.5t186.5 109.5q8 6 8 19v340q0 16 -16 16q-86 0 -164 -7 t-163 -27.5t-146.5 -52.5t-101.5 -87t-40 -127zM975 602q0 -16 16 -16h729q17 0 17 14q0 46 -10 95t-36 104.5t-66 98t-106.5 70.5t-150.5 27q-78 -1 -144.5 -27.5t-111 -68t-76.5 -94t-46.5 -104.5t-14.5 -99z" />
<glyph unicode="&#xe7;" horiz-adv-x="1112" d="M123 541q0 150 64 274t182.5 197t267.5 73q73 0 140 -20.5t114.5 -53t80 -63.5t52.5 -61q10 -13 -2 -23l-45 -39q-14 -11 -23 2q-114 164 -313 164q-122 0 -217.5 -63.5t-145 -165.5t-49.5 -221t49.5 -221.5t145 -167t217.5 -64.5q196 0 313 164q10 12 23 2l45 -39 q12 -9 2 -22q-21 -30 -52.5 -60.5t-79.5 -63.5t-115 -54t-140 -21h-6l-21 -66q-3 -9 1.5 -14.5t13.5 -3.5q86 12 145 -34t59 -130q0 -80 -60.5 -129t-158.5 -49q-86 0 -151 55q-10 7 -10 19l2 36q0 8 5.5 13.5t12.5 1.5q2 -1 11.5 -6.5t13.5 -7.5t13.5 -7t15.5 -7t16 -6 t18.5 -6t18.5 -4.5t20.5 -3.5t21.5 -1q47 0 86 26t39 78q0 47 -33.5 73.5t-82.5 26.5q-73 0 -125 -26q-10 -4 -15 0.5t-2 13.5l56 166q-188 35 -303 185t-115 354z" />
<glyph unicode="&#xe8;" horiz-adv-x="1185" d="M123 541q0 150 62 274t177.5 197t262.5 73q103 0 186.5 -33.5t137 -87t89.5 -125.5t51 -144.5t15 -147.5v-33q0 -16 -17 -16h-841q-17 0 -17 -17q0 -29 7 -65t22.5 -82t46 -88t72 -78.5t105.5 -58t141 -21.5q63 0 120 18t93 42t68 57t45.5 52t23.5 38q7 13 20 10l70 -10 q18 -3 12 -19q-51 -123 -167.5 -202.5t-282.5 -79.5q-99 0 -181 28t-141 77.5t-100 118t-60.5 150t-19.5 173.5zM231 602q0 -16 17 -16h729q16 0 16 14q0 46 -9.5 95t-35.5 104.5t-65.5 98t-106.5 70.5t-151 27q-77 -1 -143.5 -27.5t-111 -68t-76.5 -94t-47 -104.5t-16 -99z M338 1540.5q4 7.5 16 7.5h74q17 0 25 -14l196 -281q7 -9 1 -16.5t-17 -7.5h-60q-17 0 -24 12l-207 283q-8 9 -4 16.5z" />
<glyph unicode="&#xe9;" horiz-adv-x="1185" d="M123 541q0 150 62 274t177.5 197t262.5 73q103 0 186.5 -33.5t137 -87t89.5 -125.5t51 -144.5t15 -147.5v-33q0 -16 -17 -16h-841q-17 0 -17 -17q0 -29 7 -65t22.5 -82t46 -88t72 -78.5t105.5 -58t141 -21.5q63 0 120 18t93 42t68 57t45.5 52t23.5 38q7 13 20 10l70 -10 q18 -3 12 -19q-51 -123 -167.5 -202.5t-282.5 -79.5q-99 0 -181 28t-141 77.5t-100 118t-60.5 150t-19.5 173.5zM231 602q0 -16 17 -16h729q16 0 16 14q0 46 -9.5 95t-35.5 104.5t-65.5 98t-106.5 70.5t-151 27q-77 -1 -143.5 -27.5t-111 -68t-76.5 -94t-47 -104.5t-16 -99z M607.5 1236.5q-6.5 7.5 0.5 16.5l197 281q8 14 24 14h74q12 0 15.5 -7.5t-3.5 -16.5l-206 -283q-7 -12 -25 -12h-59q-11 0 -17.5 7.5z" />
<glyph unicode="&#xea;" horiz-adv-x="1185" d="M123 541q0 150 62 274t177.5 197t262.5 73q103 0 186.5 -33.5t137 -87t89.5 -125.5t51 -144.5t15 -147.5v-33q0 -16 -17 -16h-841q-17 0 -17 -17q0 -29 7 -65t22.5 -82t46 -88t72 -78.5t105.5 -58t141 -21.5q63 0 120 18t93 42t68 57t45.5 52t23.5 38q7 13 20 10l70 -10 q18 -3 12 -19q-51 -123 -167.5 -202.5t-282.5 -79.5q-99 0 -181 28t-141 77.5t-100 118t-60.5 150t-19.5 173.5zM231 602q0 -16 17 -16h729q16 0 16 14q0 46 -9.5 95t-35.5 104.5t-65.5 98t-106.5 70.5t-151 27q-77 -1 -143.5 -27.5t-111 -68t-76.5 -94t-47 -104.5t-16 -99z M367 1280v55q0 15 16 25l221 125q14 7 29 0l221 -125q16 -10 16 -25v-55q0 -11 -7 -16t-17 0l-213 116q-15 7 -29 0l-213 -116q-11 -5 -17.5 0t-6.5 16z" />
<glyph unicode="&#xeb;" horiz-adv-x="1185" d="M123 541q0 150 62 274t177.5 197t262.5 73q103 0 186.5 -33.5t137 -87t89.5 -125.5t51 -144.5t15 -147.5v-33q0 -16 -17 -16h-841q-17 0 -17 -17q0 -29 7 -65t22.5 -82t46 -88t72 -78.5t105.5 -58t141 -21.5q63 0 120 18t93 42t68 57t45.5 52t23.5 38q7 13 20 10l70 -10 q18 -3 12 -19q-51 -123 -167.5 -202.5t-282.5 -79.5q-99 0 -181 28t-141 77.5t-100 118t-60.5 150t-19.5 173.5zM231 602q0 -16 17 -16h729q16 0 16 14q0 46 -9.5 95t-35.5 104.5t-65.5 98t-106.5 70.5t-151 27q-77 -1 -143.5 -27.5t-111 -68t-76.5 -94t-47 -104.5t-16 -99z M387 1423q0 32 22 54t54 22q31 0 53.5 -22t22.5 -54q0 -31 -22.5 -53t-53.5 -22q-32 0 -54 22t-22 53zM715 1423q0 32 22 54t54 22q31 0 53 -22t22 -54q0 -31 -22 -53t-53 -22q-32 0 -54 22t-22 53z" />
<glyph unicode="&#xec;" horiz-adv-x="352" d="M-84 1534.5q4 7.5 16 7.5h74q17 0 25 -14l196 -281q7 -9 1 -16.5t-17 -7.5h-59q-18 0 -25 12l-207 283q-8 9 -4 16.5zM143 16v1047q0 16 17 16h73q17 0 17 -16v-1047q0 -16 -17 -16h-73q-17 0 -17 16z" />
<glyph unicode="&#xed;" horiz-adv-x="352" d="M143 16v1047q0 16 17 16h73q17 0 17 -16v-1047q0 -16 -17 -16h-73q-17 0 -17 16zM185.5 1230.5q-6.5 7.5 0.5 16.5l197 281q8 14 25 14h73q12 0 16 -7.5t-3 -16.5l-207 -283q-7 -12 -25 -12h-59q-11 0 -17.5 7.5z" />
<glyph unicode="&#xee;" horiz-adv-x="352" d="M-55 1274v55q0 15 16 25l221 125q14 7 29 0l221 -125q17 -10 17 -25v-55q0 -11 -7.5 -17t-17.5 0l-213 117q-15 7 -29 0l-213 -117q-10 -6 -17 0t-7 17zM143 16v1047q0 16 17 16h73q17 0 17 -16v-1047q0 -16 -17 -16h-73q-17 0 -17 16z" />
<glyph unicode="&#xef;" horiz-adv-x="352" d="M-35 1417q0 32 22 54t54 22q31 0 53.5 -22t22.5 -54q0 -31 -22.5 -53.5t-53.5 -22.5q-32 0 -54 22.5t-22 53.5zM143 16v1047q0 16 17 16h73q17 0 17 -16v-1047q0 -16 -17 -16h-73q-17 0 -17 16zM293 1417q0 32 22 54t54 22q31 0 53 -22t22 -54q0 -31 -22 -53.5t-53 -22.5 q-32 0 -54 22.5t-22 53.5z" />
<glyph unicode="&#xf0;" horiz-adv-x="1347" d="M184 500q0 98 35.5 187.5t99 157.5t160 108t211.5 40q76 0 143.5 -18t110 -41.5t78 -56t51.5 -53t27 -40.5q14 -21 14 7q0 170 -65.5 295.5t-178.5 205.5l-100 -129q-11 -14 -22 -14h-60q-11 0 -16 7.5t2 17.5l127 163q-171 95 -377 95q-18 0 -14 18l16 78q4 14 18 14 q230 0 426 -119l80 105q11 14 23 14h59q11 0 16.5 -7t-1.5 -17l-109 -140q132 -101 209.5 -257.5t77.5 -368.5v-187q0 -146 -42 -258.5t-115 -179t-164.5 -100t-198.5 -33.5q-120 0 -219.5 40.5t-164.5 110t-101 161t-36 194.5zM303 500q0 -122 59.5 -214t150 -137 t194.5 -45q185 0 293 111t108 279q0 121 -58 211.5t-149.5 134t-202.5 43.5q-171 0 -283 -104t-112 -279z" />
<glyph unicode="&#xf1;" horiz-adv-x="1198" d="M143 16v1047q0 16 17 16h73q17 0 17 -16v-158q0 -11 5 -13t13 7q53 71 162.5 128.5t233.5 57.5q72 0 133.5 -15.5t117.5 -52.5t95.5 -93t62.5 -143.5t23 -198.5v-566q0 -16 -17 -16h-71q-17 0 -17 16v547q0 428 -344 428q-123 0 -237 -70t-160 -182v-723q0 -16 -17 -16 h-73q-17 0 -17 16zM283 1335q31 64 88 110t127 46q41 0 79.5 -16.5t63.5 -36t55 -36t56 -16.5q91 0 137 74q10 17 20 13l43 -17q15 -8 15 -10q-21 -67 -77.5 -114.5t-137.5 -47.5q-39 0 -75 16.5t-59.5 36t-55.5 36t-64 16.5q-42 0 -79 -22.5t-59 -55.5q-10 -13 -20 -11 l-45 17q-17 7 -12 18z" />
<glyph unicode="&#xf2;" horiz-adv-x="1302" d="M123 541q0 150 68 274t194.5 197t286.5 73q159 0 285.5 -73t195 -197t68.5 -274t-68.5 -274.5t-195 -198.5t-285.5 -74q-160 0 -286.5 74t-194.5 198.5t-68 274.5zM229 541q0 -192 121 -322.5t322 -130.5q200 0 322 130.5t122 322.5q0 191 -122 320.5t-322 129.5 q-134 0 -236 -61t-154.5 -162.5t-52.5 -226.5zM392 1540.5q4 7.5 16 7.5h73q17 0 25 -14l196 -281q7 -9 1 -16.5t-17 -7.5h-59q-18 0 -25 12l-207 283q-7 9 -3 16.5z" />
<glyph unicode="&#xf3;" horiz-adv-x="1302" d="M123 541q0 150 68 274t194.5 197t286.5 73q159 0 285.5 -73t195 -197t68.5 -274t-68.5 -274.5t-195 -198.5t-285.5 -74q-160 0 -286.5 74t-194.5 198.5t-68 274.5zM229 541q0 -192 121 -322.5t322 -130.5q200 0 322 130.5t122 322.5q0 191 -122 320.5t-322 129.5 q-134 0 -236 -61t-154.5 -162.5t-52.5 -226.5zM658.5 1236.5q-6.5 7.5 0.5 16.5l197 281q8 14 25 14h73q12 0 16 -7.5t-3 -16.5l-207 -283q-7 -12 -25 -12h-59q-11 0 -17.5 7.5z" />
<glyph unicode="&#xf4;" horiz-adv-x="1302" d="M123 541q0 150 68 274t194.5 197t286.5 73q159 0 285.5 -73t195 -197t68.5 -274t-68.5 -274.5t-195 -198.5t-285.5 -74q-160 0 -286.5 74t-194.5 198.5t-68 274.5zM229 541q0 -192 121 -322.5t322 -130.5q200 0 322 130.5t122 322.5q0 191 -122 320.5t-322 129.5 q-134 0 -236 -61t-154.5 -162.5t-52.5 -226.5zM418 1280v55q0 15 16 25l221 125q15 7 29 0l221 -125q17 -10 17 -25v-55q0 -11 -7 -16t-18 0l-213 116q-14 7 -29 0l-213 -116q-10 -5 -17 0t-7 16z" />
<glyph unicode="&#xf5;" horiz-adv-x="1302" d="M123 541q0 150 68 274t194.5 197t286.5 73q159 0 285.5 -73t195 -197t68.5 -274t-68.5 -274.5t-195 -198.5t-285.5 -74q-160 0 -286.5 74t-194.5 198.5t-68 274.5zM229 541q0 -192 121 -322.5t322 -130.5q200 0 322 130.5t122 322.5q0 191 -122 320.5t-322 129.5 q-134 0 -236 -61t-154.5 -162.5t-52.5 -226.5zM311 1335q31 64 88 110t127 46q41 0 79.5 -16.5t63.5 -36t55 -36t56 -16.5q92 0 138 74q10 17 20 13l43 -17q14 -7 14 -10q-21 -67 -77.5 -114.5t-137.5 -47.5q-39 0 -75 16.5t-59.5 36t-55.5 36t-64 16.5q-42 0 -78.5 -22.5 t-58.5 -55.5q-10 -13 -20 -11l-45 17q-18 7 -13 18z" />
<glyph unicode="&#xf6;" horiz-adv-x="1302" d="M123 541q0 150 68 274t194.5 197t286.5 73q159 0 285.5 -73t195 -197t68.5 -274t-68.5 -274.5t-195 -198.5t-285.5 -74q-160 0 -286.5 74t-194.5 198.5t-68 274.5zM229 541q0 -192 121 -322.5t322 -130.5q200 0 322 130.5t122 322.5q0 191 -122 320.5t-322 129.5 q-134 0 -236 -61t-154.5 -162.5t-52.5 -226.5zM438 1423q0 32 22 54t54 22q31 0 53.5 -22t22.5 -54q0 -31 -22.5 -53t-53.5 -22q-32 0 -54 22t-22 53zM766 1423q0 32 22 54t54 22q31 0 53.5 -22t22.5 -54q0 -31 -22.5 -53t-53.5 -22q-32 0 -54 22t-22 53z" />
<glyph unicode="&#xf7;" horiz-adv-x="1310" d="M240 672v69q0 21 20 21h881q20 0 20 -21v-69q0 -21 -20 -21h-881q-20 0 -20 21zM629 342q0 32 22 54t54 22q31 0 53 -22t22 -54q0 -31 -22 -53.5t-53 -22.5q-32 0 -54 22.5t-22 53.5zM629 1073q0 31 22 53.5t54 22.5q31 0 53 -22.5t22 -53.5t-22 -53.5t-53 -22.5 q-32 0 -54 22.5t-22 53.5z" />
<glyph unicode="&#xf8;" horiz-adv-x="1296" d="M123 541q0 150 68 274t194.5 197t286.5 73q110 0 200 -34l46 96q6 14 22 14h43q11 0 14.5 -6.5t-0.5 -17.5l-55 -117q130 -69 204.5 -196.5t74.5 -282.5q0 -150 -68.5 -274.5t-195 -198.5t-285.5 -74q-102 0 -199 33l-45 -95q-6 -14 -22 -14h-44q-10 0 -14.5 7t0.5 18 l53 116q-129 69 -203.5 197.5t-74.5 284.5zM229 541q0 -127 56 -232.5t157 -163.5l389 822q-73 24 -159 24q-134 0 -236 -61t-154.5 -162.5t-52.5 -226.5zM512 113q77 -25 160 -25q200 0 322 130.5t122 322.5q0 127 -56.5 231t-158.5 162z" />
<glyph unicode="&#xf9;" horiz-adv-x="1198" d="M143 498v565q0 16 17 16h73q17 0 17 -16v-547q0 -428 344 -428q122 0 236.5 70.5t160.5 181.5v723q0 16 17 16h71q17 0 17 -16v-1047q0 -16 -17 -16h-71q-17 0 -17 16v158q0 11 -5.5 13t-12.5 -7q-55 -70 -164.5 -128t-233.5 -58q-71 0 -133 15.5t-118 52.5t-95.5 93.5 t-62.5 144t-23 198.5zM344 1534.5q4 7.5 16 7.5h74q17 0 25 -14l196 -281q7 -9 1 -16.5t-17 -7.5h-59q-18 0 -25 12l-207 283q-8 9 -4 16.5z" />
<glyph unicode="&#xfa;" horiz-adv-x="1198" d="M143 498v565q0 16 17 16h73q17 0 17 -16v-547q0 -428 344 -428q122 0 236.5 70.5t160.5 181.5v723q0 16 17 16h71q17 0 17 -16v-1047q0 -16 -17 -16h-71q-17 0 -17 16v158q0 11 -5.5 13t-12.5 -7q-55 -70 -164.5 -128t-233.5 -58q-71 0 -133 15.5t-118 52.5t-95.5 93.5 t-62.5 144t-23 198.5zM613.5 1230.5q-6.5 7.5 0.5 16.5l197 281q8 14 25 14h73q12 0 16 -7.5t-3 -16.5l-207 -283q-7 -12 -25 -12h-59q-11 0 -17.5 7.5z" />
<glyph unicode="&#xfb;" horiz-adv-x="1198" d="M143 498v565q0 16 17 16h73q17 0 17 -16v-547q0 -428 344 -428q122 0 236.5 70.5t160.5 181.5v723q0 16 17 16h71q17 0 17 -16v-1047q0 -16 -17 -16h-71q-17 0 -17 16v158q0 11 -5.5 13t-12.5 -7q-55 -70 -164.5 -128t-233.5 -58q-71 0 -133 15.5t-118 52.5t-95.5 93.5 t-62.5 144t-23 198.5zM373 1274v55q0 15 16 25l221 125q14 7 29 0l221 -125q17 -10 17 -25v-55q0 -11 -7.5 -17t-17.5 0l-213 117q-15 7 -29 0l-213 -117q-10 -6 -17 0t-7 17z" />
<glyph unicode="&#xfc;" horiz-adv-x="1198" d="M143 498v565q0 16 17 16h73q17 0 17 -16v-547q0 -428 344 -428q122 0 236.5 70.5t160.5 181.5v723q0 16 17 16h71q17 0 17 -16v-1047q0 -16 -17 -16h-71q-17 0 -17 16v158q0 11 -5.5 13t-12.5 -7q-55 -70 -164.5 -128t-233.5 -58q-71 0 -133 15.5t-118 52.5t-95.5 93.5 t-62.5 144t-23 198.5zM393 1417q0 32 22 54t54 22q31 0 53.5 -22t22.5 -54q0 -31 -22.5 -53.5t-53.5 -22.5q-32 0 -54 22.5t-22 53.5zM721 1417q0 32 22 54t54 22q31 0 53 -22t22 -54q0 -31 -22 -53.5t-53 -22.5q-32 0 -54 22.5t-22 53.5z" />
<glyph unicode="&#xfd;" horiz-adv-x="1239" d="M125 1061q-9 18 12 18h78q12 0 18 -12l431 -934q10 -23 20 0l383 934q6 12 18 12h78q20 0 13 -18l-465 -1133q-21 -50 -33.5 -78t-34 -71.5t-39 -68.5t-44 -55.5t-53 -46.5t-61 -27t-73.5 -11q-97 0 -170 61q-13 10 -4 23l16 51q7 15 21 6q65 -45 124 -45q43 0 80.5 21.5 t69.5 65t57.5 93.5t55.5 123q4 8 0 21zM642 1230.5q-6 7.5 1 16.5l197 281q8 14 24 14h74q12 0 16 -7.5t-4 -16.5l-207 -283q-7 -12 -24 -12h-60q-11 0 -17 7.5z" />
<glyph unicode="&#xfe;" horiz-adv-x="1179" d="M143 -408v1934q0 16 17 16h73q17 0 17 -16v-568q0 -11 5 -13t13 5q48 52 139.5 93.5t194.5 41.5q151 0 266 -76.5t172.5 -198.5t57.5 -269q0 -109 -34 -207.5t-96 -174.5t-157 -120.5t-209 -44.5q-103 0 -194.5 41.5t-139.5 93.5q-8 7 -13 5t-5 -13v-529q0 -16 -17 -16 h-73q-17 0 -17 16zM250 276q0 -7 8 -20q47 -71 138.5 -119.5t191.5 -48.5q175 0 289 125.5t114 327.5t-113.5 326t-289.5 124q-100 0 -191.5 -48.5t-138.5 -119.5q-8 -10 -8 -20v-527z" />
<glyph unicode="&#xff;" horiz-adv-x="1239" d="M125 1061q-9 18 12 18h78q12 0 18 -12l431 -934q10 -23 20 0l383 934q6 12 18 12h78q20 0 13 -18l-465 -1133q-21 -50 -33.5 -78t-34 -71.5t-39 -68.5t-44 -55.5t-53 -46.5t-61 -27t-73.5 -11q-97 0 -170 61q-13 10 -4 23l16 51q7 15 21 6q65 -45 124 -45q43 0 80.5 21.5 t69.5 65t57.5 93.5t55.5 123q4 8 0 21zM422 1417q0 32 22 54t54 22q31 0 53 -22t22 -54q0 -31 -22 -53.5t-53 -22.5q-32 0 -54 22.5t-22 53.5zM750 1417q0 32 21.5 54t53.5 22q31 0 53.5 -22t22.5 -54q0 -31 -22.5 -53.5t-53.5 -22.5q-32 0 -53.5 22.5t-21.5 53.5z" />
<glyph unicode="&#x152;" horiz-adv-x="2430" d="M205 731q0 157 51 292.5t141.5 233.5t222 153.5t287.5 55.5q202 0 358.5 -90t245.5 -250v314q0 20 21 20h725q20 0 20 -20v-70q0 -20 -20 -20h-608q-9 0 -15 -6t-6 -15v-543q0 -20 21 -20h426q20 0 20 -21v-71q0 -21 -20 -21h-426q-21 0 -21 -20v-502q0 -20 21 -20h628 q9 0 15 -6t6 -15v-70q0 -20 -21 -20h-745q-21 0 -21 20v314q-90 -159 -246.5 -249.5t-357.5 -90.5q-155 0 -287 56t-222.5 154t-141.5 234t-51 293zM324 731q0 -277 161 -452t422 -175t422.5 175t161.5 452t-161.5 451t-422.5 174t-422 -174t-161 -451z" />
<glyph unicode="&#x153;" horiz-adv-x="2226" d="M123 541q0 150 68 274t194.5 197t286.5 73q174 0 306.5 -85.5t195.5 -227.5q57 142 177.5 227.5t280.5 85.5q103 0 186.5 -33.5t137 -87t89.5 -125.5t51 -144.5t15 -147.5v-33q0 -16 -16 -16h-842q-16 0 -16 -17q0 -24 4.5 -54t17 -68.5t31 -75t50 -72.5t71 -63t96 -43.5 t123.5 -16.5q62 0 119 18t93.5 42.5t68 57t45.5 52t24 37.5q7 14 21 10l70 -10q18 -3 12 -19q-51 -123 -168 -202.5t-283 -79.5q-175 0 -292.5 82.5t-170.5 226.5q-65 -140 -196 -224.5t-301 -84.5q-160 0 -286.5 74t-194.5 198.5t-68 274.5zM229 541q0 -192 121 -322.5 t322 -130.5q200 0 322 130.5t122 322.5q0 191 -122 320.5t-322 129.5q-134 0 -236 -61t-154.5 -162.5t-52.5 -226.5zM1239 602q0 -16 16 -16h730q16 0 16 14q0 46 -10 95t-36 104.5t-66 98t-106.5 70.5t-150.5 27q-77 -1 -143.5 -27.5t-111 -68t-77 -94t-47 -104.5 t-14.5 -99z" />
<glyph unicode="&#x178;" horiz-adv-x="1443" d="M124 1452.5q3 7.5 15 7.5h101q17 0 24 -12l455 -643q6 -9 14.5 -9t14.5 9l454 643q7 12 25 12h98q12 0 15 -7.5t-3 -16.5l-534 -756q-8 -11 -8 -27v-633q0 -20 -21 -20h-78q-20 0 -20 20v633q0 16 -8 27l-541 756q-6 9 -3 16.5zM492 1798q0 32 21.5 54t53.5 22 q31 0 53.5 -22t22.5 -54q0 -31 -22.5 -53.5t-53.5 -22.5q-32 0 -53.5 22.5t-21.5 53.5zM819 1798q0 32 22 54t54 22q31 0 53.5 -22t22.5 -54q0 -31 -22.5 -53.5t-53.5 -22.5q-32 0 -54 22.5t-22 53.5z" />
<glyph unicode="&#x2000;" horiz-adv-x="964" />
<glyph unicode="&#x2001;" horiz-adv-x="1929" />
<glyph unicode="&#x2002;" horiz-adv-x="964" />
<glyph unicode="&#x2003;" horiz-adv-x="1929" />
<glyph unicode="&#x2004;" horiz-adv-x="643" />
<glyph unicode="&#x2005;" horiz-adv-x="482" />
<glyph unicode="&#x2006;" horiz-adv-x="321" />
<glyph unicode="&#x2007;" horiz-adv-x="321" />
<glyph unicode="&#x2008;" horiz-adv-x="241" />
<glyph unicode="&#x2009;" horiz-adv-x="385" />
<glyph unicode="&#x200a;" horiz-adv-x="107" />
<glyph unicode="&#x2010;" horiz-adv-x="1310" d="M246 616v70q0 21 20 21h881q20 0 20 -21v-70q0 -20 -20 -20h-881q-20 0 -20 20z" />
<glyph unicode="&#x2011;" horiz-adv-x="1310" d="M246 616v70q0 21 20 21h881q20 0 20 -21v-70q0 -20 -20 -20h-881q-20 0 -20 20z" />
<glyph unicode="&#x2012;" horiz-adv-x="1310" d="M246 616v70q0 21 20 21h881q20 0 20 -21v-70q0 -20 -20 -20h-881q-20 0 -20 20z" />
<glyph unicode="&#x2013;" horiz-adv-x="1761" d="M225 606v70q0 20 21 20h1290q20 0 20 -20v-70q0 -20 -20 -20h-1290q-21 0 -21 20z" />
<glyph unicode="&#x2014;" horiz-adv-x="2068" d="M225 606v70q0 20 21 20h1597q21 0 21 -20v-70q0 -20 -21 -20h-1597q-21 0 -21 20z" />
<glyph unicode="&#x2018;" horiz-adv-x="462" d="M145 1155l129 371q5 16 25 16h43q10 0 14.5 -6.5t1.5 -15.5l-102 -369q-4 -18 -23 -18h-71q-23 0 -17 22z" />
<glyph unicode="&#x2019;" horiz-adv-x="483" d="M145 1155l105 369q4 18 22 18h70q22 0 16 -22l-129 -371q-5 -16 -24 -16h-43q-10 0 -15 6.5t-2 15.5z" />
<glyph unicode="&#x201a;" horiz-adv-x="503" d="M145 -205l105 369q4 18 22 18h70q22 0 16 -22l-129 -371q-5 -16 -24 -16h-43q-10 0 -15 6.5t-2 15.5z" />
<glyph unicode="&#x201c;" horiz-adv-x="681" d="M145 1155l129 371q5 16 25 16h43q10 0 14.5 -6.5t1.5 -15.5l-102 -369q-4 -18 -23 -18h-71q-23 0 -17 22zM365 1155l129 371q5 16 24 16h43q10 0 15 -6.5t2 -15.5l-103 -369q-4 -18 -22 -18h-72q-22 0 -16 22z" />
<glyph unicode="&#x201d;" horiz-adv-x="702" d="M145 1155l105 369q4 18 22 18h70q22 0 16 -22l-129 -371q-5 -16 -24 -16h-43q-10 0 -15 6.5t-2 15.5zM362 1155l105 369q4 18 22 18h70q22 0 16 -22l-129 -371q-5 -16 -24 -16h-43q-10 0 -15 6.5t-2 15.5z" />
<glyph unicode="&#x201e;" horiz-adv-x="712" d="M145 -205l105 369q4 18 22 18h70q22 0 16 -22l-129 -371q-5 -16 -24 -16h-43q-10 0 -15 6.5t-2 15.5zM354 -205l103 369q4 18 22 18h72q22 0 16 -22l-129 -371q-5 -16 -24 -16h-43q-10 0 -15 6.5t-2 15.5z" />
<glyph unicode="&#x2022;" horiz-adv-x="880" d="M369 643q0 46 33 79.5t79 33.5t79.5 -33.5t33.5 -79.5t-33.5 -80.5t-79.5 -34.5q-45 0 -78.5 34.5t-33.5 80.5z" />
<glyph unicode="&#x2026;" horiz-adv-x="1290" d="M164 59q0 27 19 45.5t46 18.5q26 0 45 -19t19 -45q0 -27 -18.5 -46t-45.5 -19q-28 0 -46.5 18.5t-18.5 46.5zM518 59q0 26 20 45t46 19t45.5 -19t19.5 -45q0 -27 -19 -46t-46 -19t-46.5 19t-19.5 46zM874 59q0 26 19 45t45 19q28 0 47 -19t19 -45q0 -28 -19 -46.5 t-47 -18.5q-26 0 -45 19t-19 46z" />
<glyph unicode="&#x202f;" horiz-adv-x="385" />
<glyph unicode="&#x2039;" horiz-adv-x="600" d="M147 580q-7 14 0 28l205 344q9 15 25 15h82q12 0 16 -7.5t-2 -17.5l-201 -334q-7 -14 0 -28l201 -342q6 -10 1.5 -17.5t-15.5 -7.5h-82q-17 0 -25 14z" />
<glyph unicode="&#x203a;" horiz-adv-x="583" d="M129 220.5q-5 7.5 0 17.5l203 342q7 14 0 28l-201 334q-6 10 -2 17.5t16 7.5h80q16 0 25 -15l207 -344q7 -14 0 -28l-207 -353q-8 -14 -25 -14h-80q-11 0 -16 7.5z" />
<glyph unicode="&#x205f;" horiz-adv-x="482" />
<glyph unicode="&#x20ac;" horiz-adv-x="1656" d="M225 453v65q0 9 6 15t15 6h137q-18 75 -23 125h-114q-21 0 -21 18v66q0 8 6 13t15 5h112q6 144 62 273t148.5 223.5t222 150t274.5 55.5q143 0 268.5 -53t214.5 -145q13 -16 0 -29l-41 -47q-14 -14 -28 0q-62 70 -167 117t-247 47q-116 0 -222 -46t-184.5 -125 t-127 -188.5t-54.5 -232.5h649q9 0 15 -5t6 -13v-66q0 -18 -21 -18h-645q5 -58 25 -125h620q9 0 15 -6t6 -15v-65q0 -8 -6 -13.5t-15 -5.5h-579q76 -150 214 -240t304 -90q142 0 247 47t167 117q14 14 28 0l41 -47q12 -12 0 -28q-90 -97 -204 -148t-279 -51q-220 0 -393 121 t-254 319h-172q-9 0 -15 5.5t-6 13.5z" />
<glyph unicode="&#x2122;" horiz-adv-x="1320" d="M164 1505v29q0 8 8 8h369q8 0 8 -8v-29q0 -8 -8 -8h-152q-8 0 -8 -8v-551q0 -8 -8 -8h-33q-8 0 -8 8v551q0 8 -10 8h-150q-8 0 -8 8zM618 938v596q0 8 9 8h26q11 0 13 -4l235 -401q3 -5 7 -5t5 5l236 401q4 4 12 4h27q10 0 10 -8v-596q0 -8 -10 -8h-31q-10 0 -10 8v485 q0 6 -3.5 7.5t-6.5 -3.5l-224 -378q-6 -9 -12 0l-223 378q-1 3 -3.5 3.5t-4.5 -1.5t-2 -6v-485q0 -8 -9 -8h-32q-9 0 -9 8z" />
<glyph unicode="&#x25fc;" horiz-adv-x="1075" d="M0 0v1075h1075v-1075h-1075z" />
</font>
</defs>
</svg>
