<?xml version="1.0" encoding="utf-8"?>
<!-- Generator: Adobe Illustrator 18.1.1, SVG Export Plug-In . SVG Version: 6.00 Build 0)  -->
<svg version="1.1" id="Layer_1" xmlns="http://www.w3.org/2000/svg" xmlns:xlink="http://www.w3.org/1999/xlink" x="0px" y="0px"
	 viewBox="0 0 23.5 81.4" enable-background="new 0 0 23.5 81.4" xml:space="preserve">
<path fill="#FDBA12" d="M22.4,41.8c0-1.6-0.2-3.2-0.4-4.8c-0.4-3.2-1.8-5.9-4.1-8c-1-1-1.6-2-1.2-3.5c0.3-1.5,0.4-3.1,0.3-4.7
	c-0.3-2.9-0.8-5.9-1.2-8.8c0-0.3-0.7-3.8-0.8-5.3c-0.1-1.4,0-2.8,0-4.2c0-0.1,0.1-0.3,0.2-0.4c0.3-0.8,0-1.6-0.6-1.8l0,0
	c0,0-0.7-0.3-3.2-0.3c0,0-1.8,0-3,0.2C7.4,0.4,7,1.2,7.3,2.1c0.1,0.1,0.2,0.3,0.2,0.5c0.1,1.9,0.1,3.7,0,4.2C7.3,8.5,7,10.3,6.7,12
	c-0.5,2.9-1.1,5.9-1.2,8.8c-0.1,1.5-0.1,2.8,0.2,4.6c0.1,0.8,0.4,2-0.7,3.1c-0.2,0.2-0.3,0.3-0.5,0.5c-2.3,2.3-3.6,5.1-4.1,8.1
	C0.2,38.3,0,40.6,0,41.9c0,5.7,0,10.2,0,15.9c0,0,0,0,0,0c0,4.7,0,9.4,0,14c0,1.7-0.1,3.4,0.1,5c0.2,2.4,1.8,3.6,4.3,4.1
	c2.3,0.3,4.7,0.3,7.1,0.3c2,0,4.2-0.1,6.1-0.4c3.1-0.5,4.8-1.8,4.8-5C22.4,64.6,22.4,53.2,22.4,41.8z"/>
</svg>
