<?xml version="1.0" encoding="utf-8"?>
<!-- Generator: Adobe Illustrator 18.1.1, SVG Export Plug-In . SVG Version: 6.00 Build 0)  -->
<svg version="1.1" id="Layer_1" xmlns="http://www.w3.org/2000/svg" xmlns:xlink="http://www.w3.org/1999/xlink" x="0px" y="0px"
	 viewBox="0 0 300 300" enable-background="new 0 0 300 300" xml:space="preserve">
<path d="M129.9,115.5v1c0,3.1-0.9,5.2-3.1,6.2c2.5,1,3.5,3.3,3.5,6.5v2.5c0,4.7-2.5,7.2-7.2,7.2h-7.5v-30.6h7.2
	C127.8,108.4,129.9,110.8,129.9,115.5z M120.4,112.8v8h1.9c1.8,0,2.8-0.7,2.8-3.3v-1.6c0-2.2-0.7-3.1-2.4-3.1H120.4z M120.4,125.1
	v9.3h2.8c1.6,0,2.5-0.7,2.5-3v-2.7c0-2.8-0.9-3.7-3.1-3.7L120.4,125.1L120.4,125.1z"/>
<path d="M138,121.3h6.5v4.3H138v8.9h8.3v4.3h-13v-30.3h13v4.3H138V121.3z"/>
<path d="M154.1,121.3h6.5v4.3h-6.5v8.9h8.3v4.3h-13.2v-30.3h13v4.3H154v8.6L154.1,121.3L154.1,121.3z"/>
<path d="M175.3,138.8c-0.3-0.7-0.4-1.3-0.4-3.7v-4.7c0-2.8-0.9-3.8-3.1-3.8h-1.6V139h-4.7v-30.6h7.2c5,0,7.1,2.4,7.1,6.9v2.4
	c0,3.1-1,5.2-3.1,6.2c2.4,1,3.1,3.3,3.1,6.5v4.7c0,1.5,0,2.5,0.6,3.7L175.3,138.8L175.3,138.8z M170.1,112.8v9.3h1.9
	c1.8,0,2.8-0.7,2.8-3.3v-3c0-2.2-0.7-3.1-2.4-3.1L170.1,112.8L170.1,112.8z"/>
<path d="M88.7,160.7h6.5v4.3h-6.5v8.9H97v4.3H84V148h13v4.3h-8.3V160.7z"/>
<path d="M115.9,148l-5,14.8l5.3,15.7h-5l-4-12.1l-4,12.1h-4.4l5.3-15.7L99,148h5l3.5,11.2l3.7-11.2C111.3,148,115.9,148,115.9,148z"
	/>
<path d="M132.9,155.4v4c0,4.9-2.4,7.5-7.1,7.5h-2.2v11.4h-4.7V148h6.8C130.5,148,132.9,150.7,132.9,155.4z M123.4,152.3v10.3h2.2
	c1.5,0,2.4-0.7,2.4-2.8v-4.6c0-2.2-0.9-2.8-2.4-2.8L123.4,152.3L123.4,152.3z"/>
<path d="M135.2,148h4.7v26.2h7.8v4.3H135V148H135.2z"/>
<path d="M149.6,155.2c0-4.9,2.5-7.7,7.2-7.7s7.2,2.8,7.2,7.7V171c0,4.9-2.5,7.7-7.2,7.7s-7.2-2.8-7.2-7.7V155.2z M154.4,171.4
	c0,2.2,0.9,3,2.5,3c1.5,0,2.5-0.9,2.5-3V155c0-2.2-0.9-3-2.5-3c-1.5,0-2.5,0.9-2.5,3V171.4z"/>
<path d="M177.2,178.4c-0.3-0.7-0.4-1.3-0.4-3.7V170c0-2.8-0.9-3.8-3.1-3.8H172v12.4h-4.7V148h7.2c5,0,7.1,2.4,7.1,6.9v2.4
	c0,3.1-1,5.2-3.1,6.2c2.4,1,3.3,3.3,3.3,6.5v4.7c0,1.5,0,2.5,0.6,3.7L177.2,178.4L177.2,178.4z M172,152.3v9.3h1.9
	c1.8,0,2.8-0.7,2.8-3.3v-3c0-2.2-0.7-3.1-2.4-3.1H172V152.3z"/>
<path d="M189.5,160.7h6.5v4.3h-6.5v8.9h8.3v4.3h-13V148h13v4.3h-8.3V160.7z"/>
<path d="M210.7,178.4c-0.3-0.7-0.4-1.3-0.4-3.7V170c0-2.8-0.9-3.8-3.1-3.8h-1.6v12.4h-4.7V148h7.2c5,0,7.1,2.4,7.1,6.9v2.4
	c0,3.1-1,5.2-3.1,6.2c2.4,1,3.3,3.3,3.3,6.5v4.7c0,1.5,0,2.5,0.6,3.7L210.7,178.4L210.7,178.4z M205.6,152.3v9.3h1.9
	c1.8,0,2.8-0.7,2.8-3.3v-3c0-2.2-0.7-3.1-2.4-3.1h-2.3V152.3z"/>
<path d="M60.1,134.7c-1.9,0-3.7,0-5.5,0c-0.4,0-0.7-0.3-1-0.6c-0.9-0.9-1.5-1.9-2.5-3c-0.7-0.7-1.2-1-2.1-1c-1.5,0-3,0-4.6,0
	c0.3-0.4,1-1.3,1.9-1.3c2.5,0,4.9,0,7.5,0c1,0,1.5,0,1.9,0.4C56.2,129.5,59,133.2,60.1,134.7z M46.3,141.9c2.8,0,5.6,0,8.3,0
	c0.4,0,1-0.1,1.2-0.4c1.5-1.8,3-3.7,4.3-5.6c-2.1,0-3.8,0-5.6,0c-0.3,0-0.7,0.3-1,0.6c-0.9,0.9-1.6,2.1-2.5,3c-0.7,0.7-1,1-2.1,1
	c-1.5,0-3.3,0-4.6,0C44.3,140.8,45.7,141.9,46.3,141.9z M65.9,129.5c-0.3-0.3-0.7-0.6-1-0.7c-1.8-0.1-5.8-0.1-5.8-0.1
	c1.5,1.9,3.3,3.8,4.7,5.8c0.1,0.1,0.3,0.1,0.4,0.1c1.8,0,3.5,0,5.6,0C68.4,133.1,67.2,131.3,65.9,129.5z M64.4,141.9
	c0.3,0,0.9-0.1,1-0.4c1.5-1.8,2.7-3.5,4.1-5.5c-1,0-2.4,0-3.1,0c-0.9,0-1.6,0-2.2,0c-0.4,0-0.7,0.4-0.9,0.6c0,0-3.8,4.4-4.4,5.3
	C59,141.9,62.8,142.1,64.4,141.9z M100.9,136c0-0.4,0-0.9-0.1-1.2c-3.7,0-7.4,0-11.1,0c0,0.4,0,0.7,0,1.2
	C93.5,136,97.2,136,100.9,136z M42.6,134.7v1.2c3,0,5.9,0,8.9,0c0-0.4,0-0.7,0-1.2C48.3,134.7,45.5,134.7,42.6,134.7z M75.5,129.7
	c-0.3-0.3-0.7-0.6-1-0.7c-1.8-0.1-5.8-0.1-5.8-0.1c1.5,1.9,3.3,3.8,4.7,5.8c0.1,0.1,0.3,0.1,0.4,0.1c1.8,0,3.5,0,5.6,0
	C78,133.1,76.8,131.3,75.5,129.7z M74,141.9c0.3,0,0.9-0.1,1-0.4c1.5-1.8,2.7-3.5,4.1-5.5c-1,0-2.4,0-3.1,0c-0.9,0-1.6,0-2.2,0
	c-0.4,0-0.7,0.4-0.9,0.6c0,0-3.8,4.4-4.4,5.3C68.6,141.9,72.4,142.1,74,141.9z M85.3,129.7c-0.3-0.3-0.7-0.6-1-0.7
	c-1.8-0.1-5.8-0.1-5.8-0.1c1.5,1.9,3.3,3.8,4.7,5.8c0.1,0.1,0.3,0.1,0.4,0.1c1.8,0,3.5,0,5.6,0C87.9,133.1,86.6,131.3,85.3,129.7z
	 M83.9,142.1c0.3,0,0.9-0.1,1-0.4c1.5-1.8,2.7-3.5,4.1-5.5c-1,0-2.4,0-3.1,0c-0.9,0-1.6,0-2.2,0c-0.4,0-0.7,0.4-0.9,0.6
	c0,0-3.8,4.4-4.4,5.3C78.5,142.1,82.2,142.1,83.9,142.1z"/>
<path d="M233.9,136.2c1.9,0,3.7,0,5.5,0c0.4,0,0.7,0.3,1,0.6c0.9,0.9,1.5,1.9,2.5,3c0.7,0.7,1.2,1,2.1,1c1.5,0,3,0,4.6,0
	c-0.3,0.4-1,1.3-1.9,1.3c-2.5,0-4.9,0-7.5,0c-1,0-1.5,0-1.9-0.4C237.9,141.4,235.1,137.7,233.9,136.2z M247.7,128.9
	c-2.8,0-5.6,0-8.3,0c-0.4,0-1,0.1-1.2,0.4c-1.5,1.8-3,3.7-4.3,5.6c2.1,0,3.8,0,5.6,0c0.3,0,0.7-0.3,1-0.6c0.9-0.9,1.6-2.1,2.5-3
	c0.7-0.7,1-1,2.1-1c1.5,0,3.3,0,4.6,0C249.6,130.3,248.4,128.9,247.7,128.9z M228.2,141.4c0.3,0.3,0.7,0.6,1,0.7
	c1.8,0.1,5.8,0.1,5.8,0.1c-1.5-1.9-3.3-3.8-4.7-5.8c-0.1-0.1-0.3-0.1-0.4-0.1c-1.8,0-3.5,0-5.6,0C225.7,138,226.8,139.6,228.2,141.4
	z M229.5,128.9c-0.3,0-0.9,0.1-1,0.4c-1.5,1.8-2.7,3.5-4.1,5.5c1,0,2.4,0,3.1,0c0.9,0,1.6,0,2.2,0c0.4,0,0.7-0.4,0.9-0.6
	c0,0,3.8-4.4,4.4-5.3C235,128.9,231.3,128.8,229.5,128.9z M194,134.9c0,0.4,0,0.9,0.1,1.2c3.7,0,7.4,0,11.1,0c0-0.4,0-0.7,0-1.2
	C201.4,134.9,197.7,134.9,194,134.9z M251.5,136.2V135c-3,0-5.9,0-8.9,0c0,0.4,0,0.7,0,1.2C245.6,136.2,248.6,136.2,251.5,136.2z
	 M218.7,141.2c0.3,0.3,0.7,0.6,1,0.7c1.8,0.1,5.8,0.1,5.8,0.1c-1.5-1.9-3.3-3.8-4.7-5.8c-0.1-0.1-0.3-0.1-0.4-0.1
	c-1.8,0-3.5,0-5.6,0C216.2,137.8,217.5,139.4,218.7,141.2z M220.2,128.8c-0.3,0-0.9,0.1-1,0.4c-1.5,1.8-2.7,3.5-4.1,5.5
	c1,0,2.4,0,3.1,0c0.9,0,1.6,0,2.2,0c0.4,0,0.7-0.4,0.9-0.6c0,0,3.8-4.4,4.4-5.3C225.7,128.8,221.8,128.6,220.2,128.8z M209.6,141.2
	c0.3,0.3,0.7,0.6,1,0.7c1.8,0.1,5.8,0.1,5.8,0.1c-1.5-1.9-3.3-3.8-4.7-5.8c-0.1-0.1-0.3-0.1-0.4-0.1c-1.8,0-3.5,0-5.6,0
	C207,137.8,208.4,139.6,209.6,141.2z M211,128.9c-0.3,0-0.9,0.1-1,0.4c-1.5,1.8-2.7,3.5-4.1,5.5c1,0,2.4,0,3.1,0c0.9,0,1.6,0,2.2,0
	c0.4,0,0.7-0.4,0.9-0.6c0,0,3.8-4.4,4.4-5.3C216.5,128.8,212.8,128.8,211,128.9z"/>
<g>
	<path d="M86.5,188.5v4.9h-0.7v-4.9H84v-0.6h4.1v0.6H86.5z"/>
	<path d="M89.3,190.1c0.3-0.6,0.7-0.9,1.5-0.9v0.6c-0.9,0-1.3,0.6-1.5,1.3v2.2h-0.6v-4.1h0.6V190.1z"/>
	<path d="M93,194c-0.3,0.6-0.7,0.9-1.2,0.9c-0.3,0-0.6-0.1-0.9-0.3l0.3-0.4c0.1,0.1,0.4,0.1,0.6,0.1c0.3,0,0.6-0.1,0.7-0.6l0.1-0.4
		l-1.8-4.1h0.7l1.3,3.4l1.3-3.4h0.6L93,194z"/>
	<path d="M100.3,192.8c-0.3,0.4-0.9,0.6-1.5,0.6c-0.9,0-1.3-0.6-1.3-1.2c0-0.7,0.6-1.2,1.5-1.2h1.3v-0.3c0-0.6-0.4-0.9-1-0.9
		c-0.4,0-0.9,0.1-1.3,0.4l-0.3-0.4c0.6-0.3,1-0.6,1.6-0.6c1,0,1.6,0.6,1.6,1.5v2.7h-0.6C100.3,193.4,100.3,192.8,100.3,192.8z
		 M100.3,191.9v-0.4H99c-0.7,0-1,0.1-1,0.6c0,0.4,0.3,0.7,0.9,0.7C99.6,192.9,100.2,192.5,100.3,191.9z"/>
	<path d="M108.6,191.3c0,1.2-0.7,2.1-1.9,2.1c-0.7,0-1.3-0.3-1.6-0.9v0.9h-0.6v-5.8h0.6v2.5c0.3-0.6,0.9-0.9,1.6-0.9
		C107.7,189.2,108.6,190.1,108.6,191.3z M108,191.3c0-0.9-0.6-1.5-1.5-1.5s-1.5,0.6-1.5,1.5s0.6,1.5,1.5,1.5S108,192.2,108,191.3z"
		/>
	<path d="M113.2,191.6h-3.4c0.1,0.7,0.7,1.3,1.5,1.3c0.4,0,0.9-0.1,1.3-0.4l0.3,0.3c-0.4,0.4-1,0.7-1.6,0.7c-1.2,0-2.1-0.9-2.1-2.1
		c0-1.2,0.9-2.1,2.1-2.1C112.6,189.2,113.2,190.1,113.2,191.6z M112.6,191c0-0.7-0.6-1.3-1.3-1.3s-1.3,0.4-1.5,1.3H112.6z"/>
	<path d="M117.8,191.6h-3.4c0.1,0.7,0.7,1.3,1.5,1.3c0.4,0,0.9-0.1,1.3-0.4l0.3,0.3c-0.4,0.4-1,0.7-1.6,0.7c-1.2,0-2.1-0.9-2.1-2.1
		c0-1.2,0.9-2.1,2.1-2.1C117.2,189.2,117.8,190.1,117.8,191.6z M117.2,191c0-0.7-0.6-1.3-1.3-1.3s-1.3,0.4-1.5,1.3H117.2z"/>
	<path d="M119.4,190.1c0.3-0.6,0.7-0.9,1.5-0.9v0.6c-0.9,0-1.3,0.6-1.5,1.3v2.2h-0.6v-4.1h0.6V190.1z"/>
	<path d="M125.2,194c-0.3,0.6-0.7,0.9-1.2,0.9c-0.3,0-0.6-0.1-0.9-0.3l0.3-0.4c0.1,0.1,0.4,0.1,0.6,0.1c0.3,0,0.6-0.1,0.7-0.6
		l0.1-0.4l-1.8-4.1h0.6l1.3,3.4l1.3-3.4h0.7L125.2,194z"/>
	<path d="M131.4,191.3c0,1.2-0.9,2.1-2.1,2.1s-2.1-0.9-2.1-2.1s0.9-2.1,2.1-2.1S131.4,190.1,131.4,191.3z M127.8,191.3
		c0,0.9,0.6,1.5,1.5,1.5s1.5-0.6,1.5-1.5s-0.6-1.5-1.5-1.5S127.8,190.4,127.8,191.3z"/>
	<path d="M136,193.4h-0.6v-0.9c-0.3,0.6-0.9,0.9-1.6,0.9c-0.9,0-1.5-0.6-1.5-1.6v-2.5h0.6v2.4c0,0.7,0.4,1.2,1.2,1.2
		c0.9,0,1.3-0.6,1.3-1.5v-2.1h0.6V193.4z"/>
	<path d="M137.3,189.7v-1.8h0.4v1.8H137.3z"/>
	<path d="M139.8,193.4l-1.6-4.1h0.7l1.3,3.5l1.3-3.5h0.6l-1.6,4.1H139.8z"/>
	<path d="M146.2,191.6h-3.4c0.1,0.7,0.7,1.3,1.5,1.3c0.4,0,0.9-0.1,1.3-0.4l0.3,0.3c-0.4,0.4-1,0.7-1.6,0.7c-1.2,0-2.1-0.9-2.1-2.1
		c0-1.2,0.9-2.1,2.1-2.1C145.6,189.2,146.3,190.1,146.2,191.6z M145.7,191c0-0.7-0.6-1.3-1.3-1.3s-1.3,0.4-1.5,1.3H145.7z"/>
	<path d="M153.1,190.9v2.5h-0.6V191c0-0.7-0.4-1.2-1.2-1.2c-0.7,0-1.3,0.6-1.3,1.3v2.2h-0.6v-4.1h0.6v0.9c0.3-0.6,0.9-0.9,1.6-0.9
		C152.5,189.2,153.1,189.8,153.1,190.9z"/>
	<path d="M158,191.6h-3.4c0.1,0.7,0.7,1.3,1.5,1.3c0.4,0,0.9-0.1,1.3-0.4l0.3,0.3c-0.4,0.4-1,0.7-1.6,0.7c-1.2,0-2.1-0.9-2.1-2.1
		c0-1.2,0.9-2.1,2.1-2.1C157.4,189.2,158.1,190.1,158,191.6z M157.5,191c0-0.7-0.6-1.3-1.3-1.3s-1.3,0.4-1.5,1.3H157.5z"/>
	<path d="M159.9,193.4l-1.6-4.1h0.6l1.3,3.5l1.3-3.5h0.6l-1.6,4.1H159.9z"/>
	<path d="M166.3,191.6h-3.4c0.1,0.7,0.7,1.3,1.5,1.3c0.4,0,0.9-0.1,1.3-0.4l0.3,0.3c-0.4,0.4-1,0.7-1.6,0.7c-1.2,0-2.1-0.9-2.1-2.1
		c0-1.2,0.9-2.1,2.1-2.1C165.7,189.2,166.3,190.1,166.3,191.6z M165.7,191c0-0.7-0.6-1.3-1.3-1.3s-1.3,0.4-1.5,1.3H165.7z"/>
	<path d="M167.9,190.1c0.3-0.6,0.7-0.9,1.5-0.9v0.6c-0.9,0-1.3,0.6-1.5,1.3v2.2h-0.6v-4.1h0.6V190.1z"/>
	<path d="M176.2,190.9v2.5h-0.6V191c0-0.7-0.4-1.2-1.2-1.2c-0.9,0-1.3,0.6-1.3,1.5v2.1h-0.6v-5.8h0.6v2.7c0.3-0.6,0.9-0.9,1.6-0.9
		C175.6,189.2,176.2,189.8,176.2,190.9z"/>
	<path d="M180,192.8c-0.3,0.4-0.9,0.6-1.5,0.6c-0.9,0-1.3-0.6-1.3-1.2c0-0.7,0.6-1.2,1.5-1.2h1.3v-0.3c0-0.6-0.4-0.9-1-0.9
		c-0.4,0-0.9,0.1-1.3,0.4l-0.3-0.4c0.6-0.3,1-0.6,1.6-0.6c1,0,1.6,0.6,1.6,1.5v2.7H180V192.8z M180,191.9v-0.4h-1.3
		c-0.7,0-1,0.1-1,0.6c0,0.4,0.3,0.7,0.9,0.7C179.3,192.9,179.9,192.5,180,191.9z"/>
	<path d="M185.8,193.4h-0.6v-0.9c-0.3,0.6-0.9,0.9-1.6,0.9c-1.2,0-1.9-0.9-1.9-2.1s0.7-2.1,1.9-2.1c0.7,0,1.3,0.3,1.6,0.9v-2.5h0.6
		V193.4z M185.2,191.3c0-0.9-0.6-1.5-1.5-1.5s-1.5,0.6-1.5,1.5s0.6,1.5,1.5,1.5C184.6,192.8,185.2,192.2,185.2,191.3z"/>
	<path d="M193.6,191.3c0,1.2-0.7,2.1-1.9,2.1c-0.7,0-1.3-0.3-1.6-0.9v0.9h-0.6v-5.8h0.6v2.5c0.3-0.6,0.9-0.9,1.6-0.9
		C192.9,189.2,193.6,190.1,193.6,191.3z M193,191.3c0-0.9-0.6-1.5-1.5-1.5s-1.5,0.6-1.5,1.5s0.6,1.5,1.5,1.5S193,192.2,193,191.3z"
		/>
	<path d="M198.2,191.6h-3.4c0.1,0.7,0.7,1.3,1.5,1.3c0.4,0,0.9-0.1,1.3-0.4l0.3,0.3c-0.4,0.4-1,0.7-1.6,0.7c-1.2,0-2.1-0.9-2.1-2.1
		c0-1.2,0.9-2.1,2.1-2.1C197.6,189.2,198.3,190.1,198.2,191.6z M197.7,191c0-0.7-0.6-1.3-1.3-1.3s-1.3,0.4-1.5,1.3H197.7z"/>
	<path d="M200,188.8v0.6h1.2v0.4H200v3.5h-0.6v-3.5h-0.6v-0.4h0.6V189c0-0.9,0.6-1.3,1.3-1.3c0.3,0,0.6,0.1,0.9,0.3l-0.3,0.4
		c-0.1-0.1-0.4-0.1-0.6-0.1C200.2,188.1,200,188.3,200,188.8z"/>
	<path d="M205.4,191.3c0,1.2-0.9,2.1-2.1,2.1c-1.2,0-2.1-0.9-2.1-2.1s0.9-2.1,2.1-2.1S205.4,190.1,205.4,191.3z M201.9,191.3
		c0,0.9,0.6,1.5,1.5,1.5s1.5-0.6,1.5-1.5s-0.6-1.5-1.5-1.5S201.9,190.4,201.9,191.3z"/>
	<path d="M207,190.1c0.3-0.6,0.7-0.9,1.5-0.9v0.6c-0.9,0-1.3,0.6-1.5,1.3v2.2h-0.6v-4.1h0.6V190.1z"/>
	<path d="M213,191.6h-3.4c0.1,0.7,0.7,1.3,1.5,1.3c0.4,0,0.9-0.1,1.3-0.4l0.3,0.3c-0.4,0.4-1,0.7-1.6,0.7c-1.2,0-2.1-0.9-2.1-2.1
		c0-1.2,0.9-2.1,2.1-2.1C212.4,189.2,213,190.1,213,191.6z M212.4,191c0-0.7-0.6-1.3-1.3-1.3s-1.3,0.4-1.5,1.3H212.4z"/>
	<path d="M214.4,193.1c0,0.3-0.1,0.4-0.4,0.4c-0.1,0-0.4-0.1-0.4-0.4c0-0.3,0.1-0.4,0.4-0.4S214.4,192.8,214.4,193.1z"/>
</g>
<path d="M166.5,229.7h-2.2v-6.6c1.1-0.6,2-1.7,2.2-2.9c0.3-1.1,0.1-2.1-0.4-3.1c-0.6-0.9-1.4-1.6-2.6-1.7c-0.6-0.1-1.1-0.1-1.7,0
	c0-0.1,0-0.3,0-0.4c0-2.3-1.7-4.1-4-4.1c-1.1,0-2.3,0.6-3,1.4c-1.1-1.6-3.1-2.6-5.3-2.6c-2.7,0-5.1,1.7-6,4
	c-0.4-0.1-0.7-0.1-1.1-0.1c-3,0-5.4,2.6-5.4,5.7c0,1.3,0.4,2.6,1.3,3.6c0.1,0.1,0.4,0.4,0.8,0.6v24.2v5.2v0.2c0,0,5.8,1.8,13,1.8
	c6,0,10.7-1.2,12.4-1.7v-0.2v-1.1v-8.4c0.5,0,1.4,0,2.8,0c3.6,0,3.6-3.4,3.6-3.4s0-3,0-6.7S166.5,229.7,166.5,229.7z M140.8,215.8
	c1.7-0.9,3,0,3.5-0.3c0.6-0.2,0.6-3.9,5-4.2c2-0.1,3.9,1.3,4.5,3c0.1,0.6,0.7,0.7,0.7,0.7s0.7,0.1,1.1-0.9c0.3-0.9,1.1-1.3,2-1.3
	c1.3,0,2.3,1,2.3,2.4c0,0.4-0.1,0.9-0.4,1.4s-0.1,1,0,1.1c0.1,0.3,0.6,0.4,1,0.4l0.6-0.3c0.6-0.6,1.2-1,1.9-0.8
	c1.8,0.2,1.9,2,1.8,2.6c-0.1,0.7-0.7,1.4-1.3,1.7h-22.9h-1.1c-0.4-0.7-0.7-1.4-0.7-2.3C138.9,217.7,139.7,216.4,140.8,215.8z
	 M140.7,251.7v-28.5h21.8v28.7c-1.5,0.3-6.2,1.3-10.6,1.3C147.4,253.2,143.1,252.3,140.7,251.7z M168.9,239.9c0,2-2.3,1.9-2.3,1.9
	h-2.3v-10c0.5,0,1.3,0,2.5,0c2.1,0,2.1,2.1,2.1,2.1S168.9,237.9,168.9,239.9z"/>
<path d="M145.9,227v10.1c0,0.4-0.3,0.7-0.7,0.7h-0.3c-0.4,0-0.7-0.3-0.7-0.7V227h-1.9v22.9c0,0,5,1,9.4,1s9.4-0.9,9.4-0.9v-23H145.9
	z"/>
<path fill="#231F20" stroke="#FFFFFF" stroke-width="0.5" stroke-miterlimit="10" d="M90.7,218.7v2.4c0,0-2.2,1.4-1.1,3.6
	c0.9,1.8,2.7,1.9,5.6,1c1.8-0.6,5.8-3.3,5.8-3.3c1.9-1.4,5.6-5,5.6-5l-2.1,0.5c0,0-1.3,0.5-1.5-0.9c-0.2-1.2,1.1-1.3,1.1-1.3
	l5.2-1.1c0,0,1-0.3,1.6,0c0.4,0.2,0.8,0.7,0.6,1.6c-0.3,1.6-1.2,5.3-1.2,5.3s-0.2,1.7-1.6,1.2c-0.6-0.2-0.9-0.7-0.7-1.7
	c0.1-0.3,0.5-1.7,0.5-1.7s-3.2,4-8,7.1c-2.4,1.5-4.5,2.3-6.4,2.6c-3.2,0.5-5.5-0.6-6.6-2.5c-0.7-1.3-0.8-2.6-0.4-3.8
	C87.8,219.8,90.7,218.7,90.7,218.7z"/>
</svg>
