<?xml version="1.0" encoding="utf-8"?>
<!-- Generator: Adobe Illustrator 18.1.1, SVG Export Plug-In . SVG Version: 6.00 Build 0)  -->
<svg version="1.1" id="Layer_1" xmlns="http://www.w3.org/2000/svg" xmlns:xlink="http://www.w3.org/1999/xlink" x="0px" y="0px"
	 viewBox="0 0 300 133.3" enable-background="new 0 0 300 133.3" xml:space="preserve">
<path fill="#FFFFFF" d="M123.7,10.6v1.6c0,4.7-1.3,7.8-4.7,9.3c3.8,1.6,5.3,4.9,5.3,9.7V35c0,7.1-3.8,10.9-10.9,10.9h-11.3V0h10.9
	C120.5,0,123.7,3.5,123.7,10.6z M109.5,6.6v11.9h2.9c2.6,0,4.2-1.2,4.2-4.9v-2.3c0-3.4-1.2-4.7-3.5-4.7H109.5z M109.5,25v13.9h4.2
	c2.5,0,3.8-1.2,3.8-4.4v-4c0-4.2-1.3-5.6-4.7-5.6h-3.2V25z"/>
<path fill="#FFFFFF" d="M135.9,19.2h9.7v6.4h-9.7v13.4h12.3v6.4h-19.5V0h19.5v6.4h-12.3V19.2z"/>
<path fill="#FFFFFF" d="M159.8,19.2h9.7v6.4h-9.7v13.4h12.3v6.4h-19.5V0h19.5v6.4h-12.3C159.8,6.4,159.8,19.2,159.8,19.2z"/>
<path fill="#FFFFFF" d="M191.7,45.5c-0.4-1.2-0.6-1.9-0.6-5.6v-7.1c0-4.2-1.3-5.7-4.7-5.7h-2.5v18.5h-7.1V0h10.9
	c7.5,0,10.6,3.5,10.6,10.4v3.5c0,4.7-1.6,7.8-4.7,9.3c3.5,1.6,4.7,4.9,4.7,9.7v7.1c0,2.2,0,3.8,0.9,5.6h-7.5V45.5z M183.9,6.6v13.9
	h2.9c2.6,0,4.2-1.2,4.2-4.9v-4.3c0-3.4-1.2-4.7-3.5-4.7H183.9z"/>
<path fill="#FFFFFF" d="M62.1,76.7h9.7V83h-9.7v13.2h12.3v6.4H55V57.7h19.5v6.4H62.1V76.7z"/>
<path fill="#FFFFFF" d="M102.7,57.7l-7.5,22l7.9,23.5h-7.4l-6-18.2l-6,18.2h-6.6l7.9-23.5l-7.5-22h7.5l5.3,16.9L96,57.7
	C96,57.7,102.7,57.7,102.7,57.7z"/>
<path fill="#FFFFFF" d="M128,68.7v6c0,7.3-3.5,11.3-10.6,11.3H114v17h-7.1V57.7h10.6C124.4,57.7,128,61.7,128,68.7z M114,64.1v15.4
	h3.4c2.2,0,3.5-1.2,3.5-4.2v-6.9c0-3.4-1.3-4.2-3.5-4.2H114V64.1z"/>
<path fill="#FFFFFF" d="M131.8,57.7h7.1v39.2h11.9v6.4h-19.1V57.7z"/>
<path fill="#FFFFFF" d="M153.2,68.5c0-7.3,3.8-11.5,10.9-11.5c7.1,0,10.9,4.2,10.9,11.5v23.6c0,7.3-3.8,11.5-10.9,11.5
	c-7.1,0-10.9-4.2-10.9-11.5V68.5z M160.3,92.6c0,3.4,1.3,4.4,3.8,4.4c2.2,0,3.8-1.3,3.8-4.4V68.1c0-3.4-1.3-4.4-3.8-4.4
	c-2.2,0-3.8,1.3-3.8,4.4V92.6z"/>
<path fill="#FFFFFF" d="M194.6,103.2c-0.4-1.2-0.6-1.9-0.6-5.6v-7.1c0-4.2-1.3-5.7-4.7-5.7h-2.5v18.5h-7.3V57.7h10.9
	c7.5,0,10.6,3.5,10.6,10.4v3.5c0,4.7-1.6,7.8-4.7,9.3c3.5,1.6,4.9,4.9,4.9,9.7v7.1c0,2.2,0,3.8,0.9,5.6h-7.7V103.2z M186.8,64.1V78
	h2.9c2.6,0,4.2-1.2,4.2-4.9v-4.3c0-3.4-1.2-4.7-3.5-4.7H186.8z"/>
<path fill="#FFFFFF" d="M212.8,76.7h9.7V83h-9.7v13.2h12.3v6.4h-19.5V57.7h19.5v6.4h-12.3V76.7z"/>
<path fill="#FFFFFF" d="M244.7,103.2c-0.4-1.2-0.6-1.9-0.6-5.6v-7.1c0-4.2-1.3-5.7-4.7-5.7H237v18.5h-7.1V57.7h10.9
	c7.5,0,10.6,3.5,10.6,10.4v3.5c0,4.7-1.6,7.8-4.7,9.3c3.5,1.6,4.9,4.9,4.9,9.7v7.1c0,2.2,0,3.8,0.9,5.6h-7.8V103.2z M237,64.1V78
	h2.9c2.6,0,4.2-1.2,4.2-4.9v-4.3c0-3.4-1.2-4.7-3.5-4.7H237z"/>
<path fill="#FFFFFF" d="M26.3,39.3c-2.9,0-5.6,0-8.2,0c-0.6,0-1.2-0.4-1.6-0.9c-1.3-1.3-2.2-2.9-3.8-4.4c-1.2-1.2-1.8-1.6-3.1-1.6
	c-2.2,0-4.4,0-6.9,0c0.4-0.6,1.6-1.9,2.9-1.9c3.8,0,7.3,0,11.3,0c1.6,0,2.2,0,2.9,0.6C20.1,31.6,24.5,37.1,26.3,39.3z M5.4,50.2
	c4.2,0,8.4,0,12.3,0c0.6,0,1.6-0.3,1.8-0.6c2.2-2.6,4.4-5.6,6.4-8.4c-3.1,0-5.7,0-8.4,0c-0.4,0-1.2,0.4-1.6,0.9
	c-1.3,1.3-2.5,3.1-3.8,4.4c-0.9,1-1.4,1.6-3,1.6c-2.2,0-4.9,0-6.9,0C2.6,48.4,4.7,50.2,5.4,50.2z M34.9,31.6
	c-0.4-0.4-1.2-0.9-1.6-1.2c-2.6-0.3-8.6-0.3-8.6-0.3c2.2,2.9,4.8,5.7,7.1,8.6c0.3,0.3,0.4,0.3,0.6,0.3c2.6,0,5.3,0,8.4,0
	C38.7,37,36.7,34.2,34.9,31.6z M32.7,50.2c0.4,0,1.3-0.3,1.6-0.6c2.2-2.6,4-5.3,6.2-8.2c-1.6,0-3.5,0-4.7,0c-1.3,0-2.5,0-3.4,0
	c-0.6,0-1.2,0.6-1.3,0.9c0,0-5.7,6.6-6.6,7.9C24.5,50.2,30.1,50.5,32.7,50.2z M87.3,41.4c0-0.6,0-1.3-0.3-1.8c-5.6,0-11,0-16.6,0
	c0,0.6,0,1.2,0,1.8C76.3,41.4,81.7,41.4,87.3,41.4z M0,39.3v1.8c4.4,0,8.8,0,13.2,0c0-0.6,0-1.2,0-1.8C8.6,39.3,4.4,39.3,0,39.3z
	 M49.3,31.8c-0.4-0.4-1.2-0.9-1.6-1.2c-2.6-0.3-8.6-0.3-8.6-0.3c2.2,2.9,4.9,5.7,7.1,8.6c0.3,0.3,0.4,0.3,0.6,0.3c2.6,0,5.3,0,8.4,0
	C53,37,51.1,34.2,49.3,31.8z M47.1,50.2c0.4,0,1.3-0.3,1.6-0.6c2.2-2.6,4-5.3,6.2-8.2c-1.6,0-3.5,0-4.7,0c-1.3,0-2.5,0-3.4,0
	c-0.6,0-1.2,0.6-1.3,0.9c0,0-5.7,6.6-6.6,7.9C38.9,50.2,44.4,50.5,47.1,50.2z M63.8,31.8c-0.4-0.4-1.2-0.9-1.6-1.2
	c-2.6-0.3-8.6-0.3-8.6-0.3c2.2,2.9,4.9,5.7,7.1,8.6c0.3,0.3,0.4,0.3,0.6,0.3c2.6,0,5.3,0,8.4,0C67.8,37,65.9,34.2,63.8,31.8z
	 M61.9,50.5c0.4,0,1.3-0.3,1.6-0.6c2.2-2.6,4-5.3,6.2-8.2c-1.6,0-3.5,0-4.7,0c-1.3,0-2.5,0-3.4,0c-0.6,0-1.2,0.6-1.3,0.9
	c0,0-5.7,6.6-6.6,7.9C53.7,50.5,59.3,50.5,61.9,50.5z"/>
<path fill="#FFFFFF" d="M272.1,41.5c2.9,0,5.6,0,8.2,0c0.6,0,1.2,0.4,1.6,0.9c1.3,1.3,2.2,2.9,3.8,4.4c1.2,1.2,1.8,1.6,3.1,1.6
	c2.2,0,4.4,0,6.9,0c-0.4,0.6-1.6,1.9-2.9,1.9c-3.8,0-7.3,0-11.3,0c-1.6,0-2.2,0-2.9-0.6C278.1,49.3,273.7,43.8,272.1,41.5z
	 M292.7,30.7c-4.2,0-8.4,0-12.3,0c-0.6,0-1.6,0.3-1.8,0.6c-2.2,2.6-4.4,5.6-6.4,8.4c3.1,0,5.7,0,8.4,0c0.4,0,1.2-0.4,1.6-0.9
	c1.3-1.3,2.5-3.1,3.8-4.4c1.2-1.2,1.6-1.6,3.1-1.6c2.2,0,4.9,0,6.9,0C295.6,32.7,293.5,30.7,292.7,30.7z M263.6,49.3
	c0.4,0.4,1.2,0.9,1.6,1.2c2.6,0.3,8.6,0.3,8.6,0.3c-2.2-2.9-4.9-5.7-7.1-8.6c-0.3-0.3-0.4-0.3-0.6-0.3c-2.6,0-5.3,0-8.4,0
	C259.5,44.2,261.5,46.7,263.6,49.3z M265.5,30.7c-0.4,0-1.3,0.3-1.6,0.6c-2.2,2.6-4,5.3-6.2,8.2c1.6,0,3.5,0,4.7,0
	c1.3,0,2.5,0,3.4,0c0.6,0,1.2-0.6,1.3-0.9c0,0,5.7-6.6,6.6-7.9C273.7,30.7,268.1,30.5,265.5,30.7z M212.5,39.6c0,0.6,0,1.3,0.3,1.8
	c5.6,0,11,0,16.6,0c0-0.6,0-1.2,0-1.8C223.5,39.6,217.9,39.6,212.5,39.6z M298.4,41.5v-1.8c-4.4,0-8.8,0-13.2,0c0,0.6,0,1.2,0,1.8
	C289.6,41.5,293.8,41.5,298.4,41.5z M249.3,49c0.4,0.4,1.2,0.9,1.6,1.2c2.6,0.3,8.6,0.3,8.6,0.3c-2.2-2.9-4.8-5.7-7.1-8.6
	c-0.3-0.3-0.4-0.3-0.6-0.3c-2.6,0-5.3,0-8.4,0C245.7,44,247.3,46.4,249.3,49z M251.6,30.5c-0.4,0-1.3,0.3-1.6,0.6
	c-2.2,2.6-4,5.3-6.2,8.2c1.6,0,3.5,0,4.7,0c1.3,0,2.5,0,3.4,0c0.6,0,1.2-0.6,1.3-0.9c0,0,5.7-6.6,6.6-7.9
	C259.8,30.5,254,30.4,251.6,30.5z M235.7,49c0.4,0.4,1.2,0.9,1.6,1.2c2.6,0.3,8.6,0.3,8.6,0.3c-2.2-2.9-4.8-5.7-7.1-8.6
	c-0.3-0.3-0.4-0.3-0.6-0.3c-2.6,0-5.3,0-8.4,0C231.9,44,233.6,46.7,235.7,49z M237.9,30.7c-0.4,0-1.3,0.3-1.6,0.6
	c-2.2,2.6-4,5.3-6.2,8.2c1.6,0,3.5,0,4.7,0c1.3,0,2.5,0,3.4,0c0.6,0,1.2-0.6,1.3-0.9c0,0,5.7-6.6,6.6-7.9
	C246,30.5,240.3,30.5,237.9,30.7z"/>
<g>
	<path fill="#FFFFFF" d="M57.5,120.4v7.4h-0.9v-7.4h-2.7v-0.9h6.4v0.9H57.5z"/>
	<path fill="#FFFFFF" d="M61.9,122.8c0.4-0.9,1.2-1.4,2.2-1.4v0.9c-1.3,0-2.2,0.8-2.2,2.1v3.4H61v-6.4h0.9V122.8z"/>
	<path fill="#FFFFFF" d="M67.7,128.7c-0.4,0.9-1,1.4-1.9,1.4c-0.5,0-0.9-0.1-1.3-0.5l0.4-0.8c0.3,0.3,0.5,0.3,0.9,0.3
		c0.5,0,0.9-0.3,1.2-0.9l0.3-0.6l-2.6-6.2h1l2.1,5.2l1.9-5.2h0.9L67.7,128.7z"/>
	<path fill="#FFFFFF" d="M78.9,126.8c-0.5,0.6-1.3,1-2.3,1c-1.3,0-2.1-0.8-2.1-1.9c0-1,0.9-1.8,2.3-1.8h2.1v-0.4
		c0-0.9-0.5-1.4-1.7-1.4c-0.6,0-1.3,0.3-1.9,0.8l-0.4-0.6c0.8-0.5,1.6-0.9,2.6-0.9c1.6,0,2.5,0.8,2.5,2.2v4.2h-1V126.8z M78.9,125.6
		v-0.8h-1.9c-1,0-1.6,0.3-1.6,1c0,0.6,0.5,1.2,1.4,1.2C77.8,127,78.6,126.5,78.9,125.6z"/>
	<path fill="#FFFFFF" d="M91.6,124.6c0,1.8-1.2,3.1-3,3.1c-1.2,0-1.9-0.5-2.5-1.4v1.3h-0.9v-8.8h0.9v3.9c0.5-0.9,1.3-1.4,2.5-1.4
		C90.3,121.4,91.6,122.7,91.6,124.6z M90.7,124.6c0-1.3-0.9-2.3-2.2-2.3c-1.3,0-2.2,1-2.2,2.3c0,1.4,0.9,2.3,2.2,2.3
		C89.6,127,90.7,125.9,90.7,124.6z"/>
	<path fill="#FFFFFF" d="M98.6,125h-5.2c0.1,1.2,1,1.9,2.3,1.9c0.8,0,1.4-0.3,1.9-0.8l0.5,0.5c-0.6,0.6-1.4,1-2.6,1
		c-1.8,0-3.1-1.3-3.1-3.2s1.3-3.2,3.1-3.2C97.7,121.4,98.7,122.8,98.6,125z M97.8,124.3c0-1.2-0.9-1.9-2.1-1.9
		c-1.2,0-2.1,0.8-2.2,1.9H97.8z"/>
	<path fill="#FFFFFF" d="M105.6,125h-5.2c0.1,1.2,1,1.9,2.3,1.9c0.8,0,1.4-0.3,1.9-0.8l0.5,0.5c-0.6,0.6-1.4,1-2.6,1
		c-1.8,0-3.1-1.3-3.1-3.2s1.3-3.2,3.1-3.2C104.7,121.4,105.7,122.8,105.6,125z M104.8,124.3c0-1.2-0.9-1.9-2.1-1.9
		c-1.2,0-2.1,0.8-2.2,1.9H104.8z"/>
	<path fill="#FFFFFF" d="M108.2,122.8c0.4-0.9,1.2-1.4,2.2-1.4v0.9c-1.3,0-2.2,0.8-2.2,2.1v3.4h-0.9v-6.4h0.9V122.8z"/>
	<path fill="#FFFFFF" d="M117,128.7c-0.4,0.9-1,1.4-1.9,1.4c-0.5,0-0.9-0.1-1.3-0.5l0.4-0.8c0.3,0.3,0.5,0.3,0.9,0.3
		c0.5,0,0.9-0.3,1.2-0.9l0.3-0.6l-2.6-6.2h1l2.1,5.2l1.9-5.2h0.9L117,128.7z"/>
	<path fill="#FFFFFF" d="M126.5,124.6c0,1.9-1.3,3.2-3.2,3.2c-1.8,0-3.2-1.3-3.2-3.2c0-1.8,1.3-3.1,3.2-3.1
		C125.2,121.4,126.5,122.7,126.5,124.6z M121,124.6c0,1.4,0.9,2.3,2.2,2.3c1.3,0,2.2-0.9,2.2-2.3c0-1.4-0.9-2.3-2.2-2.3
		C122,122.3,121,123.2,121,124.6z"/>
	<path fill="#FFFFFF" d="M133.6,127.8h-0.9v-1.4c-0.4,1-1.3,1.4-2.3,1.4c-1.4,0-2.3-0.9-2.3-2.5v-3.9h0.9v3.6c0,1.2,0.6,1.8,1.7,1.8
		c1.3,0,2.1-0.9,2.1-2.3v-3.1h0.9C133.6,121.4,133.6,127.8,133.6,127.8z"/>
	<path fill="#FFFFFF" d="M136.4,120c0,0.1-0.1,0.4-0.1,0.5l-0.5,0.9h-0.5l0.4-0.9c-0.1-0.1-0.3-0.3-0.3-0.5c0-0.4,0.3-0.6,0.5-0.6
		C136.2,119.5,136.4,119.6,136.4,120z"/>
	<path fill="#FFFFFF" d="M139.7,127.8l-2.5-6.4h1l1.9,5.3l1.9-5.3h0.9l-2.5,6.4H139.7z"/>
	<path fill="#FFFFFF" d="M149.4,125h-5.2c0.1,1.2,1,1.9,2.3,1.9c0.8,0,1.4-0.3,1.9-0.8l0.5,0.5c-0.6,0.6-1.4,1-2.6,1
		c-1.8,0-3.1-1.3-3.1-3.2s1.3-3.2,3.1-3.2C148.5,121.4,149.5,122.8,149.4,125z M148.5,124.3c0-1.2-0.9-1.9-2.1-1.9
		c-1.2,0-2.1,0.8-2.2,1.9H148.5z"/>
	<path fill="#FFFFFF" d="M160.1,123.9v3.9h-0.9v-3.6c0-1.2-0.6-1.8-1.8-1.8c-1.3,0-1.9,0.8-2.1,2.1v3.4h-0.9v-6.4h0.9v1.4
		c0.4-0.9,1.3-1.4,2.5-1.4C159.1,121.4,160.1,122.3,160.1,123.9z"/>
	<path fill="#FFFFFF" d="M167.6,125h-5.2c0.1,1.2,1,1.9,2.3,1.9c0.8,0,1.4-0.3,1.9-0.8l0.5,0.5c-0.6,0.6-1.4,1-2.6,1
		c-1.8,0-3.1-1.3-3.1-3.2s1.3-3.2,3.1-3.2C166.7,121.4,167.6,122.8,167.6,125z M166.7,124.3c0-1.2-0.9-1.9-2.1-1.9s-2.1,0.8-2.2,1.9
		H166.7z"/>
	<path fill="#FFFFFF" d="M170.3,127.8l-2.5-6.4h1l1.9,5.3l1.9-5.3h0.9l-2.5,6.4H170.3z"/>
	<path fill="#FFFFFF" d="M180.2,125H175c0.1,1.2,1,1.9,2.3,1.9c0.8,0,1.4-0.3,1.9-0.8l0.5,0.5c-0.6,0.6-1.4,1-2.6,1
		c-1.8,0-3.1-1.3-3.1-3.2s1.3-3.2,3.1-3.2C179.2,121.4,180.2,122.8,180.2,125z M179.2,124.3c0-1.2-0.9-1.9-2.1-1.9
		c-1.2,0-2.1,0.8-2.2,1.9H179.2z"/>
	<path fill="#FFFFFF" d="M182.6,122.8c0.4-0.9,1.2-1.4,2.2-1.4v0.9c-1.3,0-2.2,0.8-2.2,2.1v3.4h-0.9v-6.4h0.9V122.8z"/>
	<path fill="#FFFFFF" d="M195.2,123.9v3.9h-0.9v-3.6c0-1.2-0.6-1.8-1.8-1.8c-1.3,0-2.1,0.9-2.1,2.3v3.1h-0.9v-8.8h0.9v4
		c0.4-1,1.3-1.4,2.5-1.4C194.3,121.4,195.2,122.3,195.2,123.9z"/>
	<path fill="#FFFFFF" d="M201.2,126.8c-0.5,0.6-1.3,1-2.3,1c-1.3,0-2.1-0.8-2.1-1.9c0-1,0.9-1.8,2.3-1.8h2.1v-0.4
		c0-0.9-0.5-1.4-1.7-1.4c-0.6,0-1.3,0.3-1.9,0.8l-0.4-0.6c0.8-0.5,1.6-0.9,2.6-0.9c1.6,0,2.5,0.8,2.5,2.2v4.2h-0.9v-1H201.2z
		 M201.2,125.6v-0.8h-1.9c-1,0-1.6,0.3-1.6,1c0,0.6,0.5,1.2,1.4,1.2C200.1,127,201,126.5,201.2,125.6z"/>
	<path fill="#FFFFFF" d="M210,127.8h-0.9v-1.3c-0.5,0.9-1.3,1.4-2.5,1.4c-1.8,0-3-1.3-3-3.2s1.3-3.2,3-3.2c1.2,0,1.9,0.5,2.5,1.4
		v-3.9h0.9V127.8z M209.1,124.6c0-1.4-0.9-2.3-2.3-2.3c-1.3,0-2.3,1-2.3,2.3c0,1.4,0.9,2.3,2.3,2.3S209.1,125.9,209.1,124.6z"/>
	<path fill="#FFFFFF" d="M222,124.6c0,1.8-1.2,3.1-3,3.1c-1.2,0-1.9-0.5-2.5-1.4v1.3h-0.9v-8.8h0.9v3.9c0.5-0.9,1.3-1.4,2.5-1.4
		C220.8,121.4,222,122.7,222,124.6z M221.1,124.6c0-1.3-0.9-2.3-2.2-2.3s-2.2,1-2.2,2.3c0,1.4,0.9,2.3,2.2,2.3
		C220.1,127,221.1,125.9,221.1,124.6z"/>
	<path fill="#FFFFFF" d="M229.1,125h-5.2c0.1,1.2,1,1.9,2.3,1.9c0.8,0,1.4-0.3,1.9-0.8l0.5,0.5c-0.6,0.6-1.4,1-2.6,1
		c-1.8,0-3.1-1.3-3.1-3.2s1.3-3.2,3.1-3.2C228.1,121.4,229.2,122.8,229.1,125z M228.3,124.3c0-1.2-0.9-1.9-2.1-1.9
		c-1.2,0-2.1,0.8-2.2,1.9H228.3z"/>
	<path fill="#FFFFFF" d="M231.8,120.9v0.8h1.8v0.8h-1.8v5.3h-0.9v-5.3h-0.8v-0.8h0.8V121c0-1.4,0.9-2.1,2.1-2.1
		c0.5,0,0.9,0.1,1.3,0.4l-0.4,0.8c-0.3-0.3-0.6-0.3-0.9-0.3C232.3,119.7,231.8,120.1,231.8,120.9z"/>
	<path fill="#FFFFFF" d="M240.2,124.6c0,1.9-1.3,3.2-3.2,3.2c-1.8,0-3.2-1.3-3.2-3.2c0-1.8,1.3-3.1,3.2-3.1
		C238.8,121.4,240.2,122.7,240.2,124.6z M234.8,124.6c0,1.4,0.9,2.3,2.2,2.3c1.3,0,2.2-0.9,2.2-2.3c0-1.4-0.9-2.3-2.2-2.3
		C235.7,122.3,234.8,123.2,234.8,124.6z"/>
	<path fill="#FFFFFF" d="M242.7,122.8c0.4-0.9,1.2-1.4,2.2-1.4v0.9c-1.3,0-2.2,0.8-2.2,2.1v3.4h-0.9v-6.4h0.9V122.8z"/>
	<path fill="#FFFFFF" d="M251.6,125h-5.2c0.1,1.2,1,1.9,2.3,1.9c0.8,0,1.4-0.3,1.9-0.8l0.5,0.5c-0.6,0.6-1.4,1-2.6,1
		c-1.8,0-3.1-1.3-3.1-3.2s1.3-3.2,3.1-3.2C250.7,121.4,251.8,122.8,251.6,125z M250.8,124.3c0-1.2-0.9-1.9-2.1-1.9
		c-1.2,0-2.1,0.8-2.2,1.9H250.8z"/>
	<path fill="#FFFFFF" d="M254,127.2c0,0.4-0.3,0.6-0.5,0.6c-0.4,0-0.6-0.3-0.6-0.6s0.3-0.6,0.6-0.6C253.7,126.6,254,126.8,254,127.2
		z"/>
</g>
</svg>
