<?xml version="1.0" encoding="utf-8"?>
<!-- Generator: Adobe Illustrator 18.1.1, SVG Export Plug-In . SVG Version: 6.00 Build 0)  -->
<svg version="1.1" id="Layer_1" xmlns="http://www.w3.org/2000/svg" xmlns:xlink="http://www.w3.org/1999/xlink" x="0px" y="0px"
	 viewBox="0 0 22.1 82.6" enable-background="new 0 0 22.1 82.6" xml:space="preserve">
<path fill="#FCB918" d="M22,55.6c0-5.3,0-10.6-0.1-15.9c-0.1-3.9-1.1-8.2-4.4-10.7c-1.2-0.9-1.4-2.8-1.4-3.2
	c-0.6-4.8-1.2-14.3-1.4-17.4l0.7-0.9c-0.2-1.2-0.5-3.8-0.6-4.7c0-0.2-0.7-0.5-0.7-0.5c-0.6-0.1,0.9-0.2,0.9-0.7
	c0-0.7-0.3-1.2-1.9-1.4C12.2,0,11.1,0,11.1,0C7.6,0,7,0.4,6.8,1.4c0,0.6,1,0.5,0.9,0.9C7.8,2.3,7,2.6,7,2.8C7,4,6.6,5.7,6.3,7.5
	L7,8.4c-0.4,6.3-0.8,11.1-1.2,17.4c-0.1,1.2-0.3,2.3-1.2,3.2c-3.1,3-4.4,6.6-4.5,10.8C0,45.2,0,69.9,0,76.5c0,3.9,1.8,4.9,4.5,5.6
	c2.2,0.4,4.6,0.4,6.9,0.4c1.8,0,3.8-0.1,5.6-0.3c3.8-0.6,5.1-2.1,5.1-5.7C22,69.6,22,62.7,22,55.6z"/>
<path fill="#F9CC67" d="M8.5,9.8c0,0-0.4,14.6-1,17.4c-0.6,2.7-2.2,3.7-3,5.1s-2.1,2.8-2.1,9c0,6.2,0,32.8,0,32.8v2.7
	c0,0,0.2,0.9,0.6,1.4c0.4,0.4,1.6,0.9,1.6,0.9V42.6c0,0-0.3-5.6,1.9-9.4c1.7-2.9,2.4-3.6,2.4-7.8c0-5,0.2-15,0.2-15L8.5,9.8z"/>
</svg>
