<?xml version="1.0" encoding="utf-8"?>
<!-- Generator: Adobe Illustrator 18.1.1, SVG Export Plug-In . SVG Version: 6.00 Build 0)  -->
<svg version="1.1" id="Layer_1" xmlns="http://www.w3.org/2000/svg" xmlns:xlink="http://www.w3.org/1999/xlink" x="0px" y="0px"
	 viewBox="0 0 231.3 107" enable-background="new 0 0 231.3 107" xml:space="preserve">
<path d="M96.6,8.2v1.2c0,3.6-1,6-3.6,7.2c2.9,1.2,4.1,3.8,4.1,7.5v2.9c0,5.5-2.9,8.4-8.4,8.4h-8.7V0h8.4C94.1,0,96.6,2.7,96.6,8.2z
	 M85.6,5.1v9.2h2.2c2,0,3.2-0.9,3.2-3.8V8.7c0-2.6-0.9-3.6-2.7-3.6H85.6z M85.6,19.3V30h3.2c1.9,0,2.9-0.9,2.9-3.4v-3.1
	c0-3.2-1-4.3-3.6-4.3H85.6z"/>
<path d="M106,14.8h7.5v4.9H106V30h9.5v4.9h-15V0h15v4.9H106V14.8z"/>
<path d="M124.4,14.8h7.5v4.9h-7.5V30h9.5v4.9h-15V0h15v4.9h-9.5V14.8z"/>
<path d="M149,35.1c-0.3-0.9-0.5-1.5-0.5-4.3v-5.5c0-3.2-1-4.4-3.6-4.4H143v14.3h-5.5V0h8.4c5.8,0,8.2,2.7,8.2,8v2.7
	c0,3.6-1.2,6-3.6,7.2c2.7,1.2,3.6,3.8,3.6,7.5v5.5c0,1.7,0,2.9,0.7,4.3H149z M143,5.1v10.7h2.2c2,0,3.2-0.9,3.2-3.8V8.7
	c0-2.6-0.9-3.6-2.7-3.6H143z"/>
<path d="M49.1,59.1h7.5v4.9h-7.5v10.2h9.5v4.9h-15V44.5h15v4.9h-9.5V59.1z"/>
<path d="M80.4,44.5l-5.8,17l6.1,18.1H75l-4.6-14l-4.6,14h-5.1l6.1-18.1l-5.8-17h5.8l4.1,13l4.3-13C75.2,44.5,80.4,44.5,80.4,44.5z"
	/>
<path d="M99.9,53v4.6c0,5.6-2.7,8.7-8.2,8.7h-2.6v13.1h-5.5V44.5h8.2C97.1,44.5,99.9,47.6,99.9,53z M89.1,49.4v11.9h2.6
	c1.7,0,2.7-0.9,2.7-3.2v-5.3c0-2.6-1-3.2-2.7-3.2h-2.6V49.4z"/>
<path d="M102.8,44.5h5.5v30.2h9.2v4.9h-14.7V44.5z"/>
<path d="M119.3,52.8c0-5.6,2.9-8.9,8.4-8.9c5.5,0,8.4,3.2,8.4,8.9v18.2c0,5.6-2.9,8.9-8.4,8.9c-5.5,0-8.4-3.2-8.4-8.9V52.8z
	 M124.8,71.4c0,2.6,1,3.4,2.9,3.4c1.7,0,2.9-1,2.9-3.4V52.5c0-2.6-1-3.4-2.9-3.4c-1.7,0-2.9,1-2.9,3.4V71.4z"/>
<path d="M151.2,79.6c-0.3-0.9-0.5-1.5-0.5-4.3v-5.5c0-3.2-1-4.4-3.6-4.4h-1.9v14.3h-5.6V44.5h8.4c5.8,0,8.2,2.7,8.2,8v2.7
	c0,3.6-1.2,6-3.6,7.2c2.7,1.2,3.8,3.8,3.8,7.5v5.5c0,1.7,0,2.9,0.7,4.3H151.2z M145.2,49.4v10.7h2.2c2,0,3.2-0.9,3.2-3.8V53
	c0-2.6-0.9-3.6-2.7-3.6H145.2z"/>
<path d="M165.3,59.1h7.5v4.9h-7.5v10.2h9.5v4.9h-15V44.5h15v4.9h-9.5V59.1z"/>
<path d="M189.9,79.6c-0.3-0.9-0.5-1.5-0.5-4.3v-5.5c0-3.2-1-4.4-3.6-4.4h-1.9v14.3h-5.5V44.5h8.4c5.8,0,8.2,2.7,8.2,8v2.7
	c0,3.6-1.2,6-3.6,7.2c2.7,1.2,3.8,3.8,3.8,7.5v5.5c0,1.7,0,2.9,0.7,4.3H189.9z M183.9,49.4v10.7h2.2c2,0,3.2-0.9,3.2-3.8V53
	c0-2.6-0.9-3.6-2.7-3.6H183.9z"/>
<path d="M21.5,30.3c-2.2,0-4.3,0-6.3,0c-0.5,0-0.9-0.3-1.2-0.7c-1-1-1.7-2.2-2.9-3.4c-0.9-0.9-1.4-1.2-2.4-1.2c-1.7,0-3.4,0-5.3,0
	c0.3-0.5,1.2-1.5,2.2-1.5c2.9,0,5.6,0,8.7,0c1.2,0,1.7,0,2.2,0.5C16.7,24.4,20.1,28.6,21.5,30.3z M5.4,38.7c3.2,0,6.5,0,9.5,0
	c0.5,0,1.2-0.2,1.4-0.5c1.7-2,3.4-4.3,4.9-6.5c-2.4,0-4.4,0-6.5,0c-0.3,0-0.9,0.3-1.2,0.7c-1,1-1.9,2.4-2.9,3.4
	C9.9,36.6,9.5,37,8.3,37c-1.7,0-3.8,0-5.3,0C3.2,37.3,4.8,38.7,5.4,38.7z M28.1,24.4c-0.3-0.3-0.9-0.7-1.2-0.9
	c-2-0.2-6.6-0.2-6.6-0.2c1.7,2.2,3.7,4.4,5.5,6.6c0.2,0.2,0.3,0.2,0.5,0.2c2,0,4.1,0,6.5,0C31,28.5,29.5,26.4,28.1,24.4z M26.4,38.7
	c0.3,0,1-0.2,1.2-0.5c1.7-2,3.1-4.1,4.8-6.3c-1.2,0-2.7,0-3.6,0c-1,0-1.9,0-2.6,0c-0.5,0-0.9,0.5-1,0.7c0,0-4.4,5.1-5.1,6.1
	C20.1,38.7,24.4,38.9,26.4,38.7z M68.5,31.9c0-0.5,0-1-0.2-1.4c-4.3,0-8.5,0-12.8,0c0,0.5,0,0.9,0,1.4C60,31.9,64.2,31.9,68.5,31.9z
	 M1.2,30.3v1.4c3.4,0,6.8,0,10.2,0c0-0.5,0-0.9,0-1.4C7.8,30.3,4.6,30.3,1.2,30.3z M39.2,24.5c-0.3-0.3-0.9-0.7-1.2-0.9
	c-2-0.2-6.6-0.2-6.6-0.2c1.7,2.2,3.8,4.4,5.5,6.6c0.2,0.2,0.3,0.2,0.5,0.2c2,0,4.1,0,6.5,0C42.1,28.5,40.6,26.4,39.2,24.5z
	 M37.5,38.7c0.3,0,1-0.2,1.2-0.5c1.7-2,3.1-4.1,4.8-6.3c-1.2,0-2.7,0-3.6,0c-1,0-1.9,0-2.6,0c-0.5,0-0.9,0.5-1,0.7
	c0,0-4.4,5.1-5.1,6.1C31.2,38.7,35.4,38.9,37.5,38.7z M50.4,24.5c-0.3-0.3-0.9-0.7-1.2-0.9c-2-0.2-6.6-0.2-6.6-0.2
	c1.7,2.2,3.8,4.4,5.5,6.6c0.2,0.2,0.3,0.2,0.5,0.2c2,0,4.1,0,6.5,0C53.5,28.5,52,26.4,50.4,24.5z M48.9,38.9c0.3,0,1-0.2,1.2-0.5
	c1.7-2,3.1-4.1,4.8-6.3c-1.2,0-2.7,0-3.6,0c-1,0-1.9,0-2.6,0c-0.5,0-0.9,0.5-1,0.7c0,0-4.4,5.1-5.1,6.1
	C42.6,38.9,46.9,38.9,48.9,38.9z"/>
<path d="M211,32c2.2,0,4.3,0,6.3,0c0.5,0,0.9,0.3,1.2,0.7c1,1,1.7,2.2,2.9,3.4c0.9,0.9,1.4,1.2,2.4,1.2c1.7,0,3.4,0,5.3,0
	c-0.3,0.5-1.2,1.5-2.2,1.5c-2.9,0-5.6,0-8.7,0c-1.2,0-1.7,0-2.2-0.5C215.6,38,212.2,33.8,211,32z M226.9,23.7c-3.2,0-6.5,0-9.5,0
	c-0.5,0-1.2,0.2-1.4,0.5c-1.7,2-3.4,4.3-4.9,6.5c2.4,0,4.4,0,6.5,0c0.3,0,0.9-0.3,1.2-0.7c1-1,1.9-2.4,2.9-3.4
	c0.9-0.9,1.2-1.2,2.4-1.2c1.7,0,3.8,0,5.3,0C229.1,25.2,227.5,23.7,226.9,23.7z M204.4,38c0.3,0.3,0.9,0.7,1.2,0.9
	c2,0.2,6.6,0.2,6.6,0.2c-1.7-2.2-3.8-4.4-5.5-6.6c-0.2-0.2-0.3-0.2-0.5-0.2c-2,0-4.1,0-6.5,0C201.3,34.1,202.8,36,204.4,38z
	 M205.9,23.7c-0.3,0-1,0.2-1.2,0.5c-1.7,2-3.1,4.1-4.8,6.3c1.2,0,2.7,0,3.6,0c1,0,1.9,0,2.6,0c0.5,0,0.9-0.5,1-0.7
	c0,0,4.4-5.1,5.1-6.1C212.2,23.7,207.9,23.5,205.9,23.7z M165,30.5c0,0.5,0,1,0.2,1.4c4.3,0,8.5,0,12.8,0c0-0.5,0-0.9,0-1.4
	C173.5,30.5,169.2,30.5,165,30.5z M231.3,32v-1.4c-3.4,0-6.8,0-10.2,0c0,0.5,0,0.9,0,1.4C224.5,32,227.7,32,231.3,32z M193.4,37.8
	c0.3,0.3,0.9,0.7,1.2,0.9c2,0.2,6.6,0.2,6.6,0.2c-1.7-2.2-3.7-4.4-5.5-6.6c-0.2-0.2-0.3-0.2-0.5-0.2c-2,0-4.1,0-6.5,0
	C190.6,33.9,191.9,35.8,193.4,37.8z M195.2,23.5c-0.3,0-1,0.2-1.2,0.5c-1.7,2-3.1,4.1-4.8,6.3c1.2,0,2.7,0,3.6,0c1,0,1.9,0,2.6,0
	c0.5,0,0.9-0.5,1-0.7c0,0,4.4-5.1,5.1-6.1C201.5,23.5,197,23.4,195.2,23.5z M182.9,37.8c0.3,0.3,0.9,0.7,1.2,0.9
	c2,0.2,6.6,0.2,6.6,0.2c-1.7-2.2-3.7-4.4-5.5-6.6c-0.2-0.2-0.3-0.2-0.5-0.2c-2,0-4.1,0-6.5,0C180,33.9,181.3,36,182.9,37.8z
	 M184.6,23.7c-0.3,0-1,0.2-1.2,0.5c-1.7,2-3.1,4.1-4.8,6.3c1.2,0,2.7,0,3.6,0c1,0,1.9,0,2.6,0c0.5,0,0.9-0.5,1-0.7
	c0,0,4.4-5.1,5.1-6.1C190.9,23.5,186.5,23.5,184.6,23.7z"/>
<g>
	<path d="M45.5,92.8v5.7h-0.7v-5.7h-2.1v-0.7h4.9v0.7H45.5z"/>
	<path d="M48.9,94.7c0.3-0.7,0.9-1.1,1.7-1.1v0.7c-1,0-1.7,0.6-1.7,1.6v2.6h-0.7v-4.9h0.7V94.7z"/>
	<path d="M53.4,99.2c-0.3,0.7-0.8,1.1-1.5,1.1c-0.4,0-0.7-0.1-1-0.4l0.3-0.6c0.2,0.2,0.4,0.2,0.7,0.2c0.4,0,0.7-0.2,0.9-0.7l0.2-0.5
		l-2-4.8h0.8l1.6,4l1.5-4h0.7L53.4,99.2z"/>
	<path d="M62,97.8c-0.4,0.5-1,0.8-1.8,0.8c-1,0-1.6-0.6-1.6-1.5c0-0.8,0.7-1.4,1.8-1.4H62v-0.3c0-0.7-0.4-1.1-1.3-1.1
		c-0.5,0-1,0.2-1.5,0.6l-0.3-0.5c0.6-0.4,1.2-0.7,2-0.7c1.2,0,1.9,0.6,1.9,1.7l0,3.2H62V97.8z M62,96.8v-0.6h-1.5
		c-0.8,0-1.2,0.2-1.2,0.8c0,0.5,0.4,0.9,1.1,0.9C61.2,97.9,61.8,97.5,62,96.8z"/>
	<path d="M71.8,96.1c0,1.4-0.9,2.4-2.3,2.4c-0.9,0-1.5-0.4-1.9-1.1v1h-0.7v-6.8h0.7v3c0.4-0.7,1-1.1,1.9-1.1
		C70.8,93.6,71.8,94.6,71.8,96.1z M71.1,96.1c0-1-0.7-1.8-1.7-1.8c-1,0-1.7,0.8-1.7,1.8c0,1.1,0.7,1.8,1.7,1.8
		C70.3,97.9,71.1,97.1,71.1,96.1z"/>
	<path d="M77.2,96.4h-4c0.1,0.9,0.8,1.5,1.8,1.5c0.6,0,1.1-0.2,1.5-0.6l0.4,0.4c-0.5,0.5-1.1,0.8-2,0.8c-1.4,0-2.4-1-2.4-2.5
		s1-2.5,2.4-2.5C76.5,93.6,77.3,94.7,77.2,96.4z M76.6,95.8c0-0.9-0.7-1.5-1.6-1.5c-0.9,0-1.6,0.6-1.7,1.5H76.6z"/>
	<path d="M82.6,96.4h-4c0.1,0.9,0.8,1.5,1.8,1.5c0.6,0,1.1-0.2,1.5-0.6l0.4,0.4c-0.5,0.5-1.1,0.8-2,0.8c-1.4,0-2.4-1-2.4-2.5
		s1-2.5,2.4-2.5C81.9,93.6,82.7,94.7,82.6,96.4z M82,95.8c0-0.9-0.7-1.5-1.6-1.5c-0.9,0-1.6,0.6-1.7,1.5H82z"/>
	<path d="M84.6,94.7c0.3-0.7,0.9-1.1,1.7-1.1v0.7c-1,0-1.7,0.6-1.7,1.6v2.6h-0.7v-4.9h0.7V94.7z"/>
	<path d="M91.4,99.2c-0.3,0.7-0.8,1.1-1.5,1.1c-0.4,0-0.7-0.1-1-0.4l0.3-0.6c0.2,0.2,0.4,0.2,0.7,0.2c0.4,0,0.7-0.2,0.9-0.7l0.2-0.5
		l-2-4.8h0.8l1.6,4l1.5-4h0.7L91.4,99.2z"/>
	<path d="M98.7,96.1c0,1.5-1,2.5-2.5,2.5c-1.4,0-2.5-1-2.5-2.5c0-1.4,1-2.4,2.5-2.4C97.7,93.6,98.7,94.6,98.7,96.1z M94.5,96.1
		c0,1.1,0.7,1.8,1.7,1.8c1,0,1.7-0.7,1.7-1.8c0-1.1-0.7-1.8-1.7-1.8C95.3,94.3,94.5,95,94.5,96.1z"/>
	<path d="M104.2,98.5h-0.7v-1.1c-0.3,0.8-1,1.1-1.8,1.1c-1.1,0-1.8-0.7-1.8-1.9v-3h0.7v2.8c0,0.9,0.5,1.4,1.3,1.4
		c1,0,1.6-0.7,1.6-1.8v-2.4h0.7V98.5z"/>
	<path d="M106.4,92.5c0,0.1-0.1,0.3-0.1,0.4l-0.4,0.7h-0.4l0.3-0.7c-0.1-0.1-0.2-0.2-0.2-0.4c0-0.3,0.2-0.5,0.4-0.5
		C106.2,92.1,106.4,92.2,106.4,92.5z"/>
	<path d="M108.9,98.5l-1.9-4.9h0.8l1.5,4.1l1.5-4.1h0.7l-1.9,4.9H108.9z"/>
	<path d="M116.4,96.4h-4c0.1,0.9,0.8,1.5,1.8,1.5c0.6,0,1.1-0.2,1.5-0.6l0.4,0.4c-0.5,0.5-1.1,0.8-2,0.8c-1.4,0-2.4-1-2.4-2.5
		s1-2.5,2.4-2.5C115.7,93.6,116.5,94.7,116.4,96.4z M115.7,95.8c0-0.9-0.7-1.5-1.6-1.5c-0.9,0-1.6,0.6-1.7,1.5H115.7z"/>
	<path d="M124.6,95.5v3h-0.7v-2.8c0-0.9-0.5-1.4-1.4-1.4c-1,0-1.5,0.6-1.6,1.6v2.6h-0.7v-4.9h0.7v1.1c0.3-0.7,1-1.1,1.9-1.1
		C123.9,93.6,124.6,94.3,124.6,95.5z"/>
	<path d="M130.4,96.4h-4c0.1,0.9,0.8,1.5,1.8,1.5c0.6,0,1.1-0.2,1.5-0.6l0.4,0.4c-0.5,0.5-1.1,0.8-2,0.8c-1.4,0-2.4-1-2.4-2.5
		s1-2.5,2.4-2.5C129.7,93.6,130.4,94.7,130.4,96.4z M129.7,95.8c0-0.9-0.7-1.5-1.6-1.5c-0.9,0-1.6,0.6-1.7,1.5H129.7z"/>
	<path d="M132.5,98.5l-1.9-4.9h0.8l1.5,4.1l1.5-4.1h0.7l-1.9,4.9H132.5z"/>
	<path d="M140.1,96.4h-4c0.1,0.9,0.8,1.5,1.8,1.5c0.6,0,1.1-0.2,1.5-0.6l0.4,0.4c-0.5,0.5-1.1,0.8-2,0.8c-1.4,0-2.4-1-2.4-2.5
		s1-2.5,2.4-2.5C139.4,93.6,140.1,94.7,140.1,96.4z M139.4,95.8c0-0.9-0.7-1.5-1.6-1.5c-0.9,0-1.6,0.6-1.7,1.5H139.4z"/>
	<path d="M142,94.7c0.3-0.7,0.9-1.1,1.7-1.1v0.7c-1,0-1.7,0.6-1.7,1.6v2.6h-0.7v-4.9h0.7V94.7z"/>
	<path d="M151.7,95.5v3H151v-2.8c0-0.9-0.5-1.4-1.4-1.4c-1,0-1.6,0.7-1.6,1.8v2.4h-0.7v-6.8h0.7v3.1c0.3-0.8,1-1.1,1.9-1.1
		C151,93.6,151.7,94.3,151.7,95.5z"/>
	<path d="M156.3,97.8c-0.4,0.5-1,0.8-1.8,0.8c-1,0-1.6-0.6-1.6-1.5c0-0.8,0.7-1.4,1.8-1.4h1.6v-0.3c0-0.7-0.4-1.1-1.3-1.1
		c-0.5,0-1,0.2-1.5,0.6l-0.3-0.5c0.6-0.4,1.2-0.7,2-0.7c1.2,0,1.9,0.6,1.9,1.7l0,3.2h-0.7V97.8z M156.3,96.8v-0.6h-1.5
		c-0.8,0-1.2,0.2-1.2,0.8c0,0.5,0.4,0.9,1.1,0.9C155.5,97.9,156.2,97.5,156.3,96.8z"/>
	<path d="M163.1,98.5h-0.7v-1c-0.4,0.7-1,1.1-1.9,1.1c-1.4,0-2.3-1-2.3-2.5c0-1.5,1-2.5,2.3-2.5c0.9,0,1.5,0.4,1.9,1.1v-3h0.7V98.5z
		 M162.4,96.1c0-1.1-0.7-1.8-1.8-1.8c-1,0-1.8,0.8-1.8,1.8c0,1.1,0.7,1.8,1.8,1.8C161.7,97.9,162.4,97.1,162.4,96.1z"/>
	<path d="M172.4,96.1c0,1.4-0.9,2.4-2.3,2.4c-0.9,0-1.5-0.4-1.9-1.1v1h-0.7v-6.8h0.7v3c0.4-0.7,1-1.1,1.9-1.1
		C171.4,93.6,172.4,94.6,172.4,96.1z M171.7,96.1c0-1-0.7-1.8-1.7-1.8c-1,0-1.7,0.8-1.7,1.8c0,1.1,0.7,1.8,1.7,1.8
		C170.9,97.9,171.7,97.1,171.7,96.1z"/>
	<path d="M177.8,96.4h-4c0.1,0.9,0.8,1.5,1.8,1.5c0.6,0,1.1-0.2,1.5-0.6l0.4,0.4c-0.5,0.5-1.1,0.8-2,0.8c-1.4,0-2.4-1-2.4-2.5
		s1-2.5,2.4-2.5C177.1,93.6,177.9,94.7,177.8,96.4z M177.2,95.8c0-0.9-0.7-1.5-1.6-1.5c-0.9,0-1.6,0.6-1.7,1.5H177.2z"/>
	<path d="M179.9,93.2v0.6h1.4v0.6h-1.4v4.1h-0.7v-4.1h-0.6v-0.6h0.6v-0.5c0-1.1,0.7-1.6,1.6-1.6c0.4,0,0.7,0.1,1,0.3l-0.3,0.6
		c-0.2-0.2-0.5-0.2-0.7-0.2C180.3,92.3,179.9,92.6,179.9,93.2z"/>
	<path d="M186.4,96.1c0,1.5-1,2.5-2.5,2.5c-1.4,0-2.5-1-2.5-2.5c0-1.4,1-2.4,2.5-2.4C185.3,93.6,186.4,94.6,186.4,96.1z M182.2,96.1
		c0,1.1,0.7,1.8,1.7,1.8c1,0,1.7-0.7,1.7-1.8c0-1.1-0.7-1.8-1.7-1.8C182.9,94.3,182.2,95,182.2,96.1z"/>
	<path d="M188.3,94.7c0.3-0.7,0.9-1.1,1.7-1.1v0.7c-1,0-1.7,0.6-1.7,1.6v2.6h-0.7v-4.9h0.7V94.7z"/>
	<path d="M195.2,96.4h-4c0.1,0.9,0.8,1.5,1.8,1.5c0.6,0,1.1-0.2,1.5-0.6l0.4,0.4c-0.5,0.5-1.1,0.8-2,0.8c-1.4,0-2.4-1-2.4-2.5
		s1-2.5,2.4-2.5C194.5,93.6,195.3,94.7,195.2,96.4z M194.6,95.8c0-0.9-0.7-1.5-1.6-1.5c-0.9,0-1.6,0.6-1.7,1.5H194.6z"/>
	<path d="M197,98.1c0,0.3-0.2,0.5-0.4,0.5c-0.3,0-0.5-0.2-0.5-0.5c0-0.3,0.2-0.5,0.5-0.5C196.8,97.6,197,97.8,197,98.1z"/>
</g>
</svg>
