<?xml version="1.0" encoding="utf-8"?>
<!-- Generator: Adobe Illustrator 18.1.1, SVG Export Plug-In . SVG Version: 6.00 Build 0)  -->
<svg version="1.1" id="Layer_1" xmlns="http://www.w3.org/2000/svg" xmlns:xlink="http://www.w3.org/1999/xlink" x="0px" y="0px"
	 viewBox="0 0 23.5 70.1" enable-background="new 0 0 23.5 70.1" xml:space="preserve">
<path fill="#FDBA12" d="M23,41.6c0-5.5-1.3-10.6-4.3-15.3c-0.6-1-1.1-2.2-1.2-3.4c-0.5-3.7-1-7.4-1.3-11.1c-0.3-3.1-0.3-6.3-0.4-9.4
	c0-0.2,0.2-0.3,0.2-0.5c0.3-0.9-0.1-1.5-0.9-1.7c-1.4-0.4-5.6-0.4-7,0C8.1,0.3,8,0.4,7.8,0.5C7.5,0.7,7.2,1.2,7.5,1.9
	c0.1,0.3,0.3,0.5,0.3,0.6c0,0-0.2,7.4-0.4,9.3c-0.2,2.4-0.9,9.9-1.2,11.2c-0.3,1.2-0.6,2.4-1.3,3.4c-3.4,5.4-4.2,10.4-4.2,15
	c-0.1,7.1-0.2,18.7-0.1,22.4c0,0.7,0,1.1,0,1.2c0.4,2.5,2.1,3.9,4.3,4.4c2.2,0.4,4.7,0.4,7,0.4c2.1,0,4.2,0,6.4-0.4
	c3-0.6,4.8-1.9,4.8-5.5C23,56.6,23,48.9,23,41.6z"/>
</svg>
