<?xml version="1.0" encoding="utf-8"?>
<!-- Generator: Adobe Illustrator 18.1.1, SVG Export Plug-In . SVG Version: 6.00 Build 0)  -->
<svg version="1.1" id="Layer_1" xmlns="http://www.w3.org/2000/svg" xmlns:xlink="http://www.w3.org/1999/xlink" x="0px" y="0px"
	 viewBox="0 0 22 79.9" enable-background="new 0 0 22 79.9" xml:space="preserve">
<path fill="#FDBA12" d="M21.3,42.8c-0.7-4.6-1.8-9-3.3-13.5c-2.6-7.6-2.5-19.8-2.6-22.7c0-1.4,0.1-3.2,0.4-4.6
	c0.1-0.6-0.1-1.3-0.7-1.6c0,0,0,0,0,0c0,0-0.1,0-0.1-0.1C14.3,0,11.6,0,11.6,0l0,0c0,0-0.1,0-0.1,0C9.6,0,8.1,0.3,8.1,0.3
	c-0.8,0.1-1.3,1-1.2,1.8c0.2,1.5,0.5,3,0.5,4.5C7.2,10.5,6.9,14.2,6.6,18c-0.3,4.6-0.9,9.1-2.5,13.6C2.9,35.2,2,39.1,1.5,42.9
	c-0.6,5.9-0.6,28.9-0.6,31.6c0,2.2,1.1,3.5,4.7,4.7c1.9,0.5,3.8,0.7,5.7,0.7c2,0,4,0,6.2-0.7c3.6-1,4.5-2.8,4.5-4.6
	C22.1,68.1,21.9,46.5,21.3,42.8z"/>
</svg>
