<?xml version="1.0" encoding="utf-8"?>
<!-- Generator: Adobe Illustrator 18.1.1, SVG Export Plug-In . SVG Version: 6.00 Build 0)  -->
<svg version="1.1" id="Layer_1" xmlns="http://www.w3.org/2000/svg" xmlns:xlink="http://www.w3.org/1999/xlink" x="0px" y="0px"
	 viewBox="0 0 22 81.2" enable-background="new 0 0 22 81.2" xml:space="preserve">
<path fill="#FDBA12" d="M21.9,54.7c0-5.2,0-10.4-0.1-15.6c-0.1-3.8-1.2-7.3-4-10c-1.2-1.1-1.7-2.4-1.7-4C15.8,20.6,15,7.7,14.7,6.2
	c-0.1-1.7,0.4-4.4,0.4-4.5c0.1-0.7-0.1-1-0.6-1.2C13.7,0,11,0,11,0C8.8,0,7.4,0.4,7.4,0.4S6.6,0.6,6.6,1.6c0.1,1.5,0.6,2.9,0.5,4.5
	c-0.4,6.5-0.9,12.9-1.3,19.4c-0.1,1.2-0.3,2.3-1.2,3.1c-3,2.9-4.3,6.5-4.4,10.6c-0.1,5.3-0.1,29.5-0.1,36c0,3.8,1.8,4.8,4.4,5.5
	c2.2,0.4,4.5,0.4,6.8,0.4c1.8,0,3.7-0.1,5.5-0.3c3.7-0.6,5.2-2.1,5.2-5.6C21.9,68.4,21.9,61.6,21.9,54.7z"/>
</svg>
