<?xml version="1.0" encoding="utf-8"?>
<!-- Generator: Adobe Illustrator 18.1.1, SVG Export Plug-In . SVG Version: 6.00 Build 0)  -->
<svg version="1.1" id="Layer_1" xmlns="http://www.w3.org/2000/svg" xmlns:xlink="http://www.w3.org/1999/xlink" x="0px" y="0px"
	 viewBox="0 0 124 124" enable-background="new 0 0 124 124" xml:space="preserve">
<path d="M124.1,62.1c0,34.3-27.8,62-62,61.9C27.7,124,0,96.3,0.1,62c0.1-34.3,27.8-62,62-61.9C96.4,0.2,124.1,27.9,124.1,62.1z
	 M14.9,67.5c2.6,24.8,24.1,40.6,41.7,41.6c-1.5-3.5-1-6.4,1.4-8.3c2.2-1.8,5.3-1.9,7.7-0.3c2.7,1.9,3.2,4.5,1.9,8.8
	c21.6-1.9,39.8-20.6,41.6-41.6c-4,1.4-6.6,0.9-8.5-1.6c-1.7-2.1-1.8-5.2-0.3-7.5c1-1.4,2.3-2.5,4-2.6c1.6-0.1,3.2,0.2,4.8,0.4
	c-2.3-23-22.5-39.9-41.6-41.2c1.5,3.7,0.9,6.6-1.6,8.5c-2.2,1.7-5.3,1.7-7.6,0.1c-2.6-1.9-3.2-4.6-1.8-8.7
	C34.9,16.9,16.7,35.7,15,56.6c4-1.4,6.8-0.9,8.7,1.8c1.6,2.3,1.6,5.4-0.1,7.6C21.6,68.5,18.9,69,14.9,67.5z"/>
<path d="M36.7,87.5c0.3-0.6,0.4-0.9,0.6-1.2c5.5-10.4,11-20.7,16.6-31.1c0.3-0.5,0.8-1.1,1.3-1.4c10.4-5.6,20.8-11.1,31.2-16.6
	c0.3-0.2,0.6-0.3,1.2-0.5c-0.3,0.6-0.4,1-0.6,1.3c-5.5,10.3-11,20.7-16.5,31c-0.3,0.5-0.8,1.1-1.3,1.4
	c-10.4,5.6-20.8,11.1-31.2,16.6C37.5,87.1,37.2,87.2,36.7,87.5z M68.2,62.1c0-3.3-2.8-6.1-6.1-6.1c-3.3,0-6.1,2.8-6.2,6.1
	c0,3.3,2.9,6.2,6.2,6.2C65.5,68.2,68.2,65.4,68.2,62.1z"/>
</svg>
